<?xml version="1.0" encoding="UTF-8" standalone="no"?>
<!DOCTYPE svg PUBLIC "-//W3C//DTD SVG 1.1//EN" "http://www.w3.org/Graphics/SVG/1.1/DTD/svg11.dtd">
<svg width="100%" height="100%" viewBox="0 0 744 178" version="1.1" xmlns="http://www.w3.org/2000/svg" xmlns:xlink="http://www.w3.org/1999/xlink" xml:space="preserve" xmlns:serif="http://www.serif.com/" style="fill-rule:evenodd;clip-rule:evenodd;stroke-linejoin:round;stroke-miterlimit:2;">
    <g transform="matrix(1,0,0,1,-10063.2,-3328.87)">
        <g transform="matrix(0.68881,0,0,0.36715,2919.92,1958.2)">
            <path d="M10501.6,4188.76C10471.6,4188.76 10443.7,4193.86 10417.9,4204.05C10417,4204.5 10411.6,4207.16 10401.6,4212.03C10393.6,4216.02 10388.6,4218.02 10386.7,4218.02C10381.5,4218.02 10377.4,4211.15 10374.3,4197.4C10371.7,4186.32 10370.4,4175.24 10370.4,4164.16C10370.4,4151.74 10372,4143.32 10375,4138.89C10380,4106.08 10395.4,4077.27 10421.1,4052.44C10446.4,4032.94 10471.6,4013.43 10496.6,3993.93C10527.1,3970.43 10547.8,3945.61 10558.6,3919.45C10564.1,3906.15 10566.8,3894.62 10566.8,3884.87C10566.8,3864.92 10558.1,3854.95 10540.6,3854.95C10527.6,3854.95 10510.5,3861.27 10489.4,3873.9C10468.2,3886.53 10451.5,3899.72 10439.2,3913.47C10429.7,3924.55 10423.2,3930.09 10419.7,3930.09C10412.1,3930.09 10406,3921.89 10401.3,3905.49C10397.3,3891.74 10395.2,3877.34 10395.2,3862.26C10395.2,3851.62 10396.1,3838.55 10397.7,3823.03C10398.9,3809.73 10400.2,3796.43 10401.6,3783.13C10402.3,3771.61 10403,3764.07 10403.8,3760.53C10405.2,3752.1 10407.7,3745.45 10411.4,3740.58C10415,3735.7 10419.5,3733.26 10424.7,3733.26C10430.1,3733.26 10435.2,3736.7 10440.1,3743.57C10444.9,3750.44 10447.4,3758.75 10447.4,3768.5C10447.4,3773.38 10445.8,3782.47 10442.6,3795.77C10439.4,3809.07 10437.8,3820.59 10437.8,3830.35C10437.8,3832.56 10437.9,3835 10438.1,3837.66C10477.4,3798.65 10511.3,3779.14 10539.9,3779.14C10558.5,3779.14 10574.1,3785.13 10586.6,3797.1C10603.2,3812.17 10611.5,3835.66 10611.5,3867.58C10611.5,3926.54 10588.2,3982.18 10541.6,4034.49C10531.2,4046.46 10514.5,4060.53 10491.3,4076.71C10468.1,4092.89 10451.2,4106.97 10440.6,4118.94C10464.5,4115.39 10495.7,4111.62 10534.2,4107.63C10560.4,4104.97 10591.3,4091.68 10626.7,4067.74C10627.6,4067.29 10628.6,4067.07 10629.5,4067.07C10635.4,4067.07 10638.4,4077.93 10638.4,4099.65C10638.4,4125.81 10635,4142.43 10628.1,4149.53C10602.1,4175.68 10559.9,4188.76 10501.6,4188.76Z" style="fill-rule:nonzero;"/>
        </g>
        <g transform="matrix(0.68881,0,0,0.36715,2919.92,1958.2)">
            <path d="M10694.7,4185.44C10649.1,4185.44 10626.3,4159.94 10626.3,4108.96C10626.3,4042.47 10664.4,3948.26 10740.5,3826.36C10733.4,3817.05 10729.8,3804.41 10729.8,3788.45C10729.8,3768.95 10737,3759.2 10751.5,3759.2C10759.3,3759.2 10772.1,3765.18 10790.1,3777.15C10822.9,3799.76 10848.1,3821.7 10865.6,3842.98C10895.1,3879.33 10909.9,3919.67 10909.9,3964C10909.9,4013.21 10890.9,4058.65 10852.8,4100.32C10800.6,4157.06 10747.9,4185.44 10694.7,4185.44ZM10873.4,3966.66C10873.4,3937.4 10860.7,3911.03 10835.5,3887.53C10818.4,3872.02 10798.8,3859.6 10776.6,3850.29C10771.4,3860.49 10763.5,3875.56 10752.9,3895.51C10727.1,3939.84 10710.6,3969.1 10703.3,3983.29C10680.1,4028.5 10668.5,4061.31 10668.5,4081.7C10668.5,4104.75 10680.8,4116.28 10705.4,4116.28C10729,4116.28 10756.7,4105.86 10788.3,4085.03C10821.9,4062.86 10846.2,4037.37 10861.3,4008.56C10869.4,3993.04 10873.4,3979.08 10873.4,3966.66Z" style="fill-rule:nonzero;"/>
        </g>
        <g transform="matrix(0.68881,0,0,0.36715,2919.92,1958.2)">
            <path d="M11028.6,4188.76C10998.6,4188.76 10970.7,4193.86 10945,4204.05C10944,4204.5 10938.6,4207.16 10928.7,4212.03C10920.6,4216.02 10915.7,4218.02 10913.8,4218.02C10908.6,4218.02 10904.5,4211.15 10901.4,4197.4C10898.8,4186.32 10897.5,4175.24 10897.5,4164.16C10897.5,4151.74 10899,4143.32 10902.1,4138.89C10907.1,4106.08 10922.4,4077.27 10948.2,4052.44C10973.5,4032.94 10998.6,4013.43 11023.7,3993.93C11054.1,3970.43 11074.8,3945.61 11085.7,3919.45C11091.1,3906.15 11093.8,3894.62 11093.8,3884.87C11093.8,3864.92 11085.1,3854.95 11067.6,3854.95C11054.6,3854.95 11037.5,3861.27 11016.4,3873.9C10995.3,3886.53 10978.5,3899.72 10966.2,3913.47C10956.8,3924.55 10950.3,3930.09 10946.8,3930.09C10939.2,3930.09 10933,3921.89 10928.3,3905.49C10924.3,3891.74 10922.3,3877.34 10922.3,3862.26C10922.3,3851.62 10923.1,3838.55 10924.8,3823.03C10926,3809.73 10927.3,3796.43 10928.7,3783.13C10929.4,3771.61 10930.1,3764.07 10930.8,3760.53C10932.2,3752.1 10934.8,3745.45 10938.4,3740.58C10942.1,3735.7 10946.5,3733.26 10951.7,3733.26C10957.1,3733.26 10962.3,3736.7 10967.1,3743.57C10972,3750.44 10974.4,3758.75 10974.4,3768.5C10974.4,3773.38 10972.8,3782.47 10969.6,3795.77C10966.4,3809.07 10964.8,3820.59 10964.8,3830.35C10964.8,3832.56 10964.9,3835 10965.2,3837.66C11004.4,3798.65 11038.3,3779.14 11066.9,3779.14C11085.6,3779.14 11101.2,3785.13 11113.7,3797.1C11130.2,3812.17 11138.5,3835.66 11138.5,3867.58C11138.5,3926.54 11115.2,3982.18 11068.7,4034.49C11058.3,4046.46 11041.5,4060.53 11018.4,4076.71C10995.2,4092.89 10978.3,4106.97 10967.7,4118.94C10991.5,4115.39 11022.7,4111.62 11061.2,4107.63C11087.5,4104.97 11118.3,4091.68 11153.7,4067.74C11154.7,4067.29 11155.6,4067.07 11156.6,4067.07C11162.5,4067.07 11165.4,4077.93 11165.4,4099.65C11165.4,4125.81 11162,4142.43 11155.2,4149.53C11129.2,4175.68 11087,4188.76 11028.6,4188.76Z" style="fill-rule:nonzero;"/>
        </g>
        <g transform="matrix(0.68881,0,0,0.36715,2919.92,1958.2)">
            <path d="M11286.7,4212.7C11253.8,4212.7 11216,4200.95 11173.2,4177.45C11167.8,4175.24 11161.2,4170.81 11153.4,4164.16C11150.8,4159.72 11149.5,4153.07 11149.5,4144.21C11149.5,4132.68 11151.3,4122.04 11155,4112.29C11158.6,4102.54 11163.4,4097.66 11169.3,4097.66C11171.7,4097.66 11174.5,4098.99 11177.8,4101.65C11200.8,4119.38 11217.2,4131.13 11227.1,4136.89C11245.5,4147.98 11262.8,4153.52 11278.9,4153.52C11304.1,4153.52 11330.8,4143.54 11359,4123.59C11394.2,4099.21 11411.8,4067.74 11411.8,4029.17C11411.8,3999.02 11399,3983.95 11373.5,3983.95C11345.6,3983.95 11309.6,4006.12 11265.4,4050.45C11259.5,4065.08 11249.8,4072.39 11236.3,4072.39C11225.2,4072.39 11219.7,4065.3 11219.7,4051.11C11219.7,4046.24 11220.6,4039.7 11222.3,4031.5C11224.1,4023.3 11225,4017.2 11225,4013.21C11225,4001.68 11220.4,3983.95 11211.2,3960.01C11194.4,3917.9 11185.6,3895.73 11184.9,3893.52C11175.5,3865.59 11170.8,3841.21 11170.8,3820.37C11170.8,3798.21 11176.5,3787.12 11188.1,3787.12C11191.4,3787.12 11196,3788.23 11201.9,3790.45C11219,3797.1 11236.3,3800.42 11254.1,3800.42C11268.5,3800.42 11289.8,3797.21 11318.2,3790.78C11346.6,3784.35 11367.9,3781.14 11382.4,3781.14C11393.7,3781.14 11400,3781.36 11401.1,3781.8C11410.4,3783.13 11415.7,3787.35 11417.1,3794.44C11418,3797.54 11418.5,3801.75 11418.5,3807.07C11418.5,3817.71 11417.1,3827.91 11414.3,3837.66C11410.9,3849.63 11406.7,3855.61 11401.5,3855.61C11396.3,3855.61 11388.6,3854.73 11378.3,3852.95C11368,3851.18 11360.3,3850.29 11355.1,3850.29C11342.8,3850.29 11328.4,3852.51 11311.8,3856.94C11279.2,3865.37 11249.7,3868.03 11223.2,3864.92C11226.5,3879.11 11232.8,3898.5 11242,3923.11C11251.2,3947.71 11257.5,3966.66 11260.8,3979.96C11305.9,3930.31 11345,3905.49 11378.1,3905.49C11398.2,3905.49 11414.8,3914.8 11428.1,3933.41C11443,3954.25 11450.4,3982.84 11450.4,4019.19C11450.4,4057.76 11441.2,4094.78 11422.8,4130.24C11394.2,4185.21 11348.8,4212.7 11286.7,4212.7Z" style="fill-rule:nonzero;"/>
        </g>
    </g>
</svg>
