<?xml version="1.0" encoding="UTF-8" standalone="no"?>
<!DOCTYPE svg PUBLIC "-//W3C//DTD SVG 1.1//EN" "http://www.w3.org/Graphics/SVG/1.1/DTD/svg11.dtd">
<svg width="100%" height="100%" viewBox="0 0 1920 807" version="1.1" xmlns="http://www.w3.org/2000/svg" xmlns:xlink="http://www.w3.org/1999/xlink" xml:space="preserve" xmlns:serif="http://www.serif.com/" style="fill-rule:evenodd;clip-rule:evenodd;stroke-linecap:round;stroke-linejoin:round;stroke-miterlimit:1.5;">
    <g transform="matrix(1,0,0,1,-4299.49,-126.295)">
        <g id="above_the_crowd" transform="matrix(1,0,0,0.746389,4299.49,126.295)">
            <rect x="0" y="0" width="1920" height="1080" style="fill:none;"/>
            <g id="politics" transform="matrix(0.384307,0,0,0.654077,458.964,86.0724)">
                <path d="M1433.56,218.366C1499.3,443.541 1563.6,570.478 1294.16,671.489C1151.7,724.9 859.01,744.844 715.38,645.06C604.152,567.787 418.244,630.236 427.659,309.969C428.779,271.835 526.148,184.328 526.148,184.328L384.517,25.998L619.508,111.273C619.508,111.273 960.098,-10.158 1014.85,0C1217.79,37.649 1400.61,105.464 1433.56,218.366Z" style="fill:rgb(8,211,123);"/>
                <clipPath id="_clip1">
                    <path d="M1433.56,218.366C1499.3,443.541 1563.6,570.478 1294.16,671.489C1151.7,724.9 859.01,744.844 715.38,645.06C604.152,567.787 418.244,630.236 427.659,309.969C428.779,271.835 526.148,184.328 526.148,184.328L384.517,25.998L619.508,111.273C619.508,111.273 960.098,-10.158 1014.85,0C1217.79,37.649 1400.61,105.464 1433.56,218.366Z"/>
                </clipPath>
                <g clip-path="url(#_clip1)">
                    <g transform="matrix(2.60208,0,0,2.04836,-10930.4,-643.108)">
                        <g transform="matrix(40.5464,0,0,40.5464,4630.04,480.371)">
                        </g>
                        <text x="4492.26px" y="480.371px" style="font-family:'Quosm-SemiBold', 'Quosm';font-weight:600;font-size:40.546px;fill:white;">politics</text>
                    </g>
                </g>
                <path d="M1433.56,218.366C1499.3,443.541 1563.6,570.478 1294.16,671.489C1151.7,724.9 859.01,744.844 715.38,645.06C604.152,567.787 418.244,630.236 427.659,309.969C428.779,271.835 526.148,184.328 526.148,184.328L384.517,25.998L619.508,111.273C619.508,111.273 960.098,-10.158 1014.85,0C1217.79,37.649 1400.61,105.464 1433.56,218.366Z" style="fill:none;stroke:black;stroke-width:15.93px;"/>
            </g>
            <g id="information" transform="matrix(0.384307,0,0,0.654077,107.922,172.197)">
                <path d="M1433.56,218.366C1632.8,564.051 1088.11,811.051 923.663,715.749L636.657,970.911L729.743,730.081C729.743,730.081 436.702,706.086 406.971,644.214C354.485,534.987 263.353,341.752 352.377,240.87C447.088,133.544 805.131,145.991 938.158,170.67C1141.1,208.32 1374.83,116.464 1433.56,218.366Z" style="fill:rgb(153,122,212);"/>
                <clipPath id="_clip2">
                    <path d="M1433.56,218.366C1632.8,564.051 1088.11,811.051 923.663,715.749L636.657,970.911L729.743,730.081C729.743,730.081 436.702,706.086 406.971,644.214C354.485,534.987 263.353,341.752 352.377,240.87C447.088,133.544 805.131,145.991 938.158,170.67C1141.1,208.32 1374.83,116.464 1433.56,218.366Z"/>
                </clipPath>
                <g clip-path="url(#_clip2)">
                    <g transform="matrix(2.60208,0,0,2.04836,-10972.2,-498.739)">
                        <g transform="matrix(40.5464,0,0,40.5464,4675.94,480.371)">
                        </g>
                        <text x="4446.36px" y="480.371px" style="font-family:'Quosm-SemiBold', 'Quosm';font-weight:600;font-size:40.546px;fill:white;">inf<tspan x="4496.44px 4521.01px " y="480.371px 480.371px ">or</tspan>mation</text>
                    </g>
                </g>
                <path d="M1433.56,218.366C1632.8,564.051 1088.11,811.051 923.663,715.749L636.657,970.911L729.743,730.081C729.743,730.081 436.702,706.086 406.971,644.214C354.485,534.987 263.353,341.752 352.377,240.87C447.088,133.544 805.131,145.991 938.158,170.67C1141.1,208.32 1374.83,116.464 1433.56,218.366Z" style="fill:none;stroke:black;stroke-width:15.93px;"/>
            </g>
            <g id="media" transform="matrix(0.384307,0,0,0.654077,663.392,321.292)">
                <path d="M1433.56,218.366C1499.3,443.541 1563.6,570.478 1294.16,671.489C1280.08,676.769 1125.53,660.691 1125.53,660.691L1042.74,876.416L959.254,701.767C959.254,701.767 765.342,679.77 715.38,645.06C604.152,567.787 418.244,630.236 427.659,309.969C431.499,179.323 616.19,41.556 752.861,41.354C1005.44,40.983 1400.61,105.464 1433.56,218.366Z" style="fill:rgb(243,28,98);"/>
                <clipPath id="_clip3">
                    <path d="M1433.56,218.366C1499.3,443.541 1563.6,570.478 1294.16,671.489C1280.08,676.769 1125.53,660.691 1125.53,660.691L1042.74,876.416L959.254,701.767C959.254,701.767 765.342,679.77 715.38,645.06C604.152,567.787 418.244,630.236 427.659,309.969C431.499,179.323 616.19,41.556 752.861,41.354C1005.44,40.983 1400.61,105.464 1433.56,218.366Z"/>
                </clipPath>
                <g clip-path="url(#_clip3)">
                    <g transform="matrix(2.60208,0,0,2.04836,-10869.9,-607.081)">
                        <g transform="matrix(40.5464,0,0,40.5464,4621.63,480.371)">
                        </g>
                        <text x="4500.68px" y="480.371px" style="font-family:'Quosm-SemiBold', 'Quosm';font-weight:600;font-size:40.546px;fill:white;">media</text>
                    </g>
                </g>
                <path d="M1433.56,218.366C1499.3,443.541 1563.6,570.478 1294.16,671.489C1280.08,676.769 1125.53,660.691 1125.53,660.691L1042.74,876.416L959.254,701.767C959.254,701.767 765.342,679.77 715.38,645.06C604.152,567.787 418.244,630.236 427.659,309.969C431.499,179.323 616.19,41.556 752.861,41.354C1005.44,40.983 1400.61,105.464 1433.56,218.366Z" style="fill:none;stroke:black;stroke-width:15.93px;"/>
            </g>
            <g id="polarization" transform="matrix(0.472706,-1.16705e-17,5.32427e-18,-0.445356,986.13,808.721)">
                <path d="M1433.56,218.366C1499.3,443.541 1563.6,570.478 1294.16,671.489C1151.7,724.9 859.01,744.844 715.38,645.06C604.152,567.787 418.244,630.236 427.659,309.969C431.499,179.323 881.825,-24.679 1014.85,0C1080.49,12.177 1201.06,46.502 1201.06,46.502L1381.27,-192.687L1333.52,105.47C1333.52,105.47 1420.64,174.104 1433.56,218.366Z" style="fill:rgb(243,186,28);"/>
                <clipPath id="_clip4">
                    <path d="M1433.56,218.366C1499.3,443.541 1563.6,570.478 1294.16,671.489C1151.7,724.9 859.01,744.844 715.38,645.06C604.152,567.787 418.244,630.236 427.659,309.969C431.499,179.323 881.825,-24.679 1014.85,0C1080.49,12.177 1201.06,46.502 1201.06,46.502L1381.27,-192.687L1333.52,105.47C1333.52,105.47 1420.64,174.104 1433.56,218.366Z"/>
                </clipPath>
                <g clip-path="url(#_clip4)">
                    <g transform="matrix(2.11548,-5.54358e-17,3.38842e-17,-3.00834,-8663.31,1757.97)">
                        <g transform="matrix(40.5464,0,0,40.5464,4676.63,480.371)">
                        </g>
                        <text x="4445.67px" y="480.371px" style="font-family:'Quosm-SemiBold', 'Quosm';font-weight:600;font-size:40.546px;fill:white;">polarization</text>
                    </g>
                </g>
                <path d="M1433.56,218.366C1499.3,443.541 1563.6,570.478 1294.16,671.489C1151.7,724.9 859.01,744.844 715.38,645.06C604.152,567.787 418.244,630.236 427.659,309.969C431.499,179.323 881.825,-24.679 1014.85,0C1080.49,12.177 1201.06,46.502 1201.06,46.502L1381.27,-192.687L1333.52,105.47C1333.52,105.47 1420.64,174.104 1433.56,218.366Z" style="fill:none;stroke:black;stroke-width:17.13px;"/>
            </g>
            <g id="society" transform="matrix(0.384307,0,0,0.654077,916.958,139.089)">
                <path d="M1433.56,218.366C1433.56,218.366 1563.6,570.478 1294.16,671.489C1151.7,724.9 859.01,744.844 715.38,645.06C604.152,567.787 563.245,275.19 603.788,215.159C675.886,108.409 881.825,-24.679 1014.85,0C1139.45,23.116 1335.87,106.916 1335.87,106.916L1612.31,93.91L1433.56,218.366Z" style="fill:rgb(236,87,0);"/>
                <clipPath id="_clip5">
                    <path d="M1433.56,218.366C1433.56,218.366 1563.6,570.478 1294.16,671.489C1151.7,724.9 859.01,744.844 715.38,645.06C604.152,567.787 563.245,275.19 603.788,215.159C675.886,108.409 881.825,-24.679 1014.85,0C1139.45,23.116 1335.87,106.916 1335.87,106.916L1612.31,93.91L1433.56,218.366Z"/>
                </clipPath>
                <g clip-path="url(#_clip5)">
                    <g transform="matrix(2.60208,0,0,2.04836,-10827.5,-605.82)">
                        <g transform="matrix(40.5464,0,0,40.5464,4630.24,480.371)">
                        </g>
                        <text x="4492.06px" y="480.371px" style="font-family:'Quosm-SemiBold', 'Quosm';font-weight:600;font-size:40.546px;fill:white;">society</text>
                    </g>
                </g>
                <path d="M1433.56,218.366C1433.56,218.366 1563.6,570.478 1294.16,671.489C1151.7,724.9 859.01,744.844 715.38,645.06C604.152,567.787 563.245,275.19 603.788,215.159C675.886,108.409 881.825,-24.679 1014.85,0C1139.45,23.116 1335.87,106.916 1335.87,106.916L1612.31,93.91L1433.56,218.366Z" style="fill:none;stroke:black;stroke-width:15.93px;"/>
            </g>
            <g id="communication" transform="matrix(-0.413153,0,0,0.654077,1129.35,443.068)">
                <path d="M1433.56,218.366C1499.3,443.541 1563.6,570.478 1294.16,671.489C1250.17,687.981 1068.57,705.211 1068.57,705.211L804.493,842.797L861.455,680.133C861.455,680.133 418.244,630.236 427.659,309.969C431.499,179.323 881.825,-24.679 1014.85,0C1217.79,37.649 1400.61,105.464 1433.56,218.366Z" style="fill:rgb(67,141,198);"/>
                <clipPath id="_clip6">
                    <path d="M1433.56,218.366C1499.3,443.541 1563.6,570.478 1294.16,671.489C1250.17,687.981 1068.57,705.211 1068.57,705.211L804.493,842.797L861.455,680.133C861.455,680.133 418.244,630.236 427.659,309.969C431.499,179.323 881.825,-24.679 1014.85,0C1217.79,37.649 1400.61,105.464 1433.56,218.366Z"/>
                </clipPath>
                <g clip-path="url(#_clip6)">
                    <g transform="matrix(-2.42041,0,0,2.04836,11998.4,-617.313)">
                        <g transform="matrix(40.5464,0,0,40.5464,4714.64,480.371)">
                        </g>
                        <text x="4407.66px" y="480.371px" style="font-family:'Quosm-SemiBold', 'Quosm';font-weight:600;font-size:40.546px;fill:white;">communication</text>
                    </g>
                </g>
                <path d="M1433.56,218.366C1499.3,443.541 1563.6,570.478 1294.16,671.489C1250.17,687.981 1068.57,705.211 1068.57,705.211L804.493,842.797L861.455,680.133C861.455,680.133 418.244,630.236 427.659,309.969C431.499,179.323 881.825,-24.679 1014.85,0C1217.79,37.649 1400.61,105.464 1433.56,218.366Z" style="fill:none;stroke:black;stroke-width:15.48px;"/>
            </g>
        </g>
    </g>
</svg>
