<?xml version="1.0" encoding="UTF-8" standalone="no"?>
<!DOCTYPE svg PUBLIC "-//W3C//DTD SVG 1.1//EN" "http://www.w3.org/Graphics/SVG/1.1/DTD/svg11.dtd">
<svg width="100%" height="100%" viewBox="0 0 1920 807" version="1.1" xmlns="http://www.w3.org/2000/svg" xmlns:xlink="http://www.w3.org/1999/xlink" xml:space="preserve" xmlns:serif="http://www.serif.com/" style="fill-rule:evenodd;clip-rule:evenodd;stroke-linecap:round;stroke-linejoin:round;stroke-miterlimit:1.5;">
    <g transform="matrix(1,0,0,1,-436.236,0)">
        <g id="callout" transform="matrix(1,0,0,0.746389,436.236,0)">
            <rect x="0" y="0" width="1920" height="1080" style="fill:none;"/>
            <g id="callout1" serif:id="callout" transform="matrix(1,0,0,1.33978,45.6753,29.5987)">
                <path d="M1433.56,218.366C1499.3,443.541 1551.8,496.914 1282.36,597.926C1121.02,658.414 784.176,661.805 784.749,662.777L684.905,763.963L713.004,617.079C664.408,585.738 418.244,630.236 427.659,309.969C431.499,179.323 881.825,-24.679 1014.85,0C1217.79,37.649 1400.61,105.464 1433.56,218.366Z" style="fill:rgb(67, 141, 198);stroke:white;stroke-width:7px;"/>
            </g>
        </g>
    </g>
</svg>
