<?xml version="1.0" encoding="UTF-8" standalone="no"?>
<!DOCTYPE svg PUBLIC "-//W3C//DTD SVG 1.1//EN" "http://www.w3.org/Graphics/SVG/1.1/DTD/svg11.dtd">
<svg width="100%" height="100%" viewBox="0 0 1920 1407" version="1.1" xmlns="http://www.w3.org/2000/svg" xmlns:xlink="http://www.w3.org/1999/xlink" xml:space="preserve" xmlns:serif="http://www.serif.com/" style="fill-rule:evenodd;clip-rule:evenodd;stroke-linecap:round;stroke-linejoin:round;stroke-miterlimit:1.5;">
    <g transform="matrix(1,0,0,1,-6749.88,-472.507)">
        <g id="connect_page" transform="matrix(1,0,0,1.30236,6749.88,472.507)">
            <rect x="0" y="0" width="1920" height="1080" style="fill:none;"/>
            <g id="politics" transform="matrix(0.384307,0,0,0.374853,313.302,80.3533)">
                <path d="M1433.56,218.366C1499.3,443.541 1563.6,570.478 1294.16,671.489C1151.7,724.9 859.01,744.844 715.38,645.06C604.152,567.787 418.244,630.236 427.659,309.969C428.779,271.835 526.148,184.328 526.148,184.328L384.517,25.998L619.508,111.273C619.508,111.273 960.098,-10.158 1014.85,0C1217.79,37.649 1400.61,105.464 1433.56,218.366Z" style="fill:rgb(8,211,123);fill-opacity:0.47;"/>
                <clipPath id="_clip1">
                    <path d="M1433.56,218.366C1499.3,443.541 1563.6,570.478 1294.16,671.489C1151.7,724.9 859.01,744.844 715.38,645.06C604.152,567.787 418.244,630.236 427.659,309.969C428.779,271.835 526.148,184.328 526.148,184.328L384.517,25.998L619.508,111.273C619.508,111.273 960.098,-10.158 1014.85,0C1217.79,37.649 1400.61,105.464 1433.56,218.366Z"/>
                </clipPath>
                <g clip-path="url(#_clip1)">
                    <g transform="matrix(2.60208,0,0,2.04836,-10930.4,-643.108)">
                        <path d="M4494.69,488.156C4494.69,489.656 4495.95,490.873 4497.45,490.873C4498.95,490.873 4500.17,489.656 4500.17,488.156L4500.17,478.466C4501.59,479.966 4503.45,480.736 4505.76,480.736C4508.36,480.736 4510.63,479.723 4512.53,477.695C4514.44,475.668 4515.41,473.195 4515.41,470.235C4515.41,467.275 4514.44,464.801 4512.53,462.774C4510.63,460.747 4508.36,459.733 4505.76,459.733C4503.45,459.733 4501.59,460.503 4500.13,462.044C4499.93,460.747 4498.79,459.733 4497.45,459.733C4495.95,459.733 4494.69,460.95 4494.69,462.45L4494.69,488.156ZM4504.99,475.79C4501.95,475.79 4500.17,473.478 4500.17,470.235C4500.17,466.991 4501.95,464.68 4504.99,464.68C4506.29,464.68 4507.39,465.207 4508.32,466.302C4509.25,467.356 4509.74,468.653 4509.74,470.235C4509.74,471.816 4509.25,473.113 4508.32,474.208C4507.39,475.262 4506.29,475.79 4504.99,475.79Z" style="fill-rule:nonzero;"/>
                        <path d="M4521.17,477.736C4523.24,479.723 4525.83,480.736 4528.96,480.736C4532.08,480.736 4534.67,479.723 4536.7,477.736C4538.77,475.749 4539.78,473.235 4539.78,470.235C4539.78,467.234 4538.77,464.72 4536.7,462.734C4534.67,460.747 4532.08,459.733 4528.96,459.733C4525.83,459.733 4523.24,460.747 4521.17,462.734C4519.1,464.72 4518.09,467.234 4518.09,470.235C4518.09,473.235 4519.1,475.749 4521.17,477.736ZM4528.96,475.79C4525.91,475.79 4523.93,473.478 4523.93,470.235C4523.93,466.991 4525.91,464.68 4528.96,464.68C4531.92,464.68 4533.94,467.031 4533.94,470.235C4533.94,473.438 4531.92,475.79 4528.96,475.79Z" style="fill-rule:nonzero;"/>
                        <path d="M4543.43,475.141C4543.43,478.547 4545.66,480.736 4549.23,480.736C4550.65,480.736 4551.78,479.601 4551.78,478.182C4551.78,476.763 4550.65,475.668 4549.23,475.668C4549.03,475.668 4548.9,475.506 4548.9,475.141L4548.9,452.313C4548.9,450.813 4547.69,449.597 4546.19,449.597C4544.69,449.597 4543.43,450.813 4543.43,452.313L4543.43,475.141Z" style="fill-rule:nonzero;"/>
                        <path d="M4557.42,450.894C4555.68,450.894 4554.3,452.273 4554.3,454.016C4554.3,455.76 4555.68,457.138 4557.42,457.138C4559.16,457.138 4560.54,455.76 4560.54,454.016C4560.54,452.273 4559.08,450.894 4557.42,450.894ZM4554.66,478.02C4554.66,479.52 4555.92,480.736 4557.42,480.736C4558.92,480.736 4560.14,479.52 4560.14,478.02L4560.14,462.45C4560.14,460.95 4558.92,459.733 4557.42,459.733C4555.92,459.733 4554.66,460.95 4554.66,462.45L4554.66,478.02Z" style="fill-rule:nonzero;"/>
                        <path d="M4565.12,460.098C4563.83,460.098 4562.73,461.152 4562.73,462.49C4562.73,463.747 4563.83,464.842 4565.12,464.842L4565.41,464.842L4565.41,472.1C4565.41,474.492 4566.26,476.519 4568,478.222C4569.75,479.885 4571.81,480.736 4574.25,480.736C4575.67,480.736 4576.72,479.641 4576.72,478.303C4576.72,476.965 4575.67,475.83 4574.25,475.83C4572.42,475.83 4570.88,474.168 4570.88,472.1L4570.88,464.842L4574.25,464.842C4575.54,464.842 4576.64,463.747 4576.64,462.49C4576.64,461.152 4575.54,460.098 4574.25,460.098L4570.88,460.098L4570.88,456.368C4570.88,454.868 4569.66,453.651 4568.16,453.651C4566.66,453.651 4565.41,454.868 4565.41,456.368L4565.41,460.098L4565.12,460.098Z" style="fill-rule:nonzero;"/>
                        <path d="M4582.96,450.894C4581.22,450.894 4579.84,452.273 4579.84,454.016C4579.84,455.76 4581.22,457.138 4582.96,457.138C4584.71,457.138 4586.09,455.76 4586.09,454.016C4586.09,452.273 4584.63,450.894 4582.96,450.894ZM4580.21,478.02C4580.21,479.52 4581.46,480.736 4582.96,480.736C4584.46,480.736 4585.68,479.52 4585.68,478.02L4585.68,462.45C4585.68,460.95 4584.46,459.733 4582.96,459.733C4581.46,459.733 4580.21,460.95 4580.21,462.45L4580.21,478.02Z" style="fill-rule:nonzero;"/>
                        <path d="M4600.24,459.733C4597.11,459.733 4594.52,460.747 4592.45,462.734C4590.38,464.72 4589.37,467.234 4589.37,470.235C4589.37,473.235 4590.38,475.749 4592.45,477.736C4594.52,479.723 4597.11,480.736 4600.24,480.736C4603.28,480.736 4605.79,479.804 4607.86,477.898C4608.43,477.411 4608.71,476.722 4608.71,475.871C4608.91,473.519 4605.55,472.262 4604.01,474.046C4602.95,475.222 4601.7,475.79 4600.24,475.79C4597.2,475.79 4595.21,473.478 4595.21,470.235C4595.21,466.991 4597.2,464.68 4600.24,464.68C4601.7,464.68 4602.95,465.247 4604.01,466.423C4605.55,468.248 4608.91,466.95 4608.71,464.639C4608.71,463.747 4608.43,463.058 4607.86,462.571C4605.79,460.666 4603.28,459.733 4600.24,459.733Z" style="fill-rule:nonzero;"/>
                        <path d="M4620.51,459.733C4618.08,459.733 4616.13,460.382 4614.63,461.679C4613.13,462.977 4612.4,464.437 4612.4,466.018C4612.32,470.762 4616.45,472.1 4619.58,472.627C4621.81,472.992 4623.51,473.478 4623.51,474.411C4623.51,475.587 4622.54,476.154 4620.55,476.154C4619.9,476.154 4619.29,476.073 4618.77,475.911C4617.83,475.627 4616.94,475.019 4616.09,474.087C4615.64,473.478 4615,473.154 4614.19,473.154C4612.69,473.154 4611.79,474.208 4611.79,475.627C4611.79,476.236 4612.12,476.965 4612.77,477.736C4614.67,479.723 4617.23,480.736 4620.51,480.736C4623.31,480.736 4625.38,480.087 4626.8,478.83C4628.21,477.533 4628.94,476.073 4628.94,474.411C4628.98,469.667 4624.93,468.451 4621.81,468.005C4619.66,467.64 4617.91,467.153 4617.91,466.018C4617.91,465.166 4618.89,464.315 4620.55,464.315C4622.17,464.315 4623.02,465.207 4623.51,465.693L4623.71,465.896C4623.92,466.099 4624.44,466.423 4624.65,466.545C4625.05,466.748 4625.3,466.829 4625.78,466.829C4627.24,466.829 4628.09,465.734 4628.09,464.477C4628.09,463.585 4627.77,462.815 4627.12,462.166C4625.5,460.544 4623.31,459.733 4620.51,459.733Z" style="fill-rule:nonzero;"/>
                    </g>
                </g>
                <path d="M1433.56,218.366C1499.3,443.541 1563.6,570.478 1294.16,671.489C1151.7,724.9 859.01,744.844 715.38,645.06C604.152,567.787 418.244,630.236 427.659,309.969C428.779,271.835 526.148,184.328 526.148,184.328L384.517,25.998L619.508,111.273C619.508,111.273 960.098,-10.158 1014.85,0C1217.79,37.649 1400.61,105.464 1433.56,218.366Z" style="fill:none;stroke:white;stroke-width:15.93px;"/>
            </g>
            <g id="information" transform="matrix(0.384307,0,0,0.374853,54.4817,675.002)">
                <path d="M1433.56,218.366C1632.8,564.051 1088.11,811.051 923.663,715.749L636.657,970.911L729.743,730.081C729.743,730.081 436.702,706.086 406.971,644.214C354.485,534.987 263.353,341.752 352.377,240.87C447.088,133.544 805.131,145.991 938.158,170.67C1141.1,208.32 1374.83,116.464 1433.56,218.366Z" style="fill:rgb(153,122,212);fill-opacity:0.5;"/>
                <clipPath id="_clip2">
                    <path d="M1433.56,218.366C1632.8,564.051 1088.11,811.051 923.663,715.749L636.657,970.911L729.743,730.081C729.743,730.081 436.702,706.086 406.971,644.214C354.485,534.987 263.353,341.752 352.377,240.87C447.088,133.544 805.131,145.991 938.158,170.67C1141.1,208.32 1374.83,116.464 1433.56,218.366Z"/>
                </clipPath>
                <g clip-path="url(#_clip2)">
                    <g transform="matrix(2.60208,0,0,2.04836,-10972.2,-498.739)">
                        <path d="M4451.63,450.894C4449.89,450.894 4448.51,452.273 4448.51,454.016C4448.51,455.76 4449.89,457.138 4451.63,457.138C4453.38,457.138 4454.76,455.76 4454.76,454.016C4454.76,452.273 4453.3,450.894 4451.63,450.894ZM4448.88,478.02C4448.88,479.52 4450.13,480.736 4451.63,480.736C4453.13,480.736 4454.35,479.52 4454.35,478.02L4454.35,462.45C4454.35,460.95 4453.13,459.733 4451.63,459.733C4450.13,459.733 4448.88,460.95 4448.88,462.45L4448.88,478.02Z" style="fill-rule:nonzero;"/>
                        <path d="M4459.01,478.02C4459.01,479.52 4460.27,480.736 4461.77,480.736C4463.27,480.736 4464.49,479.52 4464.49,478.02L4464.49,470.032C4464.53,468.613 4465.01,467.356 4465.87,466.302C4466.76,465.207 4467.89,464.68 4469.31,464.68C4472.27,464.68 4473.81,466.302 4473.81,470.235L4473.81,478.02C4473.81,479.52 4475.07,480.736 4476.57,480.736C4478.07,480.736 4479.29,479.52 4479.29,478.02L4479.29,470.235C4479.29,463.707 4475.88,459.733 4470.08,459.733C4467.85,459.733 4465.99,460.544 4464.45,462.166C4464.32,460.828 4463.19,459.733 4461.77,459.733C4460.27,459.733 4459.01,460.95 4459.01,462.45L4459.01,478.02Z" style="fill-rule:nonzero;"/>
                        <path d="M4493.8,464.842C4495.1,464.842 4496.19,463.788 4496.19,462.49C4496.19,461.193 4495.1,460.098 4493.8,460.098L4490.44,460.098L4490.44,458.233C4490.44,456.165 4491.98,454.503 4493.8,454.503C4495.22,454.503 4496.28,453.367 4496.28,452.029C4496.28,450.691 4495.22,449.597 4493.8,449.597C4491.37,449.597 4489.3,450.448 4487.56,452.151C4485.82,453.813 4484.96,455.841 4484.96,458.233L4484.96,460.098L4484.68,460.098C4483.38,460.098 4482.29,461.193 4482.29,462.49C4482.29,463.788 4483.38,464.842 4484.68,464.842L4484.96,464.842L4484.96,478.02C4484.96,479.52 4486.22,480.736 4487.72,480.736C4489.22,480.736 4490.44,479.52 4490.44,478.02L4490.44,464.842L4493.8,464.842Z" style="fill-rule:nonzero;"/>
                        <path d="M4501.06,477.736C4503.13,479.723 4505.72,480.736 4508.85,480.736C4511.97,480.736 4514.56,479.723 4516.59,477.736C4518.66,475.749 4519.67,473.235 4519.67,470.235C4519.67,467.234 4518.66,464.72 4516.59,462.734C4514.56,460.747 4511.97,459.733 4508.85,459.733C4505.72,459.733 4503.13,460.747 4501.06,462.734C4498.99,464.72 4497.98,467.234 4497.98,470.235C4497.98,473.235 4498.99,475.749 4501.06,477.736ZM4508.85,475.79C4505.8,475.79 4503.82,473.478 4503.82,470.235C4503.82,466.991 4505.8,464.68 4508.85,464.68C4511.81,464.68 4513.83,467.031 4513.83,470.235C4513.83,473.438 4511.81,475.79 4508.85,475.79Z" style="fill-rule:nonzero;"/>
                        <path d="M4523.32,478.02C4523.32,479.52 4524.58,480.736 4526.08,480.736C4527.58,480.736 4528.79,479.52 4528.79,478.02L4528.79,470.032C4528.92,467.072 4530.78,464.68 4534.39,464.68C4535.81,464.68 4536.86,463.626 4536.86,462.206C4536.86,460.787 4535.81,459.733 4534.39,459.733C4532.16,459.733 4530.29,460.544 4528.75,462.166C4528.63,460.828 4527.41,459.733 4526.08,459.733C4524.58,459.733 4523.32,460.95 4523.32,462.45L4523.32,478.02Z" style="fill-rule:nonzero;"/>
                        <path d="M4560.62,470.235C4560.62,468.734 4561.07,467.437 4561.92,466.342C4562.81,465.247 4563.99,464.68 4565.45,464.68C4568.41,464.68 4569.95,466.302 4569.95,470.235L4569.95,478.02C4569.95,479.52 4571.21,480.736 4572.71,480.736C4574.21,480.736 4575.42,479.52 4575.42,478.02L4575.42,470.235C4575.42,463.707 4572.02,459.733 4566.22,459.733C4562.98,459.733 4560.46,460.868 4558.64,463.098C4557.01,460.868 4554.62,459.733 4551.42,459.733C4549.19,459.733 4547.32,460.544 4545.78,462.166C4545.66,460.828 4544.53,459.733 4543.11,459.733C4541.61,459.733 4540.35,460.95 4540.35,462.45L4540.35,478.02C4540.35,479.52 4541.61,480.736 4543.11,480.736C4544.61,480.736 4545.82,479.52 4545.82,478.02L4545.82,470.032C4545.86,468.613 4546.35,467.356 4547.2,466.302C4548.09,465.207 4549.23,464.68 4550.65,464.68C4553.61,464.68 4555.15,466.302 4555.15,470.235L4555.15,478.02C4555.15,479.52 4556.41,480.736 4557.91,480.736C4559.41,480.736 4560.62,479.52 4560.62,478.02L4560.62,470.235Z" style="fill-rule:nonzero;"/>
                        <path d="M4580.82,463.747C4580.82,465.045 4582.07,465.977 4583.25,465.977C4583.86,465.977 4584.38,465.896 4584.75,465.734C4586.33,464.883 4587.83,464.477 4589.21,464.477C4591.44,464.477 4592.69,465.653 4592.98,468.045L4591.76,468.045C4583.33,468.045 4579.36,469.708 4579.36,473.803C4579.36,478.222 4582.15,480.736 4587.51,480.736C4589.69,480.736 4591.56,479.925 4593.06,478.344C4593.22,479.682 4594.4,480.736 4595.82,480.736C4597.32,480.736 4598.53,479.52 4598.53,478.02L4598.53,469.262C4598.53,465.937 4597.68,463.504 4595.94,462.004C4594.19,460.503 4591.97,459.733 4589.21,459.733C4585.76,459.733 4583.21,460.463 4581.63,461.923C4581.1,462.369 4580.82,462.977 4580.82,463.747ZM4587.91,476.195C4585.84,476.195 4584.83,475.384 4584.83,473.803C4584.83,473.073 4585.28,472.546 4586.21,472.221C4587.14,471.857 4588.97,471.694 4591.76,471.694L4592.94,471.694C4592.53,474.695 4590.87,476.195 4587.91,476.195Z" style="fill-rule:nonzero;"/>
                        <path d="M4603.52,460.098C4602.22,460.098 4601.13,461.152 4601.13,462.49C4601.13,463.747 4602.22,464.842 4603.52,464.842L4603.81,464.842L4603.81,472.1C4603.81,474.492 4604.66,476.519 4606.4,478.222C4608.14,479.885 4610.21,480.736 4612.64,480.736C4614.06,480.736 4615.12,479.641 4615.12,478.303C4615.12,476.965 4614.06,475.83 4612.64,475.83C4610.82,475.83 4609.28,474.168 4609.28,472.1L4609.28,464.842L4612.64,464.842C4613.94,464.842 4615.04,463.747 4615.04,462.49C4615.04,461.152 4613.94,460.098 4612.64,460.098L4609.28,460.098L4609.28,456.368C4609.28,454.868 4608.06,453.651 4606.56,453.651C4605.06,453.651 4603.81,454.868 4603.81,456.368L4603.81,460.098L4603.52,460.098Z" style="fill-rule:nonzero;"/>
                        <path d="M4621.36,450.894C4619.62,450.894 4618.24,452.273 4618.24,454.016C4618.24,455.76 4619.62,457.138 4621.36,457.138C4623.11,457.138 4624.48,455.76 4624.48,454.016C4624.48,452.273 4623.02,450.894 4621.36,450.894ZM4618.6,478.02C4618.6,479.52 4619.86,480.736 4621.36,480.736C4622.86,480.736 4624.08,479.52 4624.08,478.02L4624.08,462.45C4624.08,460.95 4622.86,459.733 4621.36,459.733C4619.86,459.733 4618.6,460.95 4618.6,462.45L4618.6,478.02Z" style="fill-rule:nonzero;"/>
                        <path d="M4630.85,477.736C4632.92,479.723 4635.51,480.736 4638.63,480.736C4641.76,480.736 4644.35,479.723 4646.38,477.736C4648.45,475.749 4649.46,473.235 4649.46,470.235C4649.46,467.234 4648.45,464.72 4646.38,462.734C4644.35,460.747 4641.76,459.733 4638.63,459.733C4635.51,459.733 4632.92,460.747 4630.85,462.734C4628.78,464.72 4627.77,467.234 4627.77,470.235C4627.77,473.235 4628.78,475.749 4630.85,477.736ZM4638.63,475.79C4635.59,475.79 4633.61,473.478 4633.61,470.235C4633.61,466.991 4635.59,464.68 4638.63,464.68C4641.59,464.68 4643.62,467.031 4643.62,470.235C4643.62,473.438 4641.59,475.79 4638.63,475.79Z" style="fill-rule:nonzero;"/>
                        <path d="M4653.11,478.02C4653.11,479.52 4654.37,480.736 4655.87,480.736C4657.37,480.736 4658.58,479.52 4658.58,478.02L4658.58,470.032C4658.62,468.613 4659.11,467.356 4659.96,466.302C4660.85,465.207 4661.99,464.68 4663.41,464.68C4666.37,464.68 4667.91,466.302 4667.91,470.235L4667.91,478.02C4667.91,479.52 4669.17,480.736 4670.67,480.736C4672.17,480.736 4673.38,479.52 4673.38,478.02L4673.38,470.235C4673.38,463.707 4669.98,459.733 4664.18,459.733C4661.95,459.733 4660.08,460.544 4658.54,462.166C4658.42,460.828 4657.29,459.733 4655.87,459.733C4654.37,459.733 4653.11,460.95 4653.11,462.45L4653.11,478.02Z" style="fill-rule:nonzero;"/>
                    </g>
                </g>
                <path d="M1433.56,218.366C1632.8,564.051 1088.11,811.051 923.663,715.749L636.657,970.911L729.743,730.081C729.743,730.081 436.702,706.086 406.971,644.214C354.485,534.987 263.353,341.752 352.377,240.87C447.088,133.544 805.131,145.991 938.158,170.67C1141.1,208.32 1374.83,116.464 1433.56,218.366Z" style="fill:none;stroke:white;stroke-width:15.93px;"/>
            </g>
            <g id="media" transform="matrix(0.384307,0,0,0.374853,1217.12,717.129)">
                <path d="M1433.56,218.366C1499.3,443.541 1563.6,570.478 1294.16,671.489C1280.08,676.769 1125.53,660.691 1125.53,660.691L1042.74,876.416L959.254,701.767C959.254,701.767 765.342,679.77 715.38,645.06C604.152,567.787 418.244,630.236 427.659,309.969C431.499,179.323 616.19,41.556 752.861,41.354C1005.44,40.983 1400.61,105.464 1433.56,218.366Z" style="fill:rgb(243,28,98);fill-opacity:0.5;"/>
                <clipPath id="_clip3">
                    <path d="M1433.56,218.366C1499.3,443.541 1563.6,570.478 1294.16,671.489C1280.08,676.769 1125.53,660.691 1125.53,660.691L1042.74,876.416L959.254,701.767C959.254,701.767 765.342,679.77 715.38,645.06C604.152,567.787 418.244,630.236 427.659,309.969C431.499,179.323 616.19,41.556 752.861,41.354C1005.44,40.983 1400.61,105.464 1433.56,218.366Z"/>
                </clipPath>
                <g clip-path="url(#_clip3)">
                    <g transform="matrix(2.60208,0,0,2.04836,-10869.9,-607.081)">
                        <path d="M4523.3,470.235C4523.3,468.734 4523.75,467.437 4524.6,466.342C4525.49,465.247 4526.66,464.68 4528.12,464.68C4531.09,464.68 4532.63,466.302 4532.63,470.235L4532.63,478.02C4532.63,479.52 4533.88,480.736 4535.38,480.736C4536.88,480.736 4538.1,479.52 4538.1,478.02L4538.1,470.235C4538.1,463.707 4534.69,459.733 4528.9,459.733C4525.65,459.733 4523.14,460.868 4521.31,463.098C4519.69,460.868 4517.3,459.733 4514.1,459.733C4511.87,459.733 4510,460.544 4508.46,462.166C4508.34,460.828 4507.2,459.733 4505.78,459.733C4504.28,459.733 4503.03,460.95 4503.03,462.45L4503.03,478.02C4503.03,479.52 4504.28,480.736 4505.78,480.736C4507.28,480.736 4508.5,479.52 4508.5,478.02L4508.5,470.032C4508.54,468.613 4509.03,467.356 4509.88,466.302C4510.77,465.207 4511.91,464.68 4513.32,464.68C4516.28,464.68 4517.83,466.302 4517.83,470.235L4517.83,478.02C4517.83,479.52 4519.08,480.736 4520.58,480.736C4522.08,480.736 4523.3,479.52 4523.3,478.02L4523.3,470.235Z" style="fill-rule:nonzero;"/>
                        <path d="M4559.39,472.1C4561.01,472.1 4562.63,471.167 4562.63,469.545C4562.63,466.788 4561.7,464.477 4559.87,462.571C4558.05,460.666 4555.61,459.733 4552.57,459.733C4549.45,459.733 4546.86,460.747 4544.83,462.734C4542.8,464.72 4541.79,467.194 4541.79,470.235C4541.79,473.276 4542.8,475.79 4544.83,477.776C4546.9,479.763 4549.49,480.736 4552.66,480.736C4556.02,480.736 4558.53,480.006 4560.28,478.547C4560.93,478.06 4561.25,477.411 4561.25,476.56C4561.25,474.979 4559.99,473.722 4558.41,473.722C4557.76,473.722 4557.24,473.884 4556.83,474.208C4555.74,475.262 4554.32,475.79 4552.66,475.79C4550.06,475.79 4548.4,474.33 4547.87,472.1L4559.39,472.1ZM4552.25,464.68C4554.56,464.68 4555.98,465.815 4556.59,468.045L4547.91,468.045C4548.52,465.815 4549.98,464.68 4552.25,464.68Z" style="fill-rule:nonzero;"/>
                        <path d="M4586.03,452.313C4586.03,450.813 4584.77,449.597 4583.27,449.597C4581.77,449.597 4580.55,450.813 4580.55,452.313L4580.55,462.004C4579.13,460.503 4577.27,459.733 4574.96,459.733C4572.36,459.733 4570.09,460.747 4568.19,462.774C4566.28,464.801 4565.31,467.275 4565.31,470.235C4565.31,473.195 4566.28,475.668 4568.19,477.695C4570.09,479.723 4572.36,480.736 4574.96,480.736C4577.27,480.736 4579.13,479.966 4580.59,478.425C4580.8,479.723 4581.93,480.736 4583.27,480.736C4584.77,480.736 4586.03,479.52 4586.03,478.02L4586.03,452.313ZM4575.73,464.68C4578.77,464.68 4580.55,466.991 4580.55,470.235C4580.55,473.478 4578.77,475.79 4575.73,475.79C4574.43,475.79 4573.29,475.262 4572.36,474.208C4571.43,473.113 4570.98,471.816 4570.98,470.235C4570.98,468.653 4571.43,467.356 4572.36,466.302C4573.29,465.207 4574.43,464.68 4575.73,464.68Z" style="fill-rule:nonzero;"/>
                        <path d="M4593.4,450.894C4591.66,450.894 4590.28,452.273 4590.28,454.016C4590.28,455.76 4591.66,457.138 4593.4,457.138C4595.15,457.138 4596.53,455.76 4596.53,454.016C4596.53,452.273 4595.07,450.894 4593.4,450.894ZM4590.65,478.02C4590.65,479.52 4591.9,480.736 4593.4,480.736C4594.9,480.736 4596.12,479.52 4596.12,478.02L4596.12,462.45C4596.12,460.95 4594.9,459.733 4593.4,459.733C4591.9,459.733 4590.65,460.95 4590.65,462.45L4590.65,478.02Z" style="fill-rule:nonzero;"/>
                        <path d="M4601.51,463.747C4601.51,465.045 4602.77,465.977 4603.95,465.977C4604.56,465.977 4605.08,465.896 4605.45,465.734C4607.03,464.883 4608.53,464.477 4609.91,464.477C4612.14,464.477 4613.39,465.653 4613.68,468.045L4612.46,468.045C4604.03,468.045 4600.05,469.708 4600.05,473.803C4600.05,478.222 4602.85,480.736 4608.2,480.736C4610.39,480.736 4612.26,479.925 4613.76,478.344C4613.92,479.682 4615.1,480.736 4616.52,480.736C4618.02,480.736 4619.23,479.52 4619.23,478.02L4619.23,469.262C4619.23,465.937 4618.38,463.504 4616.64,462.004C4614.89,460.503 4612.66,459.733 4609.91,459.733C4606.46,459.733 4603.91,460.463 4602.32,461.923C4601.8,462.369 4601.51,462.977 4601.51,463.747ZM4608.61,476.195C4606.54,476.195 4605.53,475.384 4605.53,473.803C4605.53,473.073 4605.97,472.546 4606.91,472.221C4607.84,471.857 4609.66,471.694 4612.46,471.694L4613.64,471.694C4613.23,474.695 4611.57,476.195 4608.61,476.195Z" style="fill-rule:nonzero;"/>
                    </g>
                </g>
                <path d="M1433.56,218.366C1499.3,443.541 1563.6,570.478 1294.16,671.489C1280.08,676.769 1125.53,660.691 1125.53,660.691L1042.74,876.416L959.254,701.767C959.254,701.767 765.342,679.77 715.38,645.06C604.152,567.787 418.244,630.236 427.659,309.969C431.499,179.323 616.19,41.556 752.861,41.354C1005.44,40.983 1400.61,105.464 1433.56,218.366Z" style="fill:none;stroke:white;stroke-width:15.93px;"/>
            </g>
            <g id="polarization" transform="matrix(0.472706,-6.68839e-18,5.32427e-18,-0.255235,758.006,239.131)">
                <path d="M1433.56,218.366C1499.3,443.541 1563.6,570.478 1294.16,671.489C1151.7,724.9 859.01,744.844 715.38,645.06C604.152,567.787 418.244,630.236 427.659,309.969C431.499,179.323 881.825,-24.679 1014.85,0C1080.49,12.177 1201.06,46.502 1201.06,46.502L1381.27,-192.687L1333.52,105.47C1333.52,105.47 1420.64,174.104 1433.56,218.366Z" style="fill:rgb(243,186,28);fill-opacity:0.5;"/>
                <clipPath id="_clip4">
                    <path d="M1433.56,218.366C1499.3,443.541 1563.6,570.478 1294.16,671.489C1151.7,724.9 859.01,744.844 715.38,645.06C604.152,567.787 418.244,630.236 427.659,309.969C431.499,179.323 881.825,-24.679 1014.85,0C1080.49,12.177 1201.06,46.502 1201.06,46.502L1381.27,-192.687L1333.52,105.47C1333.52,105.47 1420.64,174.104 1433.56,218.366Z"/>
                </clipPath>
                <g clip-path="url(#_clip4)">
                    <g transform="matrix(2.11548,-5.54358e-17,3.38842e-17,-3.00834,-8663.31,1757.97)">
                        <path d="M4448.21,488.156C4448.21,489.656 4449.47,490.873 4450.97,490.873C4452.47,490.873 4453.68,489.656 4453.68,488.156L4453.68,478.466C4455.1,479.966 4456.97,480.736 4459.28,480.736C4461.87,480.736 4464.14,479.723 4466.05,477.695C4467.95,475.668 4468.93,473.195 4468.93,470.235C4468.93,467.275 4467.95,464.801 4466.05,462.774C4464.14,460.747 4461.87,459.733 4459.28,459.733C4456.97,459.733 4455.1,460.503 4453.64,462.044C4453.44,460.747 4452.3,459.733 4450.97,459.733C4449.47,459.733 4448.21,460.95 4448.21,462.45L4448.21,488.156ZM4458.51,475.79C4455.47,475.79 4453.68,473.478 4453.68,470.235C4453.68,466.991 4455.47,464.68 4458.51,464.68C4459.8,464.68 4460.9,465.207 4461.83,466.302C4462.76,467.356 4463.25,468.653 4463.25,470.235C4463.25,471.816 4462.76,473.113 4461.83,474.208C4460.9,475.262 4459.8,475.79 4458.51,475.79Z" style="fill-rule:nonzero;"/>
                        <path d="M4474.69,477.736C4476.75,479.723 4479.35,480.736 4482.47,480.736C4485.59,480.736 4488.19,479.723 4490.21,477.736C4492.28,475.749 4493.3,473.235 4493.3,470.235C4493.3,467.234 4492.28,464.72 4490.21,462.734C4488.19,460.747 4485.59,459.733 4482.47,459.733C4479.35,459.733 4476.75,460.747 4474.69,462.734C4472.62,464.72 4471.6,467.234 4471.6,470.235C4471.6,473.235 4472.62,475.749 4474.69,477.736ZM4482.47,475.79C4479.43,475.79 4477.44,473.478 4477.44,470.235C4477.44,466.991 4479.43,464.68 4482.47,464.68C4485.43,464.68 4487.46,467.031 4487.46,470.235C4487.46,473.438 4485.43,475.79 4482.47,475.79Z" style="fill-rule:nonzero;"/>
                        <path d="M4496.94,475.141C4496.94,478.547 4499.18,480.736 4502.74,480.736C4504.16,480.736 4505.3,479.601 4505.3,478.182C4505.3,476.763 4504.16,475.668 4502.74,475.668C4502.54,475.668 4502.42,475.506 4502.42,475.141L4502.42,452.313C4502.42,450.813 4501.2,449.597 4499.7,449.597C4498.2,449.597 4496.94,450.813 4496.94,452.313L4496.94,475.141Z" style="fill-rule:nonzero;"/>
                        <path d="M4508.91,463.747C4508.91,465.045 4510.16,465.977 4511.34,465.977C4511.95,465.977 4512.47,465.896 4512.84,465.734C4514.42,464.883 4515.92,464.477 4517.3,464.477C4519.53,464.477 4520.79,465.653 4521.07,468.045L4519.85,468.045C4511.42,468.045 4507.45,469.708 4507.45,473.803C4507.45,478.222 4510.24,480.736 4515.6,480.736C4517.79,480.736 4519.65,479.925 4521.15,478.344C4521.31,479.682 4522.49,480.736 4523.91,480.736C4525.41,480.736 4526.62,479.52 4526.62,478.02L4526.62,469.262C4526.62,465.937 4525.77,463.504 4524.03,462.004C4522.29,460.503 4520.06,459.733 4517.3,459.733C4513.85,459.733 4511.3,460.463 4509.72,461.923C4509.19,462.369 4508.91,462.977 4508.91,463.747ZM4516,476.195C4513.93,476.195 4512.92,475.384 4512.92,473.803C4512.92,473.073 4513.37,472.546 4514.3,472.221C4515.23,471.857 4517.06,471.694 4519.85,471.694L4521.03,471.694C4520.62,474.695 4518.96,476.195 4516,476.195Z" style="fill-rule:nonzero;"/>
                        <path d="M4531.29,478.02C4531.29,479.52 4532.54,480.736 4534.05,480.736C4535.55,480.736 4536.76,479.52 4536.76,478.02L4536.76,470.032C4536.88,467.072 4538.75,464.68 4542.36,464.68C4543.78,464.68 4544.83,463.626 4544.83,462.206C4544.83,460.787 4543.78,459.733 4542.36,459.733C4540.13,459.733 4538.26,460.544 4536.72,462.166C4536.6,460.828 4535.38,459.733 4534.05,459.733C4532.54,459.733 4531.29,460.95 4531.29,462.45L4531.29,478.02Z" style="fill-rule:nonzero;"/>
                        <path d="M4551.07,450.894C4549.33,450.894 4547.95,452.273 4547.95,454.016C4547.95,455.76 4549.33,457.138 4551.07,457.138C4552.82,457.138 4554.2,455.76 4554.2,454.016C4554.2,452.273 4552.74,450.894 4551.07,450.894ZM4548.32,478.02C4548.32,479.52 4549.57,480.736 4551.07,480.736C4552.57,480.736 4553.79,479.52 4553.79,478.02L4553.79,462.45C4553.79,460.95 4552.57,459.733 4551.07,459.733C4549.57,459.733 4548.32,460.95 4548.32,462.45L4548.32,478.02Z" style="fill-rule:nonzero;"/>
                        <path d="M4558.41,476.519C4558.09,476.925 4557.93,477.411 4557.93,477.979C4557.93,479.317 4558.98,480.371 4560.28,480.371L4573.9,480.371C4575.24,480.371 4576.29,479.317 4576.29,477.979C4576.29,476.682 4575.24,475.627 4573.9,475.627L4566.16,475.627L4575.24,464.112C4575.69,463.544 4575.89,463.017 4575.89,462.49C4575.89,461.152 4574.83,460.098 4573.5,460.098L4560.72,460.098C4559.39,460.098 4558.33,461.152 4558.33,462.49C4558.33,463.788 4559.39,464.842 4560.72,464.842L4567.62,464.842L4558.41,476.519Z" style="fill-rule:nonzero;"/>
                        <path d="M4581.48,463.747C4581.48,465.045 4582.74,465.977 4583.92,465.977C4584.53,465.977 4585.05,465.896 4585.42,465.734C4587,464.883 4588.5,464.477 4589.88,464.477C4592.11,464.477 4593.36,465.653 4593.65,468.045L4592.43,468.045C4584,468.045 4580.02,469.708 4580.02,473.803C4580.02,478.222 4582.82,480.736 4588.17,480.736C4590.36,480.736 4592.23,479.925 4593.73,478.344C4593.89,479.682 4595.07,480.736 4596.49,480.736C4597.99,480.736 4599.2,479.52 4599.2,478.02L4599.2,469.262C4599.2,465.937 4598.35,463.504 4596.61,462.004C4594.86,460.503 4592.63,459.733 4589.88,459.733C4586.43,459.733 4583.88,460.463 4582.3,461.923C4581.77,462.369 4581.48,462.977 4581.48,463.747ZM4588.58,476.195C4586.51,476.195 4585.5,475.384 4585.5,473.803C4585.5,473.073 4585.94,472.546 4586.88,472.221C4587.81,471.857 4589.63,471.694 4592.43,471.694L4593.61,471.694C4593.2,474.695 4591.54,476.195 4588.58,476.195Z" style="fill-rule:nonzero;"/>
                        <path d="M4604.19,460.098C4602.89,460.098 4601.8,461.152 4601.8,462.49C4601.8,463.747 4602.89,464.842 4604.19,464.842L4604.47,464.842L4604.47,472.1C4604.47,474.492 4605.32,476.519 4607.07,478.222C4608.81,479.885 4610.88,480.736 4613.31,480.736C4614.73,480.736 4615.79,479.641 4615.79,478.303C4615.79,476.965 4614.73,475.83 4613.31,475.83C4611.49,475.83 4609.95,474.168 4609.95,472.1L4609.95,464.842L4613.31,464.842C4614.61,464.842 4615.7,463.747 4615.7,462.49C4615.7,461.152 4614.61,460.098 4613.31,460.098L4609.95,460.098L4609.95,456.368C4609.95,454.868 4608.73,453.651 4607.23,453.651C4605.73,453.651 4604.47,454.868 4604.47,456.368L4604.47,460.098L4604.19,460.098Z" style="fill-rule:nonzero;"/>
                        <path d="M4622.03,450.894C4620.29,450.894 4618.91,452.273 4618.91,454.016C4618.91,455.76 4620.29,457.138 4622.03,457.138C4623.77,457.138 4625.15,455.76 4625.15,454.016C4625.15,452.273 4623.69,450.894 4622.03,450.894ZM4619.27,478.02C4619.27,479.52 4620.53,480.736 4622.03,480.736C4623.53,480.736 4624.75,479.52 4624.75,478.02L4624.75,462.45C4624.75,460.95 4623.53,459.733 4622.03,459.733C4620.53,459.733 4619.27,460.95 4619.27,462.45L4619.27,478.02Z" style="fill-rule:nonzero;"/>
                        <path d="M4631.52,477.736C4633.59,479.723 4636.18,480.736 4639.3,480.736C4642.43,480.736 4645.02,479.723 4647.05,477.736C4649.12,475.749 4650.13,473.235 4650.13,470.235C4650.13,467.234 4649.12,464.72 4647.05,462.734C4645.02,460.747 4642.43,459.733 4639.3,459.733C4636.18,459.733 4633.59,460.747 4631.52,462.734C4629.45,464.72 4628.44,467.234 4628.44,470.235C4628.44,473.235 4629.45,475.749 4631.52,477.736ZM4639.3,475.79C4636.26,475.79 4634.28,473.478 4634.28,470.235C4634.28,466.991 4636.26,464.68 4639.3,464.68C4642.26,464.68 4644.29,467.031 4644.29,470.235C4644.29,473.438 4642.26,475.79 4639.3,475.79Z" style="fill-rule:nonzero;"/>
                        <path d="M4653.78,478.02C4653.78,479.52 4655.03,480.736 4656.54,480.736C4658.04,480.736 4659.25,479.52 4659.25,478.02L4659.25,470.032C4659.29,468.613 4659.78,467.356 4660.63,466.302C4661.52,465.207 4662.66,464.68 4664.08,464.68C4667.04,464.68 4668.58,466.302 4668.58,470.235L4668.58,478.02C4668.58,479.52 4669.84,480.736 4671.34,480.736C4672.84,480.736 4674.05,479.52 4674.05,478.02L4674.05,470.235C4674.05,463.707 4670.65,459.733 4664.85,459.733C4662.62,459.733 4660.75,460.544 4659.21,462.166C4659.09,460.828 4657.95,459.733 4656.54,459.733C4655.03,459.733 4653.78,460.95 4653.78,462.45L4653.78,478.02Z" style="fill-rule:nonzero;"/>
                    </g>
                </g>
                <path d="M1433.56,218.366C1499.3,443.541 1563.6,570.478 1294.16,671.489C1151.7,724.9 859.01,744.844 715.38,645.06C604.152,567.787 418.244,630.236 427.659,309.969C431.499,179.323 881.825,-24.679 1014.85,0C1080.49,12.177 1201.06,46.502 1201.06,46.502L1381.27,-192.687L1333.52,105.47C1333.52,105.47 1420.64,174.104 1433.56,218.366Z" style="fill:none;stroke:white;stroke-width:17.13px;"/>
            </g>
            <g id="society" transform="matrix(0.384307,0,0,0.374853,-146.422,308.459)">
                <path d="M1433.56,218.366C1433.56,218.366 1563.6,570.478 1294.16,671.489C1151.7,724.9 859.01,744.844 715.38,645.06C604.152,567.787 563.245,275.19 603.788,215.159C675.886,108.409 881.825,-24.679 1014.85,0C1139.45,23.116 1335.87,106.916 1335.87,106.916L1612.31,93.91L1433.56,218.366Z" style="fill:rgb(236,87,0);fill-opacity:0.5;"/>
                <clipPath id="_clip5">
                    <path d="M1433.56,218.366C1433.56,218.366 1563.6,570.478 1294.16,671.489C1151.7,724.9 859.01,744.844 715.38,645.06C604.152,567.787 563.245,275.19 603.788,215.159C675.886,108.409 881.825,-24.679 1014.85,0C1139.45,23.116 1335.87,106.916 1335.87,106.916L1612.31,93.91L1433.56,218.366Z"/>
                </clipPath>
                <g clip-path="url(#_clip5)">
                    <g transform="matrix(2.60208,0,0,2.04836,-10827.5,-605.82)">
                        <path d="M4502.19,459.733C4499.76,459.733 4497.82,460.382 4496.32,461.679C4494.82,462.977 4494.09,464.437 4494.09,466.018C4494.01,470.762 4498.14,472.1 4501.26,472.627C4503.49,472.992 4505.2,473.478 4505.2,474.411C4505.2,475.587 4504.22,476.154 4502.24,476.154C4501.59,476.154 4500.98,476.073 4500.45,475.911C4499.52,475.627 4498.63,475.019 4497.78,474.087C4497.33,473.478 4496.68,473.154 4495.87,473.154C4494.37,473.154 4493.48,474.208 4493.48,475.627C4493.48,476.236 4493.8,476.965 4494.45,477.736C4496.36,479.723 4498.91,480.736 4502.19,480.736C4504.99,480.736 4507.06,480.087 4508.48,478.83C4509.9,477.533 4510.63,476.073 4510.63,474.411C4510.67,469.667 4506.61,468.451 4503.49,468.005C4501.34,467.64 4499.6,467.153 4499.6,466.018C4499.6,465.166 4500.57,464.315 4502.24,464.315C4503.86,464.315 4504.71,465.207 4505.2,465.693L4505.4,465.896C4505.6,466.099 4506.13,466.423 4506.33,466.545C4506.74,466.748 4506.98,466.829 4507.47,466.829C4508.93,466.829 4509.78,465.734 4509.78,464.477C4509.78,463.585 4509.45,462.815 4508.81,462.166C4507.18,460.544 4504.99,459.733 4502.19,459.733Z" style="fill-rule:nonzero;"/>
                        <path d="M4516.02,477.736C4518.09,479.723 4520.69,480.736 4523.81,480.736C4526.93,480.736 4529.52,479.723 4531.55,477.736C4533.62,475.749 4534.63,473.235 4534.63,470.235C4534.63,467.234 4533.62,464.72 4531.55,462.734C4529.52,460.747 4526.93,459.733 4523.81,459.733C4520.69,459.733 4518.09,460.747 4516.02,462.734C4513.95,464.72 4512.94,467.234 4512.94,470.235C4512.94,473.235 4513.95,475.749 4516.02,477.736ZM4523.81,475.79C4520.77,475.79 4518.78,473.478 4518.78,470.235C4518.78,466.991 4520.77,464.68 4523.81,464.68C4526.77,464.68 4528.79,467.031 4528.79,470.235C4528.79,473.438 4526.77,475.79 4523.81,475.79Z" style="fill-rule:nonzero;"/>
                        <path d="M4548.18,459.733C4545.05,459.733 4542.46,460.747 4540.39,462.734C4538.32,464.72 4537.31,467.234 4537.31,470.235C4537.31,473.235 4538.32,475.749 4540.39,477.736C4542.46,479.723 4545.05,480.736 4548.18,480.736C4551.22,480.736 4553.73,479.804 4555.8,477.898C4556.37,477.411 4556.65,476.722 4556.65,475.871C4556.85,473.519 4553.49,472.262 4551.95,474.046C4550.89,475.222 4549.64,475.79 4548.18,475.79C4545.13,475.79 4543.15,473.478 4543.15,470.235C4543.15,466.991 4545.13,464.68 4548.18,464.68C4549.64,464.68 4550.89,465.247 4551.95,466.423C4553.49,468.248 4556.85,466.95 4556.65,464.639C4556.65,463.747 4556.37,463.058 4555.8,462.571C4553.73,460.666 4551.22,459.733 4548.18,459.733Z" style="fill-rule:nonzero;"/>
                        <path d="M4563.46,450.894C4561.72,450.894 4560.34,452.273 4560.34,454.016C4560.34,455.76 4561.72,457.138 4563.46,457.138C4565.2,457.138 4566.58,455.76 4566.58,454.016C4566.58,452.273 4565.12,450.894 4563.46,450.894ZM4560.7,478.02C4560.7,479.52 4561.96,480.736 4563.46,480.736C4564.96,480.736 4566.18,479.52 4566.18,478.02L4566.18,462.45C4566.18,460.95 4564.96,459.733 4563.46,459.733C4561.96,459.733 4560.7,460.95 4560.7,462.45L4560.7,478.02Z" style="fill-rule:nonzero;"/>
                        <path d="M4587.47,472.1C4589.09,472.1 4590.71,471.167 4590.71,469.545C4590.71,466.788 4589.78,464.477 4587.95,462.571C4586.13,460.666 4583.69,459.733 4580.65,459.733C4577.53,459.733 4574.94,460.747 4572.91,462.734C4570.88,464.72 4569.87,467.194 4569.87,470.235C4569.87,473.276 4570.88,475.79 4572.91,477.776C4574.98,479.763 4577.57,480.736 4580.73,480.736C4584.1,480.736 4586.61,480.006 4588.36,478.547C4589.01,478.06 4589.33,477.411 4589.33,476.56C4589.33,474.979 4588.07,473.722 4586.49,473.722C4585.84,473.722 4585.32,473.884 4584.91,474.208C4583.82,475.262 4582.4,475.79 4580.73,475.79C4578.14,475.79 4576.48,474.33 4575.95,472.1L4587.47,472.1ZM4580.33,464.68C4582.64,464.68 4584.06,465.815 4584.67,468.045L4575.99,468.045C4576.6,465.815 4578.06,464.68 4580.33,464.68Z" style="fill-rule:nonzero;"/>
                        <path d="M4594.68,460.098C4593.38,460.098 4592.29,461.152 4592.29,462.49C4592.29,463.747 4593.38,464.842 4594.68,464.842L4594.97,464.842L4594.97,472.1C4594.97,474.492 4595.82,476.519 4597.56,478.222C4599.3,479.885 4601.37,480.736 4603.81,480.736C4605.22,480.736 4606.28,479.641 4606.28,478.303C4606.28,476.965 4605.22,475.83 4603.81,475.83C4601.98,475.83 4600.44,474.168 4600.44,472.1L4600.44,464.842L4603.81,464.842C4605.1,464.842 4606.2,463.747 4606.2,462.49C4606.2,461.152 4605.1,460.098 4603.81,460.098L4600.44,460.098L4600.44,456.368C4600.44,454.868 4599.22,453.651 4597.72,453.651C4596.22,453.651 4594.97,454.868 4594.97,456.368L4594.97,460.098L4594.68,460.098Z" style="fill-rule:nonzero;"/>
                        <path d="M4629.71,462.288C4629.71,460.868 4628.46,459.733 4626.96,459.733C4625.86,459.733 4625.01,460.301 4624.4,461.477L4618.81,472.789L4613.21,461.477C4612.6,460.301 4611.75,459.733 4610.62,459.733C4609.16,459.733 4607.9,460.868 4607.9,462.288C4607.9,462.612 4608.06,463.058 4608.35,463.666L4615.77,478.182L4611.1,487.143C4610.9,487.589 4610.82,487.953 4610.82,488.318C4610.82,489.737 4612.08,490.873 4613.58,490.873C4614.71,490.873 4615.52,490.386 4616.01,489.454L4629.27,463.666C4629.55,463.058 4629.71,462.612 4629.71,462.288Z" style="fill-rule:nonzero;"/>
                    </g>
                </g>
                <path d="M1433.56,218.366C1433.56,218.366 1563.6,570.478 1294.16,671.489C1151.7,724.9 859.01,744.844 715.38,645.06C604.152,567.787 563.245,275.19 603.788,215.159C675.886,108.409 881.825,-24.679 1014.85,0C1139.45,23.116 1335.87,106.916 1335.87,106.916L1612.31,93.91L1433.56,218.366Z" style="fill:none;stroke:white;stroke-width:15.93px;"/>
            </g>
            <g id="communication" transform="matrix(-0.413153,0,0,0.374853,1997.43,289.079)">
                <path d="M1433.56,218.366C1499.3,443.541 1563.6,570.478 1294.16,671.489C1250.17,687.981 1068.57,705.211 1068.57,705.211L1243.31,1006.04L861.455,680.133C861.455,680.133 418.244,630.236 427.659,309.969C431.499,179.323 881.825,-24.679 1014.85,0C1217.79,37.649 1400.61,105.464 1433.56,218.366Z" style="fill:rgb(67,141,198);fill-opacity:0.5;"/>
                <clipPath id="_clip6">
                    <path d="M1433.56,218.366C1499.3,443.541 1563.6,570.478 1294.16,671.489C1250.17,687.981 1068.57,705.211 1068.57,705.211L1243.31,1006.04L861.455,680.133C861.455,680.133 418.244,630.236 427.659,309.969C431.499,179.323 881.825,-24.679 1014.85,0C1217.79,37.649 1400.61,105.464 1433.56,218.366Z"/>
                </clipPath>
                <g clip-path="url(#_clip6)">
                    <g transform="matrix(-2.42041,0,0,2.04836,11998.4,-617.313)">
                        <path d="M4420.03,459.733C4416.91,459.733 4414.31,460.747 4412.24,462.734C4410.18,464.72 4409.16,467.234 4409.16,470.235C4409.16,473.235 4410.18,475.749 4412.24,477.736C4414.31,479.723 4416.91,480.736 4420.03,480.736C4423.07,480.736 4425.58,479.804 4427.65,477.898C4428.22,477.411 4428.5,476.722 4428.5,475.871C4428.7,473.519 4425.34,472.262 4423.8,474.046C4422.74,475.222 4421.49,475.79 4420.03,475.79C4416.99,475.79 4415,473.478 4415,470.235C4415,466.991 4416.99,464.68 4420.03,464.68C4421.49,464.68 4422.74,465.247 4423.8,466.423C4425.34,468.248 4428.7,466.95 4428.5,464.639C4428.5,463.747 4428.22,463.058 4427.65,462.571C4425.58,460.666 4423.07,459.733 4420.03,459.733Z" style="fill-rule:nonzero;"/>
                        <path d="M4434.66,477.736C4436.73,479.723 4439.33,480.736 4442.45,480.736C4445.57,480.736 4448.17,479.723 4450.19,477.736C4452.26,475.749 4453.28,473.235 4453.28,470.235C4453.28,467.234 4452.26,464.72 4450.19,462.734C4448.17,460.747 4445.57,459.733 4442.45,459.733C4439.33,459.733 4436.73,460.747 4434.66,462.734C4432.6,464.72 4431.58,467.234 4431.58,470.235C4431.58,473.235 4432.6,475.749 4434.66,477.736ZM4442.45,475.79C4439.41,475.79 4437.42,473.478 4437.42,470.235C4437.42,466.991 4439.41,464.68 4442.45,464.68C4445.41,464.68 4447.44,467.031 4447.44,470.235C4447.44,473.438 4445.41,475.79 4442.45,475.79Z" style="fill-rule:nonzero;"/>
                        <path d="M4477.2,470.235C4477.2,468.734 4477.65,467.437 4478.5,466.342C4479.39,465.247 4480.56,464.68 4482.02,464.68C4484.98,464.68 4486.52,466.302 4486.52,470.235L4486.52,478.02C4486.52,479.52 4487.78,480.736 4489.28,480.736C4490.78,480.736 4492,479.52 4492,478.02L4492,470.235C4492,463.707 4488.59,459.733 4482.79,459.733C4479.55,459.733 4477.04,460.868 4475.21,463.098C4473.59,460.868 4471.2,459.733 4467.99,459.733C4465.76,459.733 4463.9,460.544 4462.36,462.166C4462.24,460.828 4461.1,459.733 4459.68,459.733C4458.18,459.733 4456.93,460.95 4456.93,462.45L4456.93,478.02C4456.93,479.52 4458.18,480.736 4459.68,480.736C4461.18,480.736 4462.4,479.52 4462.4,478.02L4462.4,470.032C4462.44,468.613 4462.93,467.356 4463.78,466.302C4464.67,465.207 4465.81,464.68 4467.22,464.68C4470.18,464.68 4471.73,466.302 4471.73,470.235L4471.73,478.02C4471.73,479.52 4472.98,480.736 4474.48,480.736C4475.98,480.736 4477.2,479.52 4477.2,478.02L4477.2,470.235Z" style="fill-rule:nonzero;"/>
                        <path d="M4516.93,470.235C4516.93,468.734 4517.38,467.437 4518.23,466.342C4519.12,465.247 4520.3,464.68 4521.76,464.68C4524.72,464.68 4526.26,466.302 4526.26,470.235L4526.26,478.02C4526.26,479.52 4527.52,480.736 4529.02,480.736C4530.52,480.736 4531.73,479.52 4531.73,478.02L4531.73,470.235C4531.73,463.707 4528.33,459.733 4522.53,459.733C4519.29,459.733 4516.77,460.868 4514.95,463.098C4513.32,460.868 4510.93,459.733 4507.73,459.733C4505.5,459.733 4503.64,460.544 4502.09,462.166C4501.97,460.828 4500.84,459.733 4499.42,459.733C4497.92,459.733 4496.66,460.95 4496.66,462.45L4496.66,478.02C4496.66,479.52 4497.92,480.736 4499.42,480.736C4500.92,480.736 4502.14,479.52 4502.14,478.02L4502.14,470.032C4502.18,468.613 4502.66,467.356 4503.51,466.302C4504.4,465.207 4505.54,464.68 4506.96,464.68C4509.92,464.68 4511.46,466.302 4511.46,470.235L4511.46,478.02C4511.46,479.52 4512.72,480.736 4514.22,480.736C4515.72,480.736 4516.93,479.52 4516.93,478.02L4516.93,470.235Z" style="fill-rule:nonzero;"/>
                        <path d="M4556.67,462.45C4556.67,460.95 4555.45,459.733 4553.95,459.733C4552.45,459.733 4551.2,460.95 4551.2,462.45L4551.2,470.235C4551.2,471.735 4550.75,473.032 4549.86,474.127C4549.01,475.222 4547.83,475.79 4546.37,475.79C4543.41,475.79 4541.87,474.168 4541.87,470.235L4541.87,462.45C4541.87,460.95 4540.65,459.733 4539.15,459.733C4537.65,459.733 4536.4,460.95 4536.4,462.45L4536.4,470.235C4536.4,476.763 4539.8,480.736 4545.64,480.736C4547.87,480.736 4549.7,479.966 4551.2,478.384C4551.4,479.723 4552.61,480.736 4553.95,480.736C4555.45,480.736 4556.67,479.52 4556.67,478.02L4556.67,462.45Z" style="fill-rule:nonzero;"/>
                        <path d="M4561.33,478.02C4561.33,479.52 4562.59,480.736 4564.09,480.736C4565.59,480.736 4566.81,479.52 4566.81,478.02L4566.81,470.032C4566.85,468.613 4567.33,467.356 4568.19,466.302C4569.08,465.207 4570.21,464.68 4571.63,464.68C4574.59,464.68 4576.13,466.302 4576.13,470.235L4576.13,478.02C4576.13,479.52 4577.39,480.736 4578.89,480.736C4580.39,480.736 4581.61,479.52 4581.61,478.02L4581.61,470.235C4581.61,463.707 4578.2,459.733 4572.4,459.733C4570.17,459.733 4568.31,460.544 4566.77,462.166C4566.64,460.828 4565.51,459.733 4564.09,459.733C4562.59,459.733 4561.33,460.95 4561.33,462.45L4561.33,478.02Z" style="fill-rule:nonzero;"/>
                        <path d="M4589.03,450.894C4587.28,450.894 4585.9,452.273 4585.9,454.016C4585.9,455.76 4587.28,457.138 4589.03,457.138C4590.77,457.138 4592.15,455.76 4592.15,454.016C4592.15,452.273 4590.69,450.894 4589.03,450.894ZM4586.27,478.02C4586.27,479.52 4587.53,480.736 4589.03,480.736C4590.53,480.736 4591.74,479.52 4591.74,478.02L4591.74,462.45C4591.74,460.95 4590.53,459.733 4589.03,459.733C4587.53,459.733 4586.27,460.95 4586.27,462.45L4586.27,478.02Z" style="fill-rule:nonzero;"/>
                        <path d="M4606.3,459.733C4603.18,459.733 4600.58,460.747 4598.51,462.734C4596.45,464.72 4595.43,467.234 4595.43,470.235C4595.43,473.235 4596.45,475.749 4598.51,477.736C4600.58,479.723 4603.18,480.736 4606.3,480.736C4609.34,480.736 4611.85,479.804 4613.92,477.898C4614.49,477.411 4614.77,476.722 4614.77,475.871C4614.98,473.519 4611.61,472.262 4610.07,474.046C4609.02,475.222 4607.76,475.79 4606.3,475.79C4603.26,475.79 4601.27,473.478 4601.27,470.235C4601.27,466.991 4603.26,464.68 4606.3,464.68C4607.76,464.68 4609.02,465.247 4610.07,466.423C4611.61,468.248 4614.98,466.95 4614.77,464.639C4614.77,463.747 4614.49,463.058 4613.92,462.571C4611.85,460.666 4609.34,459.733 4606.3,459.733Z" style="fill-rule:nonzero;"/>
                        <path d="M4619.56,463.747C4619.56,465.045 4620.81,465.977 4621.99,465.977C4622.6,465.977 4623.12,465.896 4623.49,465.734C4625.07,464.883 4626.57,464.477 4627.95,464.477C4630.18,464.477 4631.44,465.653 4631.72,468.045L4630.51,468.045C4622.07,468.045 4618.1,469.708 4618.1,473.803C4618.1,478.222 4620.9,480.736 4626.25,480.736C4628.44,480.736 4630.3,479.925 4631.8,478.344C4631.96,479.682 4633.14,480.736 4634.56,480.736C4636.06,480.736 4637.28,479.52 4637.28,478.02L4637.28,469.262C4637.28,465.937 4636.43,463.504 4634.68,462.004C4632.94,460.503 4630.71,459.733 4627.95,459.733C4624.5,459.733 4621.95,460.463 4620.37,461.923C4619.84,462.369 4619.56,462.977 4619.56,463.747ZM4626.65,476.195C4624.59,476.195 4623.57,475.384 4623.57,473.803C4623.57,473.073 4624.02,472.546 4624.95,472.221C4625.88,471.857 4627.71,471.694 4630.51,471.694L4631.68,471.694C4631.28,474.695 4629.61,476.195 4626.65,476.195Z" style="fill-rule:nonzero;"/>
                        <path d="M4642.26,460.098C4640.97,460.098 4639.87,461.152 4639.87,462.49C4639.87,463.747 4640.97,464.842 4642.26,464.842L4642.55,464.842L4642.55,472.1C4642.55,474.492 4643.4,476.519 4645.14,478.222C4646.89,479.885 4648.95,480.736 4651.39,480.736C4652.81,480.736 4653.86,479.641 4653.86,478.303C4653.86,476.965 4652.81,475.83 4651.39,475.83C4649.56,475.83 4648.02,474.168 4648.02,472.1L4648.02,464.842L4651.39,464.842C4652.68,464.842 4653.78,463.747 4653.78,462.49C4653.78,461.152 4652.68,460.098 4651.39,460.098L4648.02,460.098L4648.02,456.368C4648.02,454.868 4646.8,453.651 4645.3,453.651C4643.8,453.651 4642.55,454.868 4642.55,456.368L4642.55,460.098L4642.26,460.098Z" style="fill-rule:nonzero;"/>
                        <path d="M4660.1,450.894C4658.36,450.894 4656.98,452.273 4656.98,454.016C4656.98,455.76 4658.36,457.138 4660.1,457.138C4661.85,457.138 4663.23,455.76 4663.23,454.016C4663.23,452.273 4661.77,450.894 4660.1,450.894ZM4657.35,478.02C4657.35,479.52 4658.6,480.736 4660.1,480.736C4661.6,480.736 4662.82,479.52 4662.82,478.02L4662.82,462.45C4662.82,460.95 4661.6,459.733 4660.1,459.733C4658.6,459.733 4657.35,460.95 4657.35,462.45L4657.35,478.02Z" style="fill-rule:nonzero;"/>
                        <path d="M4669.59,477.736C4671.66,479.723 4674.25,480.736 4677.38,480.736C4680.5,480.736 4683.09,479.723 4685.12,477.736C4687.19,475.749 4688.2,473.235 4688.2,470.235C4688.2,467.234 4687.19,464.72 4685.12,462.734C4683.09,460.747 4680.5,459.733 4677.38,459.733C4674.25,459.733 4671.66,460.747 4669.59,462.734C4667.52,464.72 4666.51,467.234 4666.51,470.235C4666.51,473.235 4667.52,475.749 4669.59,477.736ZM4677.38,475.79C4674.34,475.79 4672.35,473.478 4672.35,470.235C4672.35,466.991 4674.34,464.68 4677.38,464.68C4680.34,464.68 4682.36,467.031 4682.36,470.235C4682.36,473.438 4680.34,475.79 4677.38,475.79Z" style="fill-rule:nonzero;"/>
                        <path d="M4691.85,478.02C4691.85,479.52 4693.11,480.736 4694.61,480.736C4696.11,480.736 4697.32,479.52 4697.32,478.02L4697.32,470.032C4697.37,468.613 4697.85,467.356 4698.7,466.302C4699.6,465.207 4700.73,464.68 4702.15,464.68C4705.11,464.68 4706.65,466.302 4706.65,470.235L4706.65,478.02C4706.65,479.52 4707.91,480.736 4709.41,480.736C4710.91,480.736 4712.12,479.52 4712.12,478.02L4712.12,470.235C4712.12,463.707 4708.72,459.733 4702.92,459.733C4700.69,459.733 4698.82,460.544 4697.28,462.166C4697.16,460.828 4696.03,459.733 4694.61,459.733C4693.11,459.733 4691.85,460.95 4691.85,462.45L4691.85,478.02Z" style="fill-rule:nonzero;"/>
                    </g>
                </g>
                <path d="M1433.56,218.366C1499.3,443.541 1563.6,570.478 1294.16,671.489C1250.17,687.981 1068.57,705.211 1068.57,705.211L1243.31,1006.04L861.455,680.133C861.455,680.133 418.244,630.236 427.659,309.969C431.499,179.323 881.825,-24.679 1014.85,0C1217.79,37.649 1400.61,105.464 1433.56,218.366Z" style="fill:none;stroke:white;stroke-width:15.48px;"/>
            </g>
            <g transform="matrix(1,0,0,1.03989,-6772.61,-805.924)">
                <path d="M7568.32,1243.07C7563.86,1243.07 7561.64,1236.18 7561.64,1222.39C7561.64,1220.37 7561.81,1217.37 7562.16,1213.39C7562.51,1209.41 7562.69,1206.41 7562.69,1204.39C7562.69,1200.87 7562.3,1197.64 7561.52,1194.7C7561.44,1194.36 7561.01,1193.26 7560.23,1191.41C7559.6,1189.86 7559.29,1188.79 7559.29,1188.21C7559.29,1187.06 7560.97,1186.48 7564.33,1186.48C7567.61,1186.48 7569.76,1187.17 7570.78,1188.56C7572.73,1191.44 7573.71,1196.03 7573.71,1202.32C7573.71,1204.34 7573.47,1207.34 7573,1211.32C7572.53,1215.3 7572.3,1218.3 7572.3,1220.31C7572.3,1223.89 7572.61,1227.35 7573.24,1230.7C7584.33,1228.56 7596.79,1226.86 7610.62,1225.59C7621.17,1224.55 7630.39,1222.71 7638.28,1220.06C7639.68,1219.54 7641.09,1218.99 7642.49,1218.41C7644.68,1217.55 7646.05,1217.11 7646.6,1217.11C7648.86,1217.11 7649.99,1218.84 7649.99,1222.3C7649.99,1225.07 7649.1,1226.92 7647.3,1227.84C7639.25,1232.11 7626.6,1234.82 7609.33,1235.98C7598.08,1236.73 7588,1238.17 7579.1,1240.3C7577.22,1240.88 7575.35,1241.43 7573.47,1241.95C7570.74,1242.7 7569.02,1243.07 7568.32,1243.07Z" style="fill-rule:nonzero;"/>
                <path d="M7739.53,1218.58C7739.53,1221.64 7738.43,1223.72 7736.24,1224.81C7735.54,1225.1 7732.07,1226.29 7725.82,1228.36C7700.5,1236.55 7680.43,1240.65 7665.58,1240.65C7651.99,1240.65 7642.96,1237.56 7638.51,1231.39C7636.24,1228.33 7635.11,1225.19 7635.11,1221.96C7635.11,1216.13 7639.18,1210.02 7647.3,1203.61C7654.57,1197.9 7663.51,1193.06 7674.14,1189.08C7684.76,1185.1 7693.9,1183.11 7701.56,1183.11C7707.18,1183.11 7711.56,1184.66 7714.68,1187.78C7715.46,1188.59 7716.75,1190.68 7718.55,1194.05C7720.35,1197.43 7721.36,1199.61 7721.6,1200.59L7721.6,1201.02C7721.75,1206.27 7715.11,1210.85 7701.68,1214.78C7695.11,1216.74 7685.23,1218.81 7672.03,1221.01C7662.96,1222.56 7655.19,1223.95 7648.71,1225.16C7650.82,1228.85 7656.95,1230.7 7667.1,1230.7C7677.03,1230.7 7688.82,1228.77 7702.49,1224.9C7709.76,1222.88 7717.07,1220.31 7724.41,1217.2C7726.05,1216.39 7728.59,1215.3 7732.03,1213.91C7733.2,1213.51 7734.18,1213.31 7734.96,1213.31C7738,1213.31 7739.53,1215.07 7739.53,1218.58ZM7696.17,1194.01C7690.15,1194.01 7682.1,1196.46 7672.03,1201.36C7662.57,1205.92 7655.93,1210.25 7652.1,1214.34C7662.65,1212.61 7672.07,1211 7680.35,1209.5C7697.38,1206.44 7705.89,1203.07 7705.89,1199.37C7705.89,1197.76 7704.76,1196.43 7702.49,1195.39C7700.54,1194.47 7698.43,1194.01 7696.17,1194.01Z" style="fill-rule:nonzero;"/>
                <path d="M7775.03,1194.79L7775.03,1197.38C7775.11,1201.42 7774.29,1207.16 7772.57,1214.6C7770.7,1222.22 7769.76,1227.9 7769.76,1231.65C7769.76,1232.4 7769.84,1233.48 7769.99,1234.89C7770.15,1236.31 7770.23,1237.36 7770.23,1238.05C7770.23,1240.07 7768,1241.08 7763.55,1241.08C7760.82,1241.08 7759.06,1240.48 7758.28,1239.26C7757.96,1238.63 7757.81,1237.1 7757.81,1234.68C7757.81,1230.64 7758.71,1224.55 7760.5,1216.42C7762.3,1208.29 7763.16,1202.03 7763.08,1197.64L7762.96,1195.31C7756.79,1195.65 7751.21,1196.03 7746.21,1196.43C7744.96,1196.55 7741.91,1197.01 7737.07,1197.82C7732.69,1198.51 7730.07,1198.86 7729.21,1198.86C7727.57,1198.86 7726.17,1197.99 7724.99,1196.26C7724.14,1194.82 7723.71,1193.38 7723.71,1191.93C7723.71,1189.86 7724.6,1188.59 7726.4,1188.13C7734.29,1186.11 7748.86,1185.1 7770.11,1185.1C7781.28,1185.1 7791.68,1183.86 7801.28,1181.38C7802.69,1180.97 7804.14,1180.54 7805.62,1180.08C7807.73,1179.44 7809.02,1179.13 7809.49,1179.13C7811.52,1179.13 7812.53,1180.57 7812.53,1183.45C7812.53,1186.8 7811.36,1188.96 7809.02,1189.94C7803,1192.31 7791.68,1193.92 7775.03,1194.79Z" style="fill-rule:nonzero;"/>
                <path d="M7833.51,1200.5C7833.51,1202 7832.55,1203.2 7830.64,1204.09C7828.73,1204.98 7826.75,1205.43 7824.72,1205.43C7821.99,1205.43 7820.43,1204.6 7820.03,1202.92C7819.49,1200.33 7819.21,1195.57 7819.21,1188.64C7819.21,1181.38 7819.37,1176.16 7819.68,1172.98C7820.07,1170.1 7822.38,1168.66 7826.6,1168.66C7830.43,1168.66 7832.38,1170.1 7832.46,1172.98C7832.46,1175.41 7832.42,1179.04 7832.34,1183.89L7832.34,1187.09C7832.42,1188.59 7832.63,1190.82 7832.98,1193.79C7833.34,1196.76 7833.51,1199 7833.51,1200.5Z" style="fill-rule:nonzero;"/>
                <path d="M7938.86,1222.39C7938.86,1226.72 7932.85,1230.87 7920.82,1234.85C7912.69,1237.62 7904.21,1239.73 7895.39,1241.17C7887.49,1242.38 7880.27,1242.99 7873.71,1242.99C7859.25,1242.99 7852.03,1240.04 7852.03,1234.16C7852.03,1230.99 7854.84,1226.54 7860.46,1220.83C7862.34,1218.99 7864.6,1218.06 7867.26,1218.06C7868.9,1218.06 7870.54,1218.24 7872.18,1218.58C7874.37,1219.05 7875.46,1219.74 7875.46,1220.66C7875.46,1221.35 7873.78,1222.8 7870.43,1224.99C7867.07,1227.18 7865.39,1228.97 7865.39,1230.35C7865.39,1232.95 7869.33,1234.25 7877.22,1234.25C7884.25,1234.25 7892.42,1233.35 7901.71,1231.56C7906.09,1230.7 7910.15,1229.66 7913.9,1228.45C7919.99,1226.54 7923.04,1224.79 7923.04,1223.17C7923.04,1221.73 7920.76,1220.4 7916.19,1219.19C7911.62,1217.98 7903.78,1217 7892.69,1216.25C7878.32,1215.21 7869.29,1214.46 7865.62,1214C7856.09,1212.79 7849.49,1210.91 7845.82,1208.37C7843.78,1206.99 7842.77,1205.52 7842.77,1203.96C7842.77,1200.56 7847.73,1197.07 7857.65,1193.49C7864.68,1191.01 7871.81,1189.12 7879.04,1187.82C7886.26,1186.53 7892.81,1185.88 7898.67,1185.88C7902.34,1185.88 7905.58,1186.13 7908.39,1186.65C7910.27,1184 7911.52,1182.36 7912.14,1181.72C7914.02,1179.93 7916.09,1179.04 7918.35,1179.04C7920.39,1179.04 7922.22,1179.59 7923.86,1180.68C7925.5,1181.78 7926.32,1183.08 7926.32,1184.58C7926.32,1185.56 7925.62,1186.6 7924.21,1187.69C7921.87,1189.37 7920.7,1190.23 7920.7,1190.29C7919.92,1191.04 7919.21,1192.57 7918.59,1194.88C7917.96,1197.47 7917.38,1199.2 7916.83,1200.07C7915.89,1201.74 7914.37,1202.58 7912.26,1202.58C7909.99,1202.58 7907.89,1202.14 7905.93,1201.28C7903.59,1200.3 7902.42,1199.03 7902.42,1197.47C7902.42,1196.84 7902.61,1196.14 7903,1195.39C7902.07,1195.11 7900.58,1194.96 7898.55,1194.96C7893.71,1194.96 7887.18,1195.65 7878.98,1197.04C7868.67,1198.77 7863.51,1200.76 7863.51,1203.01C7863.51,1204.68 7867.85,1205.86 7876.52,1206.56C7885.5,1207.13 7894.49,1207.71 7903.47,1208.29C7914.64,1209.15 7922.3,1210.51 7926.44,1212.35C7932.53,1215.01 7936.36,1217.52 7937.93,1219.88C7938.55,1220.75 7938.86,1221.58 7938.86,1222.39Z" style="fill-rule:nonzero;"/>
                <path d="M7637.57,1339.07C7628.98,1339.07 7622.07,1337.57 7616.83,1334.57C7611.13,1331.28 7608.28,1326.52 7608.28,1320.29C7608.28,1311.75 7615.19,1303.39 7629.02,1295.2C7640.89,1288.16 7653.24,1283.54 7666.05,1281.35C7668.32,1280.95 7670.54,1280.75 7672.73,1280.75C7675.93,1280.75 7678.78,1281.24 7681.28,1282.22C7682.85,1280.14 7684.06,1278.76 7684.92,1278.06C7686.56,1276.68 7688.43,1275.99 7690.54,1275.99C7692.26,1275.99 7694.21,1276.36 7696.4,1277.11C7699.06,1277.98 7700.39,1278.96 7700.39,1280.05C7700.39,1280.11 7698.9,1281.86 7695.93,1285.29C7692.96,1288.72 7691.48,1291.53 7691.48,1293.73C7691.48,1294.13 7691.58,1294.74 7691.77,1295.54C7691.97,1296.35 7692.07,1296.96 7692.07,1297.36C7692.07,1299.84 7689.1,1301.08 7683.16,1301.08C7678,1301.08 7675.7,1298.95 7676.24,1294.68C7674.68,1292.66 7672.26,1291.65 7668.98,1291.65C7664.14,1291.65 7657.81,1293.26 7649.99,1296.49C7642.18,1299.73 7635.5,1303.5 7629.96,1307.83C7623.78,1312.67 7620.7,1317 7620.7,1320.81C7620.7,1324.04 7623.04,1326.43 7627.73,1327.99C7631.24,1329.14 7635.5,1329.72 7640.5,1329.72C7658,1329.72 7677.81,1324.59 7699.92,1314.32C7698.9,1313.45 7696.6,1313.02 7693,1313.02C7684.02,1313.02 7669.57,1315.39 7649.64,1320.12C7648.71,1320.29 7647.96,1320.38 7647.42,1320.38C7645.85,1320.38 7644.64,1319.68 7643.78,1318.3C7643.08,1317.15 7642.73,1315.9 7642.73,1314.58C7642.73,1312.96 7643.71,1311.84 7645.66,1311.2C7647.61,1310.57 7650.11,1309.99 7653.16,1309.47C7655.74,1309.07 7658.32,1308.67 7660.89,1308.26C7678.63,1305.03 7692.34,1303.42 7702.03,1303.42C7706.17,1303.42 7709.14,1303.7 7710.93,1304.28C7713.9,1305.15 7715.39,1306.82 7715.39,1309.3C7715.39,1311.61 7714.68,1314.12 7713.28,1316.83C7711.64,1319.94 7709.68,1321.96 7707.42,1322.88C7697.1,1327.1 7685.78,1330.73 7673.43,1333.79C7659.21,1337.31 7647.26,1339.07 7637.57,1339.07Z" style="fill-rule:nonzero;"/>
                <path d="M7811.71,1316.05C7811.71,1319.11 7810.62,1321.18 7808.43,1322.28C7807.73,1322.57 7804.25,1323.75 7798,1325.83C7772.69,1334.02 7752.61,1338.11 7737.77,1338.11C7724.18,1338.11 7715.15,1335.03 7710.7,1328.86C7708.43,1325.8 7707.3,1322.65 7707.3,1319.42C7707.3,1313.6 7711.36,1307.48 7719.49,1301.08C7726.75,1295.37 7735.7,1290.52 7746.32,1286.54C7756.95,1282.56 7766.09,1280.57 7773.74,1280.57C7779.37,1280.57 7783.74,1282.13 7786.87,1285.25C7787.65,1286.05 7788.94,1288.14 7790.74,1291.52C7792.53,1294.89 7793.55,1297.07 7793.78,1298.05L7793.78,1298.48C7793.94,1303.73 7787.3,1308.32 7773.86,1312.24C7767.3,1314.2 7757.42,1316.28 7744.21,1318.47C7735.15,1320.03 7727.38,1321.41 7720.89,1322.63C7723,1326.32 7729.14,1328.16 7739.29,1328.16C7749.21,1328.16 7761.01,1326.23 7774.68,1322.37C7781.95,1320.35 7789.25,1317.78 7796.6,1314.66C7798.24,1313.86 7800.78,1312.76 7804.21,1311.38C7805.39,1310.97 7806.36,1310.77 7807.14,1310.77C7810.19,1310.77 7811.71,1312.53 7811.71,1316.05ZM7768.35,1291.48C7762.34,1291.48 7754.29,1293.93 7744.21,1298.83C7734.76,1303.39 7728.12,1307.71 7724.29,1311.81C7734.84,1310.08 7744.25,1308.46 7752.53,1306.96C7769.57,1303.91 7778.08,1300.53 7778.08,1296.84C7778.08,1295.23 7776.95,1293.9 7774.68,1292.86C7772.73,1291.94 7770.62,1291.48 7768.35,1291.48Z" style="fill-rule:nonzero;"/>
                <path d="M7847.22,1292.25L7847.22,1294.85C7847.3,1298.89 7846.48,1304.63 7844.76,1312.07C7842.89,1319.68 7841.95,1325.37 7841.95,1329.12C7841.95,1329.87 7842.03,1330.95 7842.18,1332.36C7842.34,1333.77 7842.42,1334.83 7842.42,1335.52C7842.42,1337.54 7840.19,1338.55 7835.74,1338.55C7833,1338.55 7831.24,1337.94 7830.46,1336.73C7830.15,1336.1 7829.99,1334.57 7829.99,1332.14C7829.99,1328.11 7830.89,1322.02 7832.69,1313.89C7834.49,1305.75 7835.35,1299.49 7835.27,1295.11L7835.15,1292.77C7828.98,1293.12 7823.39,1293.49 7818.39,1293.9C7817.14,1294.01 7814.1,1294.48 7809.25,1295.28C7804.88,1295.98 7802.26,1296.32 7801.4,1296.32C7799.76,1296.32 7798.35,1295.46 7797.18,1293.73C7796.32,1292.28 7795.89,1290.84 7795.89,1289.4C7795.89,1287.32 7796.79,1286.05 7798.59,1285.59C7806.48,1283.57 7821.05,1282.56 7842.3,1282.56C7853.47,1282.56 7863.86,1281.32 7873.47,1278.84C7874.88,1278.44 7876.32,1278.01 7877.81,1277.54C7879.92,1276.91 7881.21,1276.59 7881.68,1276.59C7883.71,1276.59 7884.72,1278.04 7884.72,1280.92C7884.72,1284.27 7883.55,1286.43 7881.21,1287.41C7875.19,1289.77 7863.86,1291.39 7847.22,1292.25Z" style="fill-rule:nonzero;"/>
                <path d="M7707.65,1392.32C7707.65,1396.12 7706.73,1401.72 7704.9,1409.1C7703.06,1416.49 7702.14,1422.14 7702.14,1426.06C7702.14,1426.81 7702.22,1427.97 7702.38,1429.52C7702.53,1431.08 7702.61,1432.24 7702.61,1432.99C7702.61,1434.02 7701.79,1434.83 7700.15,1435.41C7698.9,1435.81 7697.49,1436.01 7695.93,1436.01C7693.12,1436.01 7691.36,1435.41 7690.66,1434.2C7690.27,1433.62 7690.07,1432.12 7690.07,1429.7C7690.07,1425.49 7691.01,1419.4 7692.89,1411.44C7694.76,1403.48 7695.7,1397.51 7695.7,1393.53C7695.7,1391.05 7695.5,1388.74 7695.11,1386.61C7695.03,1386.32 7694.8,1385.54 7694.41,1384.27C7694.1,1383.29 7693.94,1382.51 7693.94,1381.93C7693.94,1380.49 7695.19,1379.77 7697.69,1379.77C7699.33,1379.77 7700.93,1380.03 7702.49,1380.55C7704.45,1381.12 7705.62,1381.9 7706.01,1382.88C7707.1,1385.13 7707.65,1388.28 7707.65,1392.32Z" style="fill-rule:nonzero;"/>
                <path d="M7789.92,1434.46C7782.34,1434.46 7772.57,1429.93 7760.62,1420.87C7755.31,1416.83 7747.42,1409.94 7736.95,1400.19C7736.79,1401 7736.09,1404.55 7734.84,1410.83C7733.98,1415.22 7733.55,1418.79 7733.55,1421.56C7733.55,1422.49 7733.63,1423.81 7733.78,1425.54C7733.94,1427.27 7734.02,1428.57 7734.02,1429.44C7734.02,1431.4 7731.79,1432.38 7727.34,1432.38C7724.6,1432.38 7722.89,1431.8 7722.18,1430.65C7721.79,1430.01 7721.6,1428.54 7721.6,1426.24C7721.6,1422.77 7722.32,1417.6 7723.76,1410.7C7725.21,1403.81 7725.93,1398.63 7725.93,1395.17C7725.93,1392.75 7725.78,1390.79 7725.46,1389.29C7725.39,1388.71 7724.94,1387.74 7724.12,1386.39C7723.3,1385.03 7722.89,1384.1 7722.89,1383.58C7722.89,1382.65 7724.18,1381.88 7726.75,1381.24C7728.86,1380.72 7730.74,1380.46 7732.38,1380.46C7733.94,1380.46 7735.11,1381.07 7735.89,1382.28C7739.8,1388.22 7747.07,1395.6 7757.69,1404.43C7768,1412.97 7777.03,1419.2 7784.76,1423.12C7787.57,1424.56 7789.6,1425.28 7790.85,1425.28C7792.57,1425.28 7794.02,1424.04 7795.19,1421.56C7796.05,1419.66 7796.48,1417.9 7796.48,1416.29C7796.48,1413.52 7795.78,1410.43 7794.37,1407.03C7792.26,1401.89 7789.14,1397.02 7784.99,1392.4C7780.93,1388.02 7776.83,1383.66 7772.69,1379.34C7771.91,1378.47 7771.52,1377.63 7771.52,1376.83C7771.52,1375.73 7772.14,1374.48 7773.39,1373.06C7774.64,1371.65 7775.97,1370.94 7777.38,1370.94C7778.71,1370.94 7780.19,1371.66 7781.83,1373.11C7788.47,1379.05 7794.33,1386.2 7799.41,1394.57C7805.11,1403.8 7807.96,1411.76 7807.96,1418.45C7807.96,1423.12 7806.6,1426.87 7803.86,1429.7C7800.66,1432.87 7796.01,1434.46 7789.92,1434.46Z" style="fill-rule:nonzero;"/>
                <path d="M7576.87,1487.19L7576.87,1489.78C7576.95,1493.82 7576.13,1499.56 7574.41,1507C7572.53,1514.62 7571.6,1520.3 7571.6,1524.05C7571.6,1524.8 7571.68,1525.88 7571.83,1527.29C7571.99,1528.71 7572.07,1529.76 7572.07,1530.45C7572.07,1532.47 7569.84,1533.48 7565.39,1533.48C7562.65,1533.48 7560.89,1532.87 7560.11,1531.66C7559.8,1531.03 7559.64,1529.5 7559.64,1527.08C7559.64,1523.04 7560.54,1516.95 7562.34,1508.82C7564.14,1500.68 7564.99,1494.43 7564.92,1490.04L7564.8,1487.7C7558.63,1488.05 7553.04,1488.43 7548.04,1488.83C7546.79,1488.95 7543.74,1489.41 7538.9,1490.21C7534.53,1490.91 7531.91,1491.25 7531.05,1491.25C7529.41,1491.25 7528,1490.39 7526.83,1488.66C7525.97,1487.21 7525.54,1485.77 7525.54,1484.33C7525.54,1482.25 7526.44,1480.99 7528.24,1480.52C7536.13,1478.51 7550.7,1477.5 7571.95,1477.5C7583.12,1477.5 7593.51,1476.26 7603.12,1473.77C7604.53,1473.37 7605.97,1472.94 7607.46,1472.48C7609.57,1471.84 7610.85,1471.53 7611.32,1471.53C7613.35,1471.53 7614.37,1472.97 7614.37,1475.85C7614.37,1479.2 7613.2,1481.36 7610.85,1482.34C7604.84,1484.71 7593.51,1486.32 7576.87,1487.19Z" style="fill-rule:nonzero;"/>
                <path d="M7623.63,1531.06C7608.55,1531.06 7601.01,1527.74 7601.01,1521.11C7601.01,1512.45 7613.59,1500.19 7638.74,1484.33C7636.4,1483.12 7635.23,1481.48 7635.23,1479.4C7635.23,1476.86 7637.61,1475.59 7642.38,1475.59C7644.96,1475.59 7649.21,1476.37 7655.15,1477.93C7666.01,1480.87 7674.33,1483.73 7680.11,1486.49C7689.88,1491.22 7694.76,1496.47 7694.76,1502.24C7694.76,1508.64 7688.47,1514.56 7675.89,1519.98C7658.63,1527.36 7641.21,1531.06 7623.63,1531.06ZM7682.69,1502.59C7682.69,1498.78 7678.51,1495.35 7670.15,1492.29C7664.53,1490.27 7658.04,1488.66 7650.7,1487.45C7648.98,1488.77 7646.36,1490.73 7642.85,1493.33C7634.33,1499.1 7628.86,1502.91 7626.44,1504.75C7618.78,1510.64 7614.96,1514.9 7614.96,1517.56C7614.96,1520.56 7619.02,1522.06 7627.14,1522.06C7634.96,1522.06 7644.1,1520.7 7654.57,1517.99C7665.66,1515.11 7673.71,1511.79 7678.71,1508.04C7681.36,1506.02 7682.69,1504.2 7682.69,1502.59Z" style="fill-rule:nonzero;"/>
                <path d="M7777.03,1513.32C7777.03,1516.2 7776.48,1518.39 7775.39,1519.89C7773.51,1522.61 7769.64,1524.6 7763.78,1525.87C7756.13,1527.48 7747.07,1528.89 7736.6,1530.11C7725.66,1531.37 7716.48,1532.01 7709.06,1532.01C7699.84,1532.01 7695.23,1529.01 7695.23,1523.01C7695.23,1521.51 7695.5,1519.66 7696.05,1517.47C7696.28,1516.61 7699.06,1506.89 7704.37,1488.31C7704.76,1486.46 7705.58,1483.78 7706.83,1480.26C7707.77,1478.36 7709.49,1477.41 7711.99,1477.41C7713.71,1477.41 7715.19,1477.83 7716.44,1478.66C7717.69,1479.5 7718.32,1480.52 7718.32,1481.74C7718.32,1483.41 7717.77,1486.23 7716.68,1490.21C7715.82,1493.16 7714.96,1496.1 7714.1,1499.04C7712.61,1504.64 7711.09,1509.97 7709.53,1515.05C7708.9,1516.84 7708.59,1518.22 7708.59,1519.2C7708.59,1521.45 7710.35,1522.58 7713.86,1522.58C7714.72,1522.58 7715.97,1522.52 7717.61,1522.4C7725.58,1521.77 7733.59,1521.16 7741.64,1520.59C7753.28,1519.38 7760.35,1517.67 7762.85,1515.48C7763.86,1514.62 7764.37,1512.83 7764.37,1510.12C7764.37,1505.21 7762.65,1497.08 7759.21,1485.71C7757.57,1480.18 7756.75,1476.92 7756.75,1475.94C7756.75,1473.75 7759.1,1472.65 7763.78,1472.65C7766.91,1472.65 7769.06,1474.32 7770.23,1477.67C7770.7,1480.26 7771.21,1482.89 7771.75,1485.54C7775.27,1498.06 7777.03,1507.32 7777.03,1513.32Z" style="fill-rule:nonzero;"/>
                <path d="M7885.66,1512.8C7885.66,1515.57 7884.49,1517.44 7882.14,1518.42C7880.27,1519.12 7876.21,1520.41 7869.96,1522.32C7844.25,1530.05 7822.96,1533.91 7806.09,1533.91C7791.95,1533.91 7782.49,1530.94 7777.73,1525C7775.31,1521.94 7774.1,1518.83 7774.1,1515.65C7774.1,1509.77 7778.51,1503.68 7787.34,1497.4C7795.07,1491.92 7804.68,1487.21 7816.17,1483.29C7827.34,1479.54 7836.71,1477.67 7844.29,1477.67C7847.18,1477.67 7849.8,1477.96 7852.14,1478.53C7853.24,1474.78 7853.9,1472.68 7854.14,1472.22C7855.39,1469.91 7857.49,1468.76 7860.46,1468.76C7862.57,1468.76 7864.49,1469.29 7866.21,1470.36C7867.93,1471.42 7868.78,1472.71 7868.78,1474.21C7868.78,1474.84 7867.85,1476.73 7865.97,1479.88C7864.1,1483.02 7863.16,1485.86 7863.16,1488.4C7863.16,1489.09 7863.28,1490.14 7863.51,1491.56C7863.74,1492.97 7863.86,1494.02 7863.86,1494.71C7863.86,1498.46 7861.13,1500.34 7855.66,1500.34C7853.08,1500.34 7851.4,1499.3 7850.62,1497.22C7849.92,1495.32 7849.21,1493.39 7848.51,1491.43C7847.1,1489.35 7844.37,1488.31 7840.31,1488.31C7830.78,1488.31 7819.21,1491.94 7805.62,1499.21C7793.43,1505.67 7787.34,1511.24 7787.34,1515.91C7787.34,1518.97 7789.84,1521.22 7794.84,1522.66C7798.35,1523.64 7802.57,1524.13 7807.49,1524.13C7816.01,1524.13 7825.93,1522.98 7837.26,1520.67C7843.35,1519.4 7850.23,1517.47 7857.89,1514.88C7864.53,1512.51 7871.17,1510.14 7877.81,1507.78C7879.29,1507.2 7880.5,1506.91 7881.44,1506.91C7884.25,1506.91 7885.66,1508.88 7885.66,1512.8Z" style="fill-rule:nonzero;"/>
                <path d="M7948,1506.48C7946.21,1515.13 7945.31,1523.56 7945.31,1531.75C7945.31,1533.88 7943.2,1534.95 7938.98,1534.95C7935.39,1534.95 7933.59,1534.06 7933.59,1532.27C7933.59,1526.21 7934.68,1518.08 7936.87,1507.87C7932.57,1508.27 7925.27,1508.7 7914.96,1509.16C7905.66,1509.57 7898.39,1510.06 7893.16,1510.64L7893.16,1513.23C7893.08,1515.6 7893.32,1518.6 7893.86,1522.23C7894.33,1525.52 7894.57,1526.96 7894.57,1526.56C7894.57,1528.75 7892.3,1529.85 7887.77,1529.85C7885.35,1529.85 7883.9,1529.27 7883.43,1528.11C7882.73,1526.44 7882.38,1523.59 7882.38,1519.55C7882.38,1518.28 7882.46,1515.88 7882.61,1512.37C7881.28,1512.71 7880.46,1512.88 7880.15,1512.88C7878.59,1512.88 7877.34,1512.08 7876.4,1510.46C7875.62,1509.14 7875.23,1507.81 7875.23,1506.48C7875.23,1504.58 7875.97,1503.34 7877.46,1502.76C7878,1502.47 7879.88,1502.13 7883.08,1501.72L7883.08,1500.17C7883.08,1497.74 7882.53,1494.27 7881.44,1489.74C7880.35,1485.21 7879.8,1482.17 7879.8,1480.61C7879.8,1479.4 7881.32,1478.79 7884.37,1478.79C7888.12,1478.79 7890.43,1479.51 7891.28,1480.96C7893.39,1484.3 7894.25,1490.82 7893.86,1500.51C7903.86,1500.11 7918.82,1499.1 7938.74,1497.48C7939.68,1491.14 7940.15,1485.77 7940.15,1481.39C7940.15,1480.24 7940.05,1478.55 7939.86,1476.33C7939.66,1474.11 7939.57,1472.45 7939.57,1471.35C7939.57,1469.79 7940.74,1469.02 7943.08,1469.02C7947.07,1469.02 7949.68,1470.2 7950.93,1472.56C7951.56,1473.83 7951.87,1476.26 7951.87,1479.83C7951.87,1483.35 7951.28,1488.6 7950.11,1495.58C7950.66,1495.46 7952.61,1494.94 7955.97,1494.02C7959.02,1493.21 7960.7,1492.81 7961.01,1492.81C7963.04,1492.81 7964.06,1494.25 7964.06,1497.14C7964.06,1500.48 7962.93,1502.62 7960.66,1503.54C7957.61,1504.69 7953.39,1505.67 7948,1506.48Z" style="fill-rule:nonzero;"/>
            </g>
        </g>
    </g>
</svg>
