<?xml version="1.0" encoding="UTF-8" standalone="no"?>
<!DOCTYPE svg PUBLIC "-//W3C//DTD SVG 1.1//EN" "http://www.w3.org/Graphics/SVG/1.1/DTD/svg11.dtd">
<svg width="100%" height="100%" viewBox="0 0 1600 951" version="1.1" xmlns="http://www.w3.org/2000/svg" xmlns:xlink="http://www.w3.org/1999/xlink" xml:space="preserve" xmlns:serif="http://www.serif.com/" style="fill-rule:evenodd;clip-rule:evenodd;stroke-linecap:round;stroke-linejoin:round;stroke-miterlimit:1.5;">
    <g transform="matrix(1,0,0,1,-2393.38,-915.847)">
        <g id="half_crowd" transform="matrix(-0.833207,0,0,0.879906,3993.13,915.847)">
            <rect x="0" y="0" width="1920" height="1080" style="fill:none;"/>
            <g id="half_crowd1" serif:id="half_crowd" transform="matrix(-1.12017,0,0,1.06072,1674.34,-71.0889)">
                <path d="M621.113,535.223C621.373,535.14 621.86,535.501 622.627,536.4C624.278,538.335 625.317,540.238 625.743,542.082C636.401,556.48 637.946,578.077 638.836,593.304C638.943,595.125 646.409,599.064 648.588,618.14C651.033,639.556 642.359,711.975 635.889,729.302C632.38,738.7 625.474,745.597 632.787,752.159C640.267,758.869 631.429,780.483 631.644,780.957C641.283,802.228 641.192,867.117 633.04,894.637C632.993,894.797 628.992,921.609 629.668,927.229C630.048,930.387 635.43,971.797 634.347,985.445C633.732,993.208 626.98,997.004 626.5,997C625.687,996.993 624.45,997.65 623.55,998.55C622.247,999.854 622.007,1003 622.05,1018.3C622.077,1028.3 622.522,1038.75 623.038,1041.5C626.174,1058.2 625.123,1063.1 618,1064.99C613.2,1066.27 607.163,1064.97 604.533,1062.1C602.846,1060.26 602.715,1057.65 602.9,1029.45L603.1,998.8L598.7,994.4C596.3,992 593.845,990 593.3,990C591.858,990 588.751,994.1 572.84,1017C559.084,1036.8 557,1040.08 557,1041.9C557,1042.45 559.172,1045.5 561.846,1048.7C567.527,1055.5 569.365,1058.63 568.49,1060C567.26,1061.93 565.2,1060.9 559.4,1055.45C556.2,1052.44 553.308,1050 552.95,1050C552.592,1050 551.486,1050.9 550.491,1052C546.632,1056.27 535.867,1055 530.947,1049.7C526.998,1045.45 528.18,1041.1 539.922,1016.7C553.733,988 561,968.798 561,961C561,956.419 556.474,932.4 551.672,911.5C545.266,883.618 543.359,869 541.966,837.1C540.852,811.6 540.543,810.295 535.1,808.063C531.6,806.628 531.302,805.88 533.5,804.039C535.973,801.968 541.63,803.6 544.106,807.1C546.144,809.98 546.358,811.9 547.122,834.1C548.261,867.171 549.551,876.5 559.001,920C567.735,960.2 567.888,963.936 561.527,981.5C559.044,988.355 553.07,1002.4 548.3,1012.6C541.517,1027.1 539.835,1031.58 540.668,1032.9C541.924,1034.9 547.86,1039 549.5,1039C550.216,1039 553.604,1034.85 557.05,1029.75C560.495,1024.65 565.767,1016.91 568.8,1012.5C571.825,1008.1 576.122,1001.8 578.35,998.5C580.577,995.2 583.862,990.925 585.65,989C587.414,987.1 589.38,984.22 589.951,982.7C591.303,979.1 591.4,917.524 590.057,915C589.528,914.006 587.4,912.518 585.3,911.675C578.2,908.825 573.376,904.454 570.1,897.9C567,891.7 567,891.7 567.026,875.1C567.084,838.6 569.172,822.833 576.971,800C579.123,793.7 581.216,786.488 581.6,784.05L582.3,779.6L577.9,783.877C569.712,791.833 564.2,793.654 544.4,794.942C525.602,796.165 526.642,794.8 525.834,819.3C525.485,829.856 525.157,865.2 525.105,897.8C524.992,968.2 524.194,963.672 536.8,964.115C539.7,964.216 542.869,964.889 543.8,965.6C545.405,966.828 545.402,967 543.75,968.7C542.444,970.043 540.5,970.5 536.1,970.5C529.7,970.5 526.48,968.858 522.578,963.6C520.518,960.825 520.5,960.1 520.6,880.9C520.693,806.4 520.821,800.73 522.494,797C525.021,791.366 528.3,790.162 543.1,789.43C564,788.397 572.034,784.755 579.122,773.1C583.866,765.3 584.023,763.408 580,762.526C574.372,761.292 573.606,758 574.296,738C574.627,728.4 575.644,716.596 576.55,711.85C578.076,703.85 578.08,702.945 576.606,699.8C574.965,696.3 571,693.31 567.5,692.934C562.3,692.376 561.2,693 558.228,698.2C556.571,701.1 554.249,704.358 553.1,705.393C550.396,707.829 542.1,708.722 538,707.018C533.558,705.172 529.274,699.7 527.493,693.6C525.742,687.6 523.839,686.22 520.4,688.453C514.873,692.043 513.123,700.2 512.084,727.2C511.615,739.4 510.817,748.485 510.1,749.8C509.24,751.377 507.95,752 505.55,752L502.2,752L506.661,760.8C511.438,770.223 514.001,779.1 516.592,795.2C518.829,809.1 519.716,867.252 517.749,871C516.137,874.072 510.5,877 506.2,877L503,877L503,883.5C503,887.086 501.897,900 500.542,912.3C498.012,935.257 497.152,946.5 494.409,992.5C493.491,1007.9 492.198,1021.63 491.4,1024.45C490.609,1027.24 489.986,1033.8 489.968,1039.5C489.917,1055.4 486.175,1061 475.6,1061C465.394,1061 462.446,1056.9 463.233,1043.8C463.719,1035.7 462.71,1033.14 459.5,1034.34C458.4,1034.75 458,1036.5 458,1040.9C458,1049.6 456.937,1051.69 451.8,1053.07C439.8,1056.31 414.544,1058.36 409.8,1056.47C407.241,1055.45 406.397,1051.2 408.139,1048.1C409.052,1046.47 413.5,1043.43 420,1039.99C433.4,1032.88 434.106,1031.77 431.218,1022.4C429.011,1015.24 427.793,1008.1 423.471,977C422.053,966.8 419.576,951.771 417.95,943.5C415.314,930.1 414.69,928.22 412.1,925.873C406.419,920.727 406.507,921.4 405.985,879.1L405.5,839.7L400.8,835.602C394.025,829.694 393,826.5 393,811.3C393,790 396.427,775.633 405.118,760.5C407.817,755.8 410,750.972 410,749.7C410,745.666 403.981,725.7 401.469,721.4C396.789,713.391 390.3,709.193 377,705.571C373.4,704.59 368.135,702.685 365.2,701.3L359.9,698.8L356.2,701.25C354.134,702.618 350.6,704.886 348.2,706.384C342.641,709.853 338.376,715.9 337.045,722.2C335.269,730.607 337.166,736.6 344.864,746.9C347.106,749.9 349.433,753.9 350.1,755.9C350.766,757.9 352.188,760.364 353.3,761.443C356.334,764.391 358.758,770.9 359.464,778C360.271,786.1 361.613,789.663 364.1,790.308C365.144,790.579 368.95,790.125 372.55,789.3C377.95,788.064 379.626,788.018 382.1,789.04C387.831,791.407 388.365,793.4 389.171,815.4C390.095,840.643 391.205,848.9 400.084,896.6C403.006,912.3 403.052,912.986 401.55,918.8C400.697,922.1 400,927.343 400,930.45C400,933.55 399.538,936.958 398.976,938C396.176,943.2 384.651,944.752 380.4,940.5C378.421,938.522 378,937.1 378,932.4C378,918.458 375.667,903 370.469,882.5C364.993,860.9 360.208,844.947 357.212,838.3C355.508,834.52 355.497,834.6 354.992,854C354.431,875.6 354.024,877.19 347.266,884.2L343.7,887.9L344.347,897.8C345.465,914.9 361.212,1003.78 364.065,1009.1C364.753,1010.38 366.562,1013.15 368.15,1015.35C369.737,1017.55 371,1020.19 371,1021.3C371,1024.67 358.802,1046.2 354.34,1050.7C350.075,1055 344.3,1057.47 340,1056.84C335.481,1056.17 335.004,1053.3 335.042,1027C335.077,1002.57 332.5,968.4 328.367,938.5C325.588,918.4 318.973,891 316.9,891C316.458,891 315.77,893.6 315.364,896.8C314.648,902.446 315.461,916.9 318.528,953C319.576,965.334 319.983,979 319.75,994C319.432,1014.4 319.194,1017.01 317.2,1022C315.24,1026.9 315.125,1028 316.15,1032.1C316.775,1034.6 317.002,1037.48 316.648,1038.4C314.956,1042.82 295.9,1046.11 283.3,1044.16C274.9,1042.86 271.595,1041.27 270.744,1038.1C269.764,1034.46 273.5,1031.46 284.5,1027.05C290.7,1024.56 295.515,1021.99 296.1,1020.85C296.707,1019.67 296.844,1016.25 296.45,1012.15C296.093,1008.45 295.506,995.95 295.15,984.45L294.5,963.5L286.5,963.85C282.1,964.043 275.35,964.583 271.5,965.05C263,966.082 261.415,965.112 262.43,959.5C262.913,956.834 264.65,954.334 268.65,950.55L274.2,945.3L272.65,937.9C271.794,933.815 270.424,923.2 269.592,914.2C267.816,895 266.279,890.5 261.5,890.5C257.973,890.5 258.031,889.9 259.934,906.6C260.63,912.7 261.047,922.025 260.861,927.3C260.47,938.4 259.117,941.067 252,944.763C247.848,946.919 246.55,947.073 235.25,946.75C228.25,946.55 222.528,945.929 221.9,945.3C219.782,943.183 223.7,938 229.3,935.512C232.2,934.223 235.605,932.006 237,930.5C239.417,927.89 239.496,927.35 239.4,914.15C239.315,902.65 238.89,898.965 236.7,890.75C235.26,885.35 232.806,878.212 231.2,874.75C229.622,871.35 227.716,866.996 227.019,865.2C225.277,860.709 219.9,856.235 215.3,855.449C213.2,855.091 210.471,854.155 209.2,853.357C204.9,850.659 201.011,842 204.1,842C204.707,842 206.9,843.343 209,845C211.079,846.642 215.2,849.1 218.1,850.429C224.5,853.361 240.674,856.726 242,855.4C243.038,854.362 240.82,821.501 238.396,802C235.3,777.1 227.585,736.286 225.6,734.3C224.395,733.096 217.077,736.1 215.127,738.6C214.033,740.004 212.869,742.65 212.6,744.35C212.325,746.081 211.604,764.15 211,784.45L209.9,821.4L205,832.45C202.052,839.098 198.88,848.6 197.039,856.3C193.428,871.4 190.759,877.18 185,882.374C179.885,886.986 170.4,891.594 162.7,893.207C158.14,894.162 155.65,894.12 150.25,893C146.537,892.23 139.9,891.578 135.5,891.55C128.8,891.509 127.451,891.224 127.2,889.8C126.997,888.653 128.2,887.434 130.9,886.05C133.1,884.923 135.35,884 135.9,884C139.475,884 149,879.149 153.3,875.137C161.713,867.287 165.305,857.4 167.011,837.4C169.17,812.082 165.543,791.9 150.946,748L142.8,723.5L142.95,694.6C143.032,678.7 143.548,663.586 144.097,661C145.414,654.8 148.33,651.618 151.9,652.486C154.9,653.216 168,660.876 168,661.9C168,663.073 165.7,665 164.3,665C163.536,665 160.9,663.638 158.5,662.002C153.1,658.323 151.206,658.279 149.789,661.8C148.118,665.952 147.553,696.1 148.921,708.1C150.524,722.163 154.902,741.8 159.824,757C164.94,772.8 169.602,790.48 171.003,799.4C172.63,809.76 172.392,836.1 170.568,847.5C169.704,852.9 169.246,857.57 169.55,857.9C169.858,858.236 170.951,857.4 172.034,856C180.874,844.575 184.242,811 180.107,775.5C178.943,765.5 178,752.209 178,745.8C178,735 177.794,733.759 175.013,727.8C169.235,715.419 166.779,692.2 169.428,675C171.399,662.2 172.448,660.836 180.8,660.204C188.2,659.643 193.474,662.117 198.272,668.4C210.108,683.902 211.126,683.7 211.437,665.8C211.487,662.939 212.3,661.426 215.4,658.425C220.073,653.901 224,645.9 224,640.9C224,638.3 223.277,636.634 221.4,634.9C218.854,632.551 218.45,632.5 202.05,632.5C185.55,632.5 185.249,632.539 181.9,635.09C173.1,641.792 165.636,643.137 161.3,638.8C157.898,635.399 154.231,624.7 152.834,614.1C151.299,602.463 152.758,590.2 157.094,578.3C158.842,573.5 160.231,568.364 160.15,567C160.067,565.632 159.728,558.05 159.4,550.25C159.071,542.45 158.437,536 158,536C157.564,536 155.732,538.6 153.983,541.7C150.081,548.617 141.6,557.689 134.4,562.649C131.5,564.647 128.873,566.912 128.6,567.65C128.32,568.404 128.767,570.9 129.61,573.3C133.048,583.086 133.282,586.4 133.041,622C132.825,653.8 132.997,658.289 134.65,664.05C136.274,669.714 136.469,673.9 136.25,698.4C136.008,725.3 136.078,726.456 138.2,730.65L140.4,735L134.6,741L135.8,757.75C136.463,767.007 138.152,783 139.577,793.5C142.411,814.4 142.316,820.719 138.93,836.5C137.257,844.3 136.546,845.923 133.6,848.669C128.9,853.05 125.424,853.825 122.7,851.1C120.874,849.275 120.5,847.75 120.5,842.15C120.5,836.15 120.861,834.912 123.75,831C125.522,828.6 127,826.01 127,825.3C127,824.585 128.55,823.349 130.45,822.55C132.65,821.626 134.135,820.177 134.55,818.55C134.907,817.147 134.028,803.1 132.594,787.3C128.7,744.408 128.061,730.9 126.985,668.6C126.442,637.2 125.775,611.384 125.5,611.118C124.033,609.702 122.642,618.8 121.923,634.5C121.47,644.4 120.627,656.55 120.05,661.5C119.472,666.45 117.895,679.5 116.546,690.5C112.178,726.1 110.665,754.116 111.316,787.3C111.658,804.7 111.506,818.409 110.95,820.4C110.419,822.3 108.897,824.519 107.5,825.43C103.98,827.724 93.9,828.488 85.1,827.128C78.4,826.093 77.528,826.165 74.5,828.004C70.2,830.615 68.856,830.52 65.934,827.4C63.729,825.046 63,824.863 58.2,825.458C51.6,826.278 49,824.481 49,819.1C49,815.879 50,814.537 58.5,806.35L68,797.2L68,791.7C68,781.345 65.914,760.3 60.943,720.5C55.385,676 53.822,652.493 55.005,631.2C55.444,623.3 55.419,615.535 54.95,613.85C54.489,612.198 52.05,608.6 49.629,606C44.895,600.918 44.539,599.8 43.574,587C42.57,573.7 39.792,554.997 38.9,555.54C37.498,556.393 37.802,566.9 39.631,580.8C41.52,595.157 41.987,630.6 40.694,661.5C40.109,675.5 40.189,680.211 41,679.4C43.457,676.943 44.267,669.5 44.905,643.5C45.713,610.618 47.406,613.6 47.46,648C47.497,671.4 47.082,673.916 40.974,687.3C38.738,692.2 38.23,694.534 38.685,697.8C39.465,703.4 37.4,706.406 31.8,707.817C23.6,709.885 16,705.547 16,698.8C16,696.545 16.8,695.434 19.6,693.8C22.2,692.284 23.061,691.187 22.7,689.85C22.281,688.3 22.8,688 25.9,688C32.316,688 33.117,686.2 34.216,669.3C35.387,651.3 34.525,594.981 32.827,578.5C30.951,560.3 31.125,546.581 33.313,540.3C36.288,531.758 40,533.7 40,543.8C40,547.782 41.142,554.6 42.95,561.4C44.571,567.5 46.402,577.005 47.015,582.5C48.42,595.1 49.612,599.674 51.7,600.474C54.895,601.7 55.979,599.3 55.439,592.2C54.556,580.59 47.717,541.1 42.884,519.7C42.097,516.218 40.509,513.5 37.1,509.8C34.427,506.9 31.925,504.992 31.3,505.375C29.508,506.475 28,515.4 28,524.9C28,532.4 27.66,534.203 25.7,537.1C23.911,539.745 22.6,540.565 19.8,540.791C15.513,541.138 12.658,538.2 10.867,531.6C8.615,523.3 11.925,507.156 17.265,500.4C19.203,497.949 19.404,496.4 19.45,483.6C19.491,471.9 19.886,468.275 21.768,462.3C25.643,450 28.391,449.223 38.6,457.541C42.3,460.556 45.837,463 46.5,463C47.337,463 47.881,459.75 48.3,452.25C48.874,441.95 48.802,441.396 46.581,439C35.083,426.6 33.256,414.221 41.563,405C45.776,400.324 50.5,398.591 57.2,399.26C63.3,399.87 66.765,402.291 69.858,408.1C72.061,412.24 72.17,413.3 71.7,426C71.392,434.3 71.642,441.619 72.35,445C73.416,450.1 73.812,450.645 77.8,452.488C83.606,455.172 85.901,460.2 87.523,473.8C88.225,479.683 89.745,490.15 90.9,497.05C92.566,507.007 92.913,512.7 92.583,524.6C92.158,539.9 92.57,542 96,542C98.6,542 99.055,540.8 97.937,536.9C91.914,515.9 97.902,489 108.6,489C112.009,489 112.48,486.9 110.08,482.4C108.44,479.326 108,476.7 108,470C108,465.3 107.3,457.924 106.434,453.5C103.891,440.5 106.169,431.127 113.2,425.664L116.5,423.1L112.55,419.05C108.976,415.386 108.561,414.4 108.2,408.7C107.844,403.1 108.088,402.062 110.4,399.35C111.849,397.65 114.305,395.747 115.95,395.05L118.9,393.8L118.327,381.2C117.386,360.5 119.431,354.622 130.7,345.642L136.9,340.7L132.071,335.4C126.289,329.053 123.6,322.1 123.6,313.5C123.6,306.1 125.658,301.934 131.1,298.322C134.235,296.241 136.4,295.6 140.3,295.6C147.4,295.6 151.451,298.174 154.623,304.7C156.875,309.333 157.293,311.8 157.938,324.3C158.682,338.7 159.98,344.097 163.685,348.2C167.992,352.969 171,346.8 171,333.2C171,320.9 172.465,308.077 174.61,301.6C175.945,297.569 178.05,294.792 184.65,288.35C189.25,283.861 193,279.706 193,279.1C193,278.5 191.409,275 189.5,271.4C186.363,265.486 186,264 186,257.1C186,243.8 190.563,238.391 201.6,238.609C208.8,238.751 212.109,240.373 214.442,244.9C217.185,250.225 217.309,255.1 214.939,264.4C212.39,274.4 212.972,278.795 217.4,282.969C220.669,286.052 222.523,284.6 223.489,278.2C223.88,275.616 225.492,268.1 227.071,261.5C230.948,245.3 232.279,236.31 231.527,231.4C230.976,227.8 231.192,227.105 233.3,225.7C235.371,224.32 235.768,223.1 236.199,216.8C236.753,208.7 239.061,203.173 243.7,198.837C247.8,195.005 252.828,192.714 255.6,193.417C259.014,194.282 265.357,206 265.334,211.4C265.315,216.1 262.393,222.403 258.6,225.93C255.282,229.015 255.4,231.369 259,233.934C260.576,235.058 263.246,238.35 264.85,241.15C267.198,245.25 267.543,246.566 266.543,247.6C265.418,248.765 264.127,261.5 262.448,288C261.454,303.7 265.125,334.728 268.2,336.615C270.8,338.21 270.947,334.7 268.828,321.7C265.926,303.9 266.428,301.505 273.8,297.988C279.885,295.084 280.288,293.4 276.62,286.2C274.327,281.7 268.364,252.361 269.222,249.8C269.718,248.319 273.834,262.4 274.63,268.3C275.412,274.1 276.705,275.27 277.394,270.8C280.399,251.3 281.437,246.067 283.627,239.4C286.32,231.2 289.677,223.986 293.538,218.1L295.9,214.5L293.95,208.15C292.718,204.14 292,199 292,194.2C292,179.6 297.612,174.141 311.5,175.23C322.5,176.093 328.304,181.315 329.583,191.5C330.384,197.887 329.741,202.9 326.541,215.2C324.226,224.1 324.221,224.222 326.1,226.1C327.1,227.1 328.592,228 329.25,228C329.947,228 332.8,229.557 335.7,231.52C340.8,234.972 346.945,243.458 346.983,247.1C347.002,248.9 351.716,253.684 352.6,252.8C352.931,252.469 354.039,246.2 355.073,238.8C358.08,217.3 359.859,213.654 369.6,209.02C378.8,204.643 378.995,204.204 375.784,195.1C371.905,184.1 371.526,180.977 373.322,174.8C375.134,168.567 380.2,163.097 387,160.031C394.3,156.739 401.787,157.761 407.2,162.786C411.87,167.123 412.546,170.8 412.207,190C411.956,204.2 412.216,208.394 413.62,212.8C415.562,218.9 417.162,220.03 420.1,217.374C424.848,213.08 425.383,210.5 424.017,198.5C422.446,184.7 422.983,177.733 426.1,171.5C429.358,164.983 432.7,162.736 439.9,162.222C445.5,161.822 445.995,161.981 449.65,165.35L453.5,168.9L453.45,179.7C453.402,189.9 453.191,190.995 449.65,199.4C445.268,209.8 445.451,210.414 454.6,215.97C464.968,222.267 467,227.3 467,246.7C467,260.8 467.114,261.083 472.5,260.259L475.5,259.8L475.5,251.65C475.5,244.15 475.796,242.958 479.222,236.7C484.695,226.7 484.313,222.391 477.099,212.8C471.383,205.2 469.303,198.161 470.747,191.3C472.263,184.1 475.322,179.416 480.1,176.98C486.467,173.733 491.1,174.389 502.8,180.192C511.8,184.656 513.706,186.043 516.145,189.9C520.065,196.1 520.165,204.435 516.374,209C514.962,210.7 512.49,212.775 510.9,213.593C505.024,216.618 508.1,226.47 516.2,230.57C519,231.987 521.42,232.88 521.7,232.6C521.972,232.328 522.846,229 523.618,225.3C525.495,216.3 528.683,211.227 536.7,204.482C544.8,197.667 546.179,195.381 543.4,193.375C535.622,187.764 532.714,182.3 532.185,172.3C531.544,160.2 535.847,152.4 544.5,149.98C553.6,147.435 562.259,150.766 565.869,158.2C568.922,164.487 568.58,169.8 564.46,180.1C561.7,187 561.135,189.427 561.95,190.9C562.529,191.949 566.25,194.078 570.25,195.65C575.25,197.616 578.927,199.905 582.1,203.025C588.887,209.701 589.638,213.6 589.128,239.5C588.366,278.2 588.282,276.058 590.4,276.167C593.245,276.313 591.591,287.534 594.346,306.98C595.289,313.64 596.778,328.185 594.346,338.118C592.515,345.593 597.268,345.733 598.763,354.12C599.636,359.021 596.774,363.963 599.078,369.047C600.445,372.063 601.9,376.929 603.154,383.363C603.505,385.16 597.553,334.228 606.396,307.108C611.434,291.655 621.378,291.449 632.455,298.019C637.336,300.914 639.248,326.747 633.049,339.193C631.691,341.919 611.849,353.056 612.47,350.673C614.147,344.244 624.809,341.879 621.331,340.066C612.644,335.535 604.716,313.471 606.396,334.124C607.528,348.044 624.778,368.304 631.053,380.376C633.183,384.471 628.197,387.99 621.331,395.346C614.032,403.166 606.46,419.38 606.457,422.151C606.455,423.906 606.435,425.694 606.396,427.511C606.374,428.524 609.994,431.124 610.237,436.58C610.717,447.365 611.997,460.665 605.132,467.191C605.018,467.299 611.498,474.01 612.096,480.732C614.199,504.384 611.472,521.833 617.054,529.216C617.143,529.334 619.086,532.216 621.113,535.223ZM343,258.968C341.131,257.807 339.7,257.9 333.5,259.587C327.9,261.111 326.033,263.036 325.824,267.5C325.395,276.7 327.234,283.157 331.691,288.1C335.81,292.668 335.643,293.8 329.756,301.2L325.7,306.3L328.4,308.631C331.9,311.652 338.402,313.364 341.8,312.159C343.4,311.591 344.296,310.65 344,309.85C343.722,309.101 343.566,305.05 343.65,300.75L343.8,293L340.9,293C339.3,293 338,292.552 338,292C338,291.444 339.441,288.45 341.25,285.25C344.301,279.853 344.5,278.9 344.5,269.7C344.5,262.1 344.163,259.691 343,258.968ZM401.5,166.179C396.729,162.431 394.941,164.1 398.048,169.4C399.182,171.336 400.725,176.7 401.5,181.4C402.274,186.1 403.458,190.929 404.15,192.2L405.4,194.5L406.071,191.5C407.278,186.1 407.005,175.009 405.58,171.6C404.827,169.8 402.972,167.336 401.5,166.179ZM283,485.499C279.9,483.893 273.425,483.393 272.665,484.7C272.41,485.138 271.429,489.15 270.5,493.55C269.169,499.85 269.033,502.448 269.875,505.5C271.31,510.7 277.042,519 279.2,519C284.399,519 289.8,500 287.13,491.1C286.29,488.3 284.98,486.524 283,485.499ZM233.833,487.1C234.434,485.297 232.8,485.747 228.5,488.568C224.4,491.258 212.665,505.23 211.171,509.2C210.268,511.6 211.346,516.087 212.8,515.978C213.635,515.915 233.166,489.1 233.833,487.1ZM436.392,310.9C435.553,307.863 432.1,307.965 428.5,311.132C421.979,316.87 419.461,327.6 418.086,355.5C417.387,369.7 416.764,374.64 415.138,378.9C412.274,386.4 408.629,390 403.9,390C399.089,390 398.42,388.8 396.658,377C395.912,372 394.826,367.427 394.25,366.85C393.501,366.102 390.7,366.289 384.5,367.5C378.793,368.616 372.6,369.082 366.5,368.858C355.9,368.467 353.769,367.312 351.823,360.9L350.7,357.2L344.6,360.55C340.3,362.912 338.403,364.579 338.171,366.2C337.703,369.473 336.4,370.8 331,373.5C325.716,376.142 325,377.3 325,383.2C325,390.6 328.104,422.413 329.049,424.7C329.571,425.963 331.15,427.542 332.55,428.2C334.816,429.267 335.4,429.1 337.8,426.7C340.332,424.168 340.533,423.3 341.046,412.7C341.659,400 343.119,396.207 348.9,392.292C354.7,388.364 363.3,389.995 365.814,395.5C367.516,399.228 367.299,407.9 365.255,417.8L363.5,426.3L367.4,429.398C379.23,438.795 381,442.1 381,454.8C381,458.8 381.266,462 381.6,462C382.654,462 392.368,455.9 393.065,454.8C393.412,454.253 392.341,451.15 390.7,447.95C388.183,443.044 387.624,440.6 387.232,432.8C386.715,422.5 387.69,418.904 392.571,413.1C398.721,405.788 409.4,403.931 418.6,408.575L423.8,411.2L432.2,406.98C441.1,402.508 444.634,399.816 445.565,396.8C446.238,394.619 443.8,390.438 440.2,387.603C432.856,381.82 430.814,377.4 430.864,367.4C430.891,361.857 431.728,357.75 434.5,349.55C437.238,341.45 438.116,337.177 438.168,331.7C438.233,324.8 437.339,314.326 436.392,310.9ZM320,311.9C320,311.36 319.64,311 319.1,311C315.157,311 307.376,333.5 308.933,340.4C309.949,344.9 313.171,350.384 315,350.723C316.227,350.95 316.527,349.05 316.65,340.25C316.732,334.35 317.521,325.733 318.4,321.15C319.281,316.55 320,312.396 320,311.9ZM457.7,313.907C452.6,310.786 449.844,310.317 448.25,312.3C446.602,314.353 445.189,320.1 444.514,327.5C443.693,336.5 441.317,348.033 438.85,355C435.556,364.3 434.957,368.193 436.19,372.3C436.79,374.3 438.081,376.69 439,377.5C440.574,378.889 440.748,378.4 441.35,370.9C441.807,365.2 442.619,361.793 444.092,359.4C448.276,352.6 459.05,349.941 465.8,354.042C472.152,357.902 474.343,369 471.516,383C470.211,389.464 469.964,393.8 470.488,401.1C471.305,412.5 470.118,418.068 466,422.148C462.9,425.218 459.878,425.732 458.048,423.5C457.129,422.38 457.5,421.657 459.9,419.883C464.668,416.359 466.957,408.2 465.115,401.3C463.863,396.612 462.8,396 455.9,396C451.9,396 451,396.313 451,397.7C451,402.26 447,406.095 437.6,410.548C432.4,413.011 427.686,415.648 427.05,416.45C426.163,417.568 426.175,419.3 427.1,424C427.856,427.848 428.096,434.9 427.75,443.1C427.2,456.1 427.2,456.1 429.7,457.822C439.7,464.708 443.92,471.031 443.97,479.2C443.998,483.686 444.35,484.344 449.35,489.25C452.45,492.293 455.499,496.498 456.6,499.25C457.64,501.85 458.748,504 459.05,504C459.35,504 460.133,502 460.773,499.6C462.278,493.955 465.5,490.237 473.3,485.141C481.634,479.697 482.557,477.9 481.439,469.3C479.452,454 481.411,443.373 487.1,438.6C490.123,436.063 497.9,434.111 504,434.359L507.5,434.5L507.166,430.1C506.612,422.8 504.208,417.783 498.495,412C489.986,403.388 489.891,402.9 489.014,363.5C488.3,331.4 487.822,326.2 485.13,321.2C484.143,319.368 483.3,319.174 478.5,319.679C472.12,320.351 465,318.375 457.7,313.907ZM432.5,467.192C431,466.018 429.375,465 429,465C428.613,465 427.575,467.6 426.683,470.8C424.597,478.281 420.3,482.528 412.4,484.917C407.1,486.519 406.535,486.945 406.85,489.1C407.042,490.418 407.425,509.4 407.7,531.2C408.128,565.2 408.401,570.819 409.6,570.334C411.742,569.466 412.772,566.9 413.989,559.4C415.756,548.5 419.603,541.203 425.9,536.807L428.2,535.2L425.1,532.407C421.24,528.929 420.088,524.5 420.051,513C420.021,503.6 422.023,494.239 424.949,490.1C426.827,487.445 427.7,486.897 435.3,483.604C438,482.434 438.993,481.379 438.976,479.7C438.94,476.2 435.486,469.529 432.5,467.192ZM602.9,475.468C599.7,473.85 599.871,473.861 597.6,475.135C596.416,475.799 593.4,475.974 589.6,475.6L583.5,475L581.019,479.7C578.206,485.031 570.9,491.052 564.8,493.067C557.5,495.478 552.324,499.694 549.411,505.6C546.873,510.748 546.708,511.9 546.828,523.6C547.01,541.3 551.511,589 553,589C553.386,589 554.643,586.4 555.805,583.2C558.795,574.966 561.2,573.062 570.1,571.882C574.2,571.338 577.879,570.521 578.35,570.05C578.814,569.586 578.021,565.8 576.6,561.7C574.901,556.8 574,552.086 574,548.1C574,542.4 573.822,541.932 571.3,540.95C566.7,539.162 565,536.989 565,532.9C565,527.874 568.8,523.387 574.3,521.92C576.613,521.304 581.6,519.453 585.4,517.8C590.6,515.54 593.26,514.929 596.2,515.323C603.454,516.294 605.72,520.1 609.1,537C610.56,544.3 612.906,547.294 616.8,546.823C620.795,546.34 620.944,542.7 617.163,538C609.835,528.893 609.582,527.8 609.038,502.9C608.506,478.6 608.431,478.266 602.9,475.468ZM96.4,575.089C91.389,573.698 87.6,573.845 82,575.65C79,576.617 75.25,576.934 70.75,576.6C65.95,576.245 63.971,576.447 63.9,577.3C63.845,577.958 63.89,584.6 64,592C64.149,602.1 64.585,606.155 65.731,608.1C68.852,613.399 86.8,621.886 95,621.94C100.1,621.974 106.121,620.154 108.7,617.8C110.846,615.84 111,614.85 111,602.95C111,594.15 110.561,589.147 109.585,586.8C107.692,582.25 101.1,576.395 96.4,575.089ZM591.8,576.905C589.7,575.582 587.375,575.82 585.988,577.5C584.303,579.542 585.6,581 589.1,581C592.4,581 594.131,578.374 591.8,576.905ZM574,577.8C574,576.113 567.2,577.055 564.6,579.103C560.9,582.017 559.493,584.87 561.4,585.597C562.9,586.169 574,579.3 574,577.8ZM260.944,485.8C259.78,481.645 258.7,481.33 252.9,483.455C243.462,486.912 234.869,494.9 224.343,510C218.836,517.9 218,519.694 218,523.6C218,528.155 226.291,563.9 230.247,576.4C231.418,580.1 233.015,583.428 233.75,583.7C234.489,583.974 238.9,582.283 243.5,579.963C256.841,573.233 257.409,571 255.582,532.5C254.661,513.1 255.64,505.59 260.014,498.5C262.218,494.929 262.484,491.3 260.944,485.8ZM205.3,244.19C202.77,242.845 202.2,242.846 199.4,244.202C195.792,245.948 193,252.1 193,258.3C193,263.1 193.447,264.386 196.513,268.4C202.41,276.12 200.9,281.096 189.4,291.838C178.982,301.57 178.12,303.9 177.06,325.2C176.588,334.7 176.425,343.041 176.7,343.7C176.967,344.343 178.5,345.354 180,345.877C183.801,347.203 186.136,352 186.775,359.8C187.078,363.5 187.628,365.61 188.079,364.8C189.592,362.081 195.187,326.2 195.736,315.7L196.3,304.9L193.014,301.5C189.532,297.897 189.7,296 193.5,296C196.227,296 200.7,300.8 201.7,304.8C202.966,309.868 195.544,360.7 191.946,371.6C190.824,375 189.267,378.34 188.5,378.996C186.438,380.756 186.677,382.6 189.512,386.8C193.157,392.2 192.665,393.835 188.5,390.166C184.527,386.667 176.7,384 170.4,384C165.323,384 165.172,384.3 164.06,396.6C163.535,402.4 162.541,406.471 160.85,409.75C158.786,413.75 158.54,415.132 159.288,418.5C160.632,424.547 159.378,438.4 156.59,448.3C153.887,457.9 153.691,457.459 161.1,458.459C170.564,459.737 173.632,465.1 172.621,478.6C172.044,486.3 172.159,487.048 174.2,488.94C176.964,491.504 178.1,491.526 181.2,489.076C183.171,487.518 184.07,485.25 185.45,478.35C186.41,473.55 188.315,466.621 189.671,463C195.468,447.519 195.82,443.7 193.857,417.5C192.464,398.9 193.111,395.844 199.973,388.6C202.721,385.7 205.32,382.273 205.85,380.85C206.407,379.355 206.591,370.9 206.295,360.4C205.738,340.66 206.213,337.2 213.678,306.7L217.3,291.9L213.691,288.2C207.61,281.965 206.56,275.6 209.614,263.5C212.087,253.7 210.592,247.006 205.3,244.19ZM532.6,259.65C532.205,257.65 531.507,255.851 531,255.53C529.885,254.823 528.731,262.3 529.229,267L529.6,270.5L531.45,266.85C532.767,264.25 533.098,262.179 532.6,259.65ZM508.2,189.295C504.9,186.605 503.661,186.443 504.406,188.8C505.576,192.5 507,201.446 507,205.1C507,207.2 507.369,209 507.8,209C509.283,209 512.8,204.6 513.475,201.9C514.337,198.45 511.7,192.148 508.2,189.295ZM577.05,862.1C577.576,858 577.821,854.522 577.6,854.3C577.377,854.078 576.259,857.9 575.084,862.9C572.427,874.2 572.141,889.004 574.47,894.6C575.969,898.2 581.611,905 583.1,905C583.424,905 584.205,903.3 584.8,901.3C585.888,897.638 585.85,897.554 580.95,893L576,888.4L576.05,878.95C576.077,873.75 576.527,866.172 577.05,862.1ZM244.1,860.545C243.766,860.353 240.95,859.912 237.75,859.55C233.05,859.019 232,859.174 232,860.4C232,862.8 238.95,875.302 241.3,877.128C244.1,879.303 250.264,881.136 251.3,880.1C252.107,879.293 245.5,861.348 244.1,860.545ZM335.182,875.8C331.541,870.5 329,868.157 329,870.1C329,872.2 332.9,879.631 335,881.532C338.493,884.695 338.617,880.8 335.182,875.8ZM161.977,880.4C164.389,873.9 164.318,872.093 161.784,875.5C160.816,876.803 157.05,880.073 153.55,882.65C150.05,885.228 147.332,887.766 147.607,888.2C148.449,889.527 155.499,889.057 157.7,887.529C158.917,886.683 160.827,883.5 161.977,880.4ZM496.85,890.25C497.205,882.45 497.273,876.023 497,876.05C496.725,876.078 494.7,877.486 492.5,879.179C480.404,888.487 467.7,891.375 444.1,890.179C433.8,889.658 430.272,889.801 428.85,890.8C427.124,892.013 427.002,893.8 427.035,917.3C427.081,949.9 428.364,972.331 431.441,994.3C435.263,1021.6 436.165,1023.73 442.6,1020.67C444.5,1019.76 447.197,1019 448.5,1019C449.8,1019 451.312,1018.2 451.8,1017.25C452.295,1016.29 453.015,1001.1 453.4,983.5C453.785,965.9 454.865,940.7 455.8,927.5L457.5,903.5L460,903.5C462.447,903.5 462.513,903.7 463.15,913C463.507,918.225 464.295,929.7 464.9,938.5C465.504,947.293 466.472,969.5 467.05,987.8C467.627,1006.1 468.347,1021.73 468.65,1022.5C468.951,1023.27 470.85,1024.17 472.85,1024.5C474.894,1024.84 478.15,1025.54 480.25,1026.1C482.35,1026.66 484.396,1026.86 484.9,1026.55C486.48,1025.57 486.944,1020.6 491.487,956C492.317,944.2 493.721,927.733 494.6,919.5C495.485,911.2 496.49,898.135 496.85,890.25ZM415.85,882.15C415.447,881.05 414.15,879.591 413.05,879C411.023,877.913 411,878.1 411,895.4C411,906.6 411.431,913.908 412.2,915.7C413.269,918.195 413.481,917.3 414.15,907.5C414.565,901.4 415.278,893.761 415.75,890.35C416.219,886.95 416.264,883.284 415.85,882.15ZM201.814,524.1C201.544,518.6 201.19,517.588 199.3,516.9C197.9,516.391 196.85,516.5 196.412,517.2C195.203,519.136 194.613,545.5 195.734,547.5C196.684,549.195 196.967,549 198.346,545.7C200.73,539.995 202.159,531.1 201.814,524.1ZM576.588,529.7C577.324,526.646 576.4,526.334 573.2,528.557C571,530.086 570.26,533.416 571.9,534.414C573.309,535.271 575.866,532.7 576.588,529.7ZM281,528.9C281,526.534 277.065,528.3 274.093,532C268.433,539.05 264.17,549.5 262.591,560.2C260.363,575.3 256.462,581.245 245.6,586.092C243.1,587.208 240.833,588.523 240.5,589.05C240.174,589.566 241.567,592.7 243.544,595.9C250.351,606.923 250.402,607.3 250.769,649.8L251.1,688L257.8,691.046C267.1,695.273 272,700.399 272,705.9C272,709.098 269.74,708.2 266.461,703.7C264.464,700.961 261.8,698.842 258.8,697.609C251.389,694.561 251,695.1 251,708.4C251,720.7 251.425,723 253.7,723C255.3,723 264.479,716.4 267.329,713.2C268.361,712.042 270.5,710.809 272.1,710.45C273.7,710.092 275.358,709.173 275.8,708.4C276.239,707.632 276.27,703.3 275.87,698.8C273.209,668.9 272.871,657.56 274.421,650.2C276.063,642.4 280.309,634.525 284.8,630.95C287.5,628.8 287.5,628.8 284,627.016C277,623.448 270.684,618.397 268.473,614.6C265.296,609.145 265.123,600.5 268.059,594C270.499,588.599 278.573,578.5 290.205,566.3C301.074,554.9 301.917,552.18 297.051,544.2C295.343,541.4 294.718,541.075 292.05,541.6C289.35,542.132 288.879,541.885 287.95,539.45C287.363,537.914 285.598,535.2 283.95,533.3C282.301,531.4 281,529.459 281,528.9ZM61.05,479.6C60.263,478.678 58.25,477.191 56.65,476.35L53.7,474.8L54.3,481.15C54.628,484.629 55.186,492.7 55.533,499C56.348,513.8 60.498,532.255 62.9,531.755C64.721,531.375 64.688,533.5 63.363,501.9C62.722,486.6 62.126,480.863 61.05,479.6ZM365.968,487C366.98,481.2 367.688,476.366 367.55,476.2C367.415,476.039 365.683,477.7 363.796,479.8C358.033,486.216 356.476,498 355.508,542.5C355.173,557.9 354.467,571.895 353.937,573.6C352.111,579.484 344.4,585 338,585C333.393,585 332,587.3 332,594.9C332,598.6 331.305,604.041 330.45,607.05C329.596,610.05 328.652,613.445 328.35,614.6C327.921,616.238 328.9,617.506 332.8,620.363C341.225,626.536 345,637.9 345,657.1C345,663.8 344.903,664.088 342.75,663.8C340.626,663.517 340.44,662.8 339.435,651C338.225,636.8 336.081,630.582 331.2,627.12C327.2,624.283 313.353,618.012 311.2,618.061C310.243,618.083 308.625,619.5 307.5,621.3C306.409,623.046 303.25,625.705 300.55,627.15C297.85,628.596 293.713,631.982 291.45,634.6L287.3,639.4L289.145,644.8C291.675,652.2 294,663.981 294,669.4C294,671.9 294.444,674.177 295,674.523C296.267,675.311 309.6,671.55 315.9,668.628L320.7,666.4L318.852,664.1C316.625,661.328 316.495,655 318.372,640.7C319.724,630.4 320.575,628.522 323.4,629.608C324.917,630.192 325.106,631.1 324.606,635.4C323.441,645.4 322.703,661.841 323.343,663.5C323.94,665.046 324.4,664.964 328.4,662.6C333.7,659.469 335,659.311 335,661.8C335,666.482 325.7,671.81 307.7,677.44C300.4,679.724 295.68,681.74 295.15,682.8C294.681,683.737 294.502,689.55 294.75,695.75L295.2,707L300.3,707C306,707 310.873,709.317 313.342,713.2C318.048,720.6 317.88,730.804 312.963,736.2C309.585,739.909 309.328,742.9 311.904,748.5C315.099,755.447 316.5,756.12 328.2,756.322C338.1,756.494 338.511,756.415 338.8,754.3C338.974,753.023 337.405,749.5 335.058,745.9C330.312,738.621 329.279,733.4 330.784,724.3C332.206,715.7 336.904,707.948 343.9,702.659C346.9,700.391 350.422,697.523 351.65,696.35L353.9,694.2L351.85,687.85C350.255,682.912 349.888,679.5 350.197,672.5C350.821,658.4 355.732,649.753 366.1,644.5C373.266,640.868 373.364,640.6 371.48,629.9C369.455,618.4 369.282,604.053 371.095,598C372.862,592.1 379.507,585.389 384.5,584.463C387.855,583.84 395.2,584.175 399,585.125C400.086,585.397 400.5,584.7 400.5,582.6C400.5,581 399.827,579.364 399,578.95C398.17,578.536 392.25,577.508 385.75,576.65C378.85,575.74 372.761,574.372 371,573.336C366.307,570.576 365.274,565.9 363.965,541.5C362.666,517.3 363.196,502.889 365.968,487ZM380.5,478.324C376.413,475.511 373.812,477.4 371.31,485C369.696,489.903 369.5,494.3 369.5,525.5C369.5,557.4 369.663,560.828 371.35,564.2C373.911,569.324 378.3,571.101 390,571.754C399.5,572.284 399.839,572.227 401.077,569.9C402.536,567.158 403.087,501.9 401.719,493.9C400.638,487.58 397.7,484.739 389.4,481.988C385.6,480.728 381.601,479.082 380.5,478.324ZM488.432,482.6C487.608,480.491 486.739,480.6 485.245,483C484.551,484.115 480.9,486.984 477,489.479C469.3,494.405 467.516,496.577 465.406,503.6C463.484,510 462.473,529.696 463.881,533.3C464.936,536 470.201,540 472.7,540C473.679,540 474,536.6 474,526.2C474,503.6 476.055,496.104 483.8,490.468C488.2,487.265 489.435,485.167 488.432,482.6ZM464.4,360.3C460.249,356.15 451.397,357.7 448.413,363.1C446.783,366.05 446.741,377.1 448.339,382.4C449.589,386.545 452.8,389.499 457.2,390.554C459.341,391.067 460.5,390.6 462.8,388.3C468.5,382.6 469.483,365.384 464.4,360.3ZM334.5,361.6C334.5,359.726 333.85,359.468 328.45,359.2C325.15,359.037 322.127,359.173 321.8,359.5C320.303,360.997 323,371 324.9,371C326.9,371 334.5,363.559 334.5,361.6ZM570.562,367.5C569.392,364.7 568.54,364 566.3,364C561.9,364 560.746,365.174 561.973,368.4C562.543,369.9 563.459,374.3 564.033,378.3C565.842,390.9 566.088,392 567.1,392C567.658,392 568.958,390.1 570.043,387.7C572.349,382.6 572.611,372.402 570.562,367.5ZM588.7,370.257C576.5,363.42 577.001,363.209 576.959,375.2C576.914,388.1 575.195,393.267 569.7,397.03C567.2,398.742 565.315,401.065 564.45,403.5C563.703,405.6 561.959,408.464 560.55,409.9C558.392,412.1 557.2,412.467 552.8,412.284C547,412.042 546,412.824 546,417.6C546,421.279 547.2,422.452 554.3,425.713C564.15,430.238 567.317,435.1 568.813,448C571.654,472.5 563.97,484.641 544.9,485.784C534.3,486.419 527.455,484.335 522.617,479C520.532,476.7 518.422,473.847 517.811,472.5C516.442,469.482 515,470.2 515,473.9C515,477.353 518.1,481.478 522.3,483.615C528,486.516 532.959,492.157 534.507,497.5C537.578,508.1 539.291,563.909 536.702,569C534.769,572.8 531.3,574.153 527.5,572.589C522.702,570.613 521.409,565.5 520.02,543C518.563,519.4 517.456,509.947 515.432,503.8C512.929,496.2 503.657,487 498.5,487C496.244,487 483.165,498.7 481.172,502.5C479.981,504.773 479.5,509.5 479.188,522C478.722,540.7 479.012,541.65 485.5,542.671C487.7,543.017 491.165,544.402 493.2,545.747C497.467,548.57 504.134,556.9 506.286,562.1C509.262,569.293 512.123,584.4 512.951,597.3C513.536,606.4 514.444,612.24 515.876,616.1C520.295,628.02 520.694,636.7 517.871,659.5C516.472,670.8 515.205,673 510.1,673C506.2,673 504.002,671.4 502.546,667.5C502.136,666.402 501.19,655.4 500.448,643.1C499.301,624.1 496.968,605.402 495.444,603C495.199,602.615 493.2,604.018 491,606.117C485.951,610.934 480.8,612.374 471.8,611.483C466.1,610.919 464.569,611.103 463,612.542C460.771,614.585 455.264,629.4 450.934,645C446.91,659.5 445.325,662.582 438.9,668.396L433.7,673.1L435.35,687.3C436.256,695.1 437,706.143 437,711.8C437,721.3 436.813,722.287 434.6,724.5C429.61,729.49 421.164,728.9 417.395,723.3C413.26,717.159 411,698.6 411,670.8C411,659.9 410.775,651 410.5,651C410.221,651 408.25,652.152 406.05,653.6C403.501,655.278 399.9,656.466 395.9,656.948C389.4,657.732 388,658.84 388,663.2C388,669.443 383.4,675.949 377.1,678.617C372.5,680.565 370.246,682.676 367.936,687.2C364.28,694.36 365.6,695.856 379.3,700.081C392.2,704.06 395.543,705.789 400.613,711.1C405.89,716.629 408.141,721.2 411.938,734.1C413.616,739.8 415.212,745.088 415.469,745.8C415.971,747.192 421,744.997 428.2,740.243C431.453,738.095 432.6,737.877 437.7,738.437C444.3,739.16 449.001,737.327 452.41,732.7L454.4,730L451.577,718.6C448.235,705.1 448.344,696.265 451.94,689.2C458.525,676.263 478.271,677.7 483.534,691.5C485.827,697.512 484.994,704.9 480.514,718.3C476.502,730.3 476.238,732.907 478.745,735.8C480.997,738.4 491.698,744.315 492.314,743.3C492.583,742.857 492.846,737.6 492.903,731.5C493.195,700.4 499.218,686.849 515.8,679.982C523.8,676.668 530,672.878 530,671.3C530,670.422 528.837,666.5 527.421,662.6C524.225,653.8 523.91,645.644 526.583,640.9C527.825,638.697 530.4,636.568 533.9,634.85C536.9,633.378 540.766,630.467 542.6,628.3C544.415,626.155 547.7,623.568 549.9,622.55C552.1,621.533 554.141,620.07 554.436,619.3C555.102,617.565 552.573,604.8 550.375,598.8C549.493,596.392 548.187,592.3 547.408,589.5C545.749,583.537 541.905,538.4 541.661,522C541.377,503 545.425,495.891 560.5,488.916C570.9,484.104 574.194,481.28 576.971,474.8C578.91,470.275 579.096,468.75 578.4,463.05C577.96,459.448 577.577,452 577.55,446.5C577.506,437.8 577.79,436.032 579.737,432.9C582.984,427.677 587.8,425.674 595.6,426.302L601.8,426.8C601.8,426.8 604.6,379.168 588.7,370.257ZM557.853,374.2C556.414,368.3 555.172,366.927 552.3,368.059C549.562,369.138 544.383,376.2 543.542,380C542.856,383.1 549.055,403.268 551.472,405.8C553.365,407.783 556.816,406.3 558.688,402.7C560.011,400.155 560.183,397.75 559.65,389.25C559.292,383.55 558.484,376.789 557.853,374.2ZM301,375.116C296.6,373.118 293.754,372.715 291.2,373.728C288.5,374.799 283.199,389 285.5,389C285.831,389 290,387.902 294.8,386.55C299.6,385.199 304.755,383.849 306.3,383.54C311.439,382.513 309.1,378.794 301,375.116ZM495.4,228.598C492.8,227.595 490.32,227.841 489.338,229.2C488.825,229.911 486.859,233.9 485.001,238C481.784,245.1 479.717,255.998 481.6,255.932C482.1,255.915 483.83,252.95 485.5,249.25C487.169,245.55 490.38,240.028 492.738,236.8C497.415,230.4 497.711,229.489 495.4,228.598ZM413.998,238C413.327,235.2 412.492,233 412.1,233C410.866,233 407.003,240.6 404.475,248C401.741,256 402.266,256.454 409.2,252.08C414.672,248.627 415.772,245.4 413.998,238ZM619,1053C619,1049.2 619,1049.2 615,1049.16C608.5,1049.08 605.821,1053.82 610,1058C614.114,1062.12 619,1059.4 619,1053ZM399.16,198C397.682,195 396.055,192.489 395.5,192.35C394.962,192.216 392.95,192.771 391.15,193.55C389.35,194.33 386.735,195 385.5,195C382.56,195 382.057,196.6 383.457,201.5L384.6,205.5L392.2,205.787C402,206.155 402.759,205.306 399.16,198ZM559.3,200.1C557.172,197.3 555.06,195.144 554.5,195.2C552.494,195.399 533.161,215.8 530.903,220.1C526.966,227.598 527.569,234.4 533.245,246.5C540.139,261.2 539.798,266.621 531.174,279.4C528.407,283.5 527.865,285.156 528.165,288.6C528.556,293.1 528.17,293.217 524.3,289.764L522.1,287.8L520.429,293.6C518.441,300.5 518.937,311.448 521.525,317.8C523.522,322.7 525.299,323.161 526.932,319.2C528.894,314.439 534.1,311.745 542.3,311.245C549.1,310.831 549.819,310.986 552.8,313.503C557.186,317.207 558.372,322.3 557.668,334.4C556.968,346.4 558.22,350.03 564.1,353.049C566.2,354.128 568.347,355 568.9,355C569.523,355 570.012,343.05 570.2,323.25C570.426,299.25 570.829,290.89 571.85,289C572.586,287.637 575.2,284.682 577.6,282.5L582,278.5L582.988,264.5C584.266,246.4 584.274,223.404 583.004,221C582.451,219.955 577.75,215.952 572.55,212.1C567.35,208.249 561.391,202.852 559.3,200.1ZM509.442,237.4C505.454,233.2 503.778,233.2 499.946,237.4C489.177,249.2 484.294,263.3 488.931,269.2C493.351,274.823 495.527,294.8 492.939,306C492.038,309.9 492.126,310.633 493.6,311.495C504.73,318.004 510.966,328.9 516.092,350.8C517.848,358.3 519.865,365.111 520.55,365.85C521.572,366.955 522.553,366.2 525.946,361.7C530.695,355.4 530.931,353.512 527.424,349.9C525.694,348.119 524.428,345.05 523.4,340.15C522.581,336.25 520.604,329.932 519.05,326.25C517.487,322.55 515.635,317.015 514.95,314C514.222,310.8 512.54,307.162 510.926,305.3C505.933,299.539 505.94,292.1 510.96,270C512.527,263.1 514.097,255.619 514.463,253.3C515.331,247.8 513.345,241.51 509.442,237.4ZM253.5,237.985C248.9,235.995 238.438,234.483 237.69,235.7C237.421,236.14 236.411,243.55 235.45,252.15C233.895,266.05 233.847,269.254 235.018,280.8C236.34,293.843 236.137,300.4 233.779,320.8C233.131,326.4 232.893,331.271 233.25,331.6C233.611,331.934 236.7,331.512 240.2,330.65C243.7,329.789 249.1,328.9 252.35,328.65C255.55,328.404 258.403,327.974 258.65,327.7C258.896,327.426 258.697,323 258.209,317.9C257.059,305.893 257.35,286.2 259.006,263.9C260.558,243 260.1,240.841 253.5,237.985ZM523.42,254.2C523.499,243.1 523.474,242.976 520.6,240.25L517.7,237.5L518.437,240C520.533,247.103 520.158,254.6 517.035,268C513.867,281.6 511.987,296.95 513.851,294C514.366,293.186 515.12,290.9 515.5,289C515.888,287.056 517.2,283.5 518.45,281C521.938,274.023 523.333,266.5 523.42,254.2ZM304.583,247.6C304.205,244.5 303.587,242 303.2,242C302.112,242 298.282,253.5 297.072,260.4C295.02,272.1 296.095,278.639 299.7,276.382C303.192,274.197 305.889,258.3 304.583,247.6ZM447.008,170.7C443.788,166.639 437.9,166.9 433.5,171.3C427.876,176.924 426.736,185.3 429.662,199.5C431.97,210.7 431.263,213.438 424.011,221.4C420.732,225 418.014,228.319 418.032,228.7C418.223,232.8 420.979,247.38 421.7,248.1C422.19,248.591 425.1,250.268 428.1,251.789C435.433,255.506 437,258.8 437,270.5C437,275.4 436.46,281.962 435.8,285.1C434.747,290.1 434.812,291.12 436.333,293.4C438.674,296.912 439.518,296.6 440.939,291.7C443.547,282.7 449.038,273.307 455.1,267.476L461,261.8L461,246.7C461,228.5 460.181,226.221 451.9,221.374C442.6,215.93 440.531,213.724 440.672,209.4C440.742,207.253 442.457,201.5 444.487,196.6C449.334,184.9 450.311,174.866 447.008,170.7ZM383,660.1C383,658.5 382.148,656.169 381.1,654.9L379.2,652.6L378.473,657.1C377.73,661.7 373.884,670.374 372.1,671.474C370.495,672.462 370.8,674 372.6,674C377.837,674 383,667.1 383,660.1ZM184.4,671.077C178.7,668.577 176.379,668.506 175.464,670.8C174.093,674.242 173.745,696.5 174.925,705.3C177.258,722.7 181.62,728.63 185.888,720.2C189.919,712.24 190.38,707.9 188.459,696C187.038,687.2 186.922,684.233 187.853,680.6C189.597,673.8 189.405,673.271 184.4,671.077ZM81.181,473C79.194,459.7 78.412,458.91 72.4,464.12C67.5,468.367 64,472.067 64,473C64,473.86 72.8,482.094 78.9,486.942L83,490.2L82.95,487.35C82.922,485.789 82.122,479.3 81.181,473ZM162.9,464.669C160.1,462.705 155.601,462.514 154.202,464.3C151.197,468.137 149.134,488.3 150.968,495.9C152.175,500.9 152.274,501 156,501C161.497,501 164.587,497.9 166.468,490.5C169.416,478.9 167.938,468.202 162.9,464.669ZM395.2,467.6C394.823,465.5 393.992,463.531 393.4,463.334C391.87,462.824 382.5,469.5 382.5,471.1C382.5,472.375 388.6,475.798 393.7,477.385C395.79,478.035 395.995,477.8 395.95,474.8C395.923,473.024 395.576,469.7 395.2,467.6ZM45.5,468.709C40.2,464.433 38.575,464.035 39.342,467.2C39.65,468.473 40.212,476.2 40.6,484.5C41.169,496.7 41.714,500.434 43.519,504.5C48.146,514.925 51.427,529.3 53.536,548.4C55.664,567.662 57.276,567.2 56.682,547.5C56.275,534 55.77,529.938 53.45,521.5C50.939,512.372 50.678,509.8 50.45,492L50.2,472.5L45.5,468.709ZM495.8,216.55C493.5,216.195 490.107,214.986 488.3,213.879C484.523,211.566 484.279,212.1 487.057,216.6C489.28,220.2 496.783,224.402 499.3,223.456C501.4,222.666 502.312,220.075 501.045,218.5C500.473,217.789 498.1,216.906 495.8,216.55ZM300.248,225.2C298.929,221.398 293.592,227.2 290.59,235.7C288.867,240.58 285.415,259.5 284.515,269C284.174,272.6 283.386,277.887 282.75,280.85C281.739,285.55 281.824,286.614 283.45,289.6C284.483,291.5 285.675,293 286.15,293C286.624,293 287,290.55 287,287.45L287,281.9L290.122,285.5C293.418,289.3 296.882,290.036 299.071,287.4C300.15,286.1 300.128,285.632 298.95,284.9C298.15,284.404 296.962,284 296.3,284C294.403,284 292.089,278.7 291.41,272.8C290.93,268.635 291.699,263.55 295,249.05C297.299,238.95 299.539,229.673 299.95,228.55C300.352,227.45 300.491,225.898 300.248,225.2ZM547.8,675.163C539.5,673.159 537.166,673.595 535.272,677.5C533.047,682.09 533.9,682.838 543.8,684.979C553.1,686.99 555,686.417 555,681.6C555,677.619 553.9,676.635 547.8,675.163ZM200.759,680.3C196.534,675.7 195.597,675.226 194.43,677.1C193.266,678.97 193.566,694.2 194.828,697.3C196.691,701.877 196.156,709.6 193.396,718C191.785,722.9 191.034,726.85 191.417,728.4C191.956,730.584 196.4,734 198.7,734C199.141,734 199.365,731.65 199.2,728.75C199.005,725.347 200.166,717.75 202.5,707.15C204.855,696.45 205.875,689.747 205.45,687.75C205.095,686.087 202.963,682.7 200.759,680.3ZM472.7,687.622C461.864,682.473 452.852,691.6 454.356,706.2C455.49,717.2 461.494,727 467.1,727C469.313,727 470.421,726.1 472.392,722.7C475.999,716.479 478.197,709.3 478.761,701.9C479.371,693.9 477.718,690.006 472.7,687.622ZM217.281,697.3C215.865,692.2 214.383,688 214,688C213.122,688 212.985,688.5 208.435,708.4C202.902,732.6 203.458,734.458 215.1,730.694C221.6,728.592 222.536,727.984 222.802,725.7C223.185,722.406 220.696,709.6 217.281,697.3ZM198.25,463.25C198.665,461.45 198.687,460 198.3,460C197.036,460 193.2,469.5 190.545,479.2C189.067,484.6 186.741,490.283 185,492.75L182,497L187.7,501.483C194.1,506.517 201.936,511.364 202.6,510.7C202.818,510.482 201.753,507.4 200.25,503.9C197.641,497.831 197.5,496.7 197.5,482C197.5,473.5 197.838,465.033 198.25,463.25ZM81.5,542.1C80.296,540.897 77.45,539.842 74.35,539.45C70.05,538.908 68.886,539.114 67.3,540.7C64.781,543.219 62.596,556.4 63.488,563.7C64.345,570.715 66.8,572.542 74.2,571.671C82.511,570.693 83.309,569.3 83.413,555.6C83.49,545.4 83.273,543.874 81.5,542.1ZM591.6,542.29C587.6,538.612 585.572,538.249 582.2,540.608C577.621,543.811 580.4,561.961 586.2,566.733C590.243,570.06 596.72,558.9 595.737,550.3C595.302,546.5 594.51,544.967 591.6,542.29ZM233.636,606.2C231.616,602.2 229.466,599 228.8,599C226.711,599 221.222,602.7 220.045,604.9C217.417,609.817 219.843,621 224.817,626.9C227.555,630.147 227.7,630.189 233.8,629.5C239.9,628.812 240,628.749 240,625.6C240,621.121 237.828,614.5 233.636,606.2ZM433.7,607.15C430.152,607.059 425.55,606.049 421.85,604.55L415.8,602.1L416.45,605.3C416.809,607.068 417.323,613.2 417.6,619C418,627.4 418.57,630.4 420.45,634C421.735,636.461 424.937,644.3 427.518,651.3C432.936,666 434.212,666.884 439.217,659.4C443.173,653.484 444.878,645.6 446.006,628C446.551,619.5 447.293,610.988 447.65,609.15L448.3,605.8L443.9,606.55C441.472,606.964 436.9,607.233 433.7,607.15ZM470,588.6C470,587.049 468.046,588.7 463.374,594.2C458.618,599.8 457.536,603 460.4,603C461.866,603.001 470,590.801 470,588.6ZM629.9,597.623C627.184,598.757 627.155,601.4 626.5,607.3C625.322,617.9 625.736,621.896 628.429,625.9C632.545,632.021 632.494,633.1 627.569,644.4C617.807,666.8 615.149,686.286 619.399,704.3C621.183,711.861 621.189,719 619.423,729.2C618.903,732.2 619.183,733.067 621.1,734.399C624.9,737.041 624.218,735.194 627,733C634.543,727.049 655.56,586.912 629.9,597.623ZM621,608.4C621,606.5 620.647,605 620.2,605C618.683,605 615.738,611.4 616.104,613.9C616.998,619.997 621,615.5 621,608.4ZM456,609.1C456,606.815 454.375,608.1 453.219,611.3C451.811,615.2 451.677,618 452.9,618C453.701,618 456,611.4 456,609.1ZM391.25,626.35C390.566,625.339 388.235,621.1 386.107,617C381.8,608.7 381.8,608.7 379.094,618.7C377.903,623.1 377.356,636.707 378.33,637.7C379.233,638.622 383,636.429 388.1,632.012C391.9,628.72 392.329,627.948 391.25,626.35ZM72.8,620.459C68,617.482 63.545,615 63,615C60.868,615 60.507,619.2 60.55,643.5C60.597,670.065 60.93,673.9 68.026,729.8C70.21,747 72.36,768.578 72.8,777.7C73.59,794.1 73.632,794.326 76.3,796.454C80.251,799.605 79.7,802.3 74,807.681C68.7,812.684 67.927,814.828 70.5,817.4C71.963,818.864 72.5,818.796 76.8,816.6C79.4,815.273 82.996,812.927 84.85,811.35L88.2,808.5L86.5,798C84.938,788.355 84.881,781.6 85.8,715C86.35,675.1 87.204,641.151 87.7,639.5C88.21,637.8 89.228,636.5 90.05,636.5C91.293,636.5 91.507,647.9 91.55,716.5C91.584,772.4 91.931,797.841 92.7,800.95C93.342,803.55 94.88,806.332 96.4,807.642C99.3,810.142 104.213,810.697 105.766,808.7C106.333,807.972 106.425,802.2 106,794C105.614,786.56 105.674,770.4 106.133,758C106.95,735.943 107.635,726.2 110.554,695.1C111.416,685.916 112,668.6 112,652.2L112,624.7L108.8,625.359C90.3,629.166 85.863,628.562 72.8,620.459ZM512.094,620.8C511.338,618.2 510.333,616 509.9,616C508.003,616 505.587,621.6 505.196,626.9C504.747,633 506.635,662.912 507.632,665.5C508.709,668.292 511.366,666.6 512.346,662.5C513.876,656.1 513.695,626.315 512.094,620.8ZM620.7,626.802C618.783,625.574 616.8,625.891 612.2,628.16C606.096,631.171 600.836,637.8 595.032,649.8C589.711,660.8 584.762,668.052 580,671.824C578.3,673.171 577.238,674.59 577.55,675.1C577.852,675.596 581.45,678.271 585.55,681.05C590.45,684.372 593.136,685.656 593.4,684.8C593.621,684.08 594.545,680.6 595.471,677C599.534,661.2 607.346,648.397 616.7,642.207C620.4,639.759 622.258,637.765 622.857,635.6C623.77,632.3 622.742,628.111 620.7,626.802ZM556.5,630C556.5,628.207 552.2,627.495 550,628.925C548.9,629.64 548.793,630.194 549.6,631C551.172,632.573 556.5,631.801 556.5,630ZM568.114,632.1C565.882,628.9 564,628.306 564,630.8C564,633.1 567.921,639.195 569.8,639.816C571.503,640.378 570.415,635.4 568.114,632.1ZM614.2,583.113C609.593,580.662 604.7,580.923 598,583.977C590.9,587.214 585.624,587.719 582.6,585.45C579.893,583.42 576.8,583.553 573.9,585.822C572.569,586.863 569.65,588.637 567.35,589.8C565.05,590.964 562.219,593.149 561,594.7C558.946,597.314 558.84,598.2 559.4,608C559.971,618 560.135,618.62 562.85,621C564.388,622.35 567.15,624.283 568.85,625.2C570.568,626.128 572.931,628.4 574.05,630.2C575.792,633.005 576.04,634.7 575.7,641.5C575.45,646.5 574.447,651.75 573.027,655.5C569.581,664.6 569.395,666.663 571.9,667.992C576.443,670.403 582.351,663.8 589.7,648.1C596.346,633.9 600.604,628.01 607.1,624.027C611.1,621.575 617.151,620.57 616.562,619.236C613.791,612.973 610.08,607.7 616.457,600.5C618.848,597.8 620,595.525 620,593.5C620,590 616.98,584.593 614.2,583.113ZM624.266,585.8C623.633,587.7 624.904,592 626.1,592C626.652,592 624.502,585.093 624.266,585.8ZM483.1,592.25C479.9,589.403 476.971,587 476.7,587C476.422,587 475.911,588.2 475.55,589.7C475.191,591.19 473.375,595 471.5,598.2L468.1,604L470.3,605.543C474.129,608.228 482.4,606.66 487.2,602.34C490.145,599.69 489.4,597.855 483.1,592.25ZM630,760.8C630,752.5 628.725,751.732 625.518,758.1C624.008,761.1 621.733,764.923 620.4,766.7C619.05,768.5 618,770.119 618,770.4C618,770.668 619.3,771.583 620.8,772.37C625.96,775.08 630,770 630,760.8ZM271.85,757.25C271.65,756.25 270.857,755.375 270,755.209C267.777,754.777 259.733,760.2 256.813,764.1C253.635,768.345 250.759,783.4 251.196,793.5L251.5,800.5L252.7,796.5C253.372,794.26 254.426,790.3 255.095,787.5C257.128,779 261.464,770.663 266.952,764.7C270.082,761.3 272.058,758.294 271.85,757.25ZM326.4,762.096C321,759.206 318,758.315 318,759.6C318,759.87 319.8,761.816 321.9,763.817C327.519,769.171 328.959,776.1 330.829,806.8C331.31,814.7 332.013,821.409 332.4,821.79C334.74,824.094 342.548,810.8 345.49,799.5C347.312,792.5 347.621,777.064 346.055,771.2C344.744,766.289 342.8,765.027 336.7,765.127C333.441,765.18 330.6,764.344 326.4,762.096ZM600.1,766.5C597.7,764.591 595.609,763 595.5,763C593.895,763 590.679,771.4 587.574,783.7C586.21,789.1 583.716,797.541 582.018,802.5C578.423,813 575.024,826.415 575.05,830C575.076,833.613 576.443,830.8 577.965,824C579.643,816.5 585.454,802.048 589.665,794.9C591.605,791.608 596.293,785.2 600.055,780.7C606.826,772.6 608.198,770 605.7,770C605.045,770 602.5,768.41 600.1,766.5ZM280.35,770.9C278.478,767.7 276.305,765 275.6,765C271.894,765 263.866,776.4 260.952,785.8C259.301,791.127 258.986,795.3 258.914,812.8C258.827,833.8 260.184,845.991 264.522,863.2C266.059,869.3 269.697,877.713 271.2,878.643C272.938,879.72 274.918,876.8 275.907,871.7C281.128,844.8 285.339,818.114 286.273,806C287.276,793 287.202,790.6 285.6,784.1C284.613,780.1 282.24,774.133 280.35,770.9ZM410.55,769.25C410.932,766.75 410.788,765 410.2,765C409.012,765 404.795,774.5 402.166,783.1C397.794,797.4 396.734,818.133 400.076,824C401.399,826.325 401.549,825.85 402.2,817.25C402.585,812.156 404.472,800.25 406.4,790.75C408.327,781.25 410.192,771.591 410.55,769.25ZM319.365,772.2C317.311,769.044 315.875,769.5 316.533,773.1C316.845,774.808 317.715,785.9 318.47,797.8C320,821.9 321.692,834.212 323.4,833.659C325.588,832.951 326.812,828.9 325.956,825.2C325.486,823.171 324.823,814.5 324.488,806C323.837,789.5 321.777,775.907 319.365,772.2ZM422.05,780.35C419.873,775.75 417.74,772 417.3,772C416.335,772 409.307,800.6 407.961,810C405.929,824.2 407.472,831.432 413.8,837.367C417.951,841.261 420.913,840.5 423.797,834.8C428.832,824.846 430.443,807.6 427.504,795.1C426.675,791.575 424.226,784.95 422.05,780.35ZM620.1,779.717C616.229,776.492 614.5,776.349 610.3,778.908C607.047,780.89 599.017,790.301 596.397,795.2C595.06,797.7 595.071,798 596.5,798C599.813,798 604.097,801.2 606.272,805.3C608.401,809.314 608.495,810.5 608.4,832C608.33,847.6 607.656,860.174 606.2,873C605.042,883.2 604.324,891.702 604.6,891.95C604.872,892.196 608.6,893.605 612.8,895.05C617,896.496 622.34,898.172 624.795,899.153C627.27,900.143 634.927,825.901 629.479,801.6C626.519,788.4 624.296,783.214 620.1,779.717ZM319.2,183.959C317.856,182.907 315.15,182 313.35,182C310.65,182 309.787,182.524 308.907,184.7C307.242,188.813 306.536,209 307.91,213.2C309.178,217.078 310.865,232.2 311.69,247.1C312.317,258.399 311.224,266.2 306.859,281.6L303.6,293.1L305.43,300.1C307.235,307 307.2,316.588 305.352,321.5C304.675,323.3 304.78,323.355 306.4,322.05C307.398,321.246 309.936,317.15 312.1,312.85C314.263,308.55 318.003,303.03 320.5,300.45C323.016,297.85 325,295.227 325,294.5C325,293.791 323.847,290.7 322.464,287.7C318.983,280.153 318.309,272 320.395,262.7C321.337,258.5 323.039,253.915 324.2,252.45C326.043,250.124 326.8,249.874 330.4,250.4C332.7,250.737 335.378,251.242 336.5,251.55C337.6,251.853 339.354,251.47 340.4,250.7C342.259,249.33 342.251,249.2 340.031,244.6C337.616,239.6 333.7,236.566 325.8,233.578C323.2,232.595 320.102,230.728 318.868,229.4C316.297,226.636 316.566,224.3 320.524,215C325.503,203.3 324.868,188.401 319.2,183.959ZM155.9,513.011C155.118,513.005 153.55,512.735 152.35,512.4C150.85,511.982 149.892,512.375 149.182,513.7C147.039,517.7 139.466,551 140.7,551C141.385,551 143.024,548.9 147.567,542.2C153.67,533.2 159.425,513.039 155.9,513.011ZM303.544,185.8C304.351,180.7 303.464,179.727 300.6,182.569C296.582,186.556 296.113,201 299.745,208.9L301.4,212.5L302.1,201.5C302.488,195.4 303.131,188.407 303.544,185.8ZM206.95,461.75C207.594,459.37 207.968,455.3 207.8,452.5L207.5,447.5L205.735,451.8C203.889,456.3 203.386,464.511 204.9,465.445C205.387,465.746 206.327,464.05 206.95,461.75ZM416,455.1C416,453.995 413.1,453.233 410.8,453.734C407.705,454.408 408.9,456 412.5,456C414.4,456 416,455.589 416,455.1ZM395.534,597C393.239,594.455 392.9,594.46 389.6,597.084C386.041,599.913 386.229,603.9 390.326,612.5C394.184,620.6 396.368,623 397.422,620.3C400.467,612.5 399.574,601.48 395.534,597ZM410.05,604.75C408.763,602.15 406.568,598.982 405.2,597.75L402.7,595.5L403.4,598C403.785,599.377 404.369,605.4 404.7,611.4C405.255,621.5 405.501,622.528 408.05,625.4C409.558,627.1 411.183,628.117 411.65,627.65C412.121,627.179 412.477,622.95 412.45,618.15C412.409,611.05 411.978,608.649 410.05,604.75ZM361.781,266.9C360.606,264.8 359.276,263 358.9,263C358.511,263 357.644,266.6 356.95,271.1C355.9,277.9 355.924,279.346 357.1,280.109C359.134,281.428 359.7,281.3 362,279C364.605,276.395 364.522,271.8 361.781,266.9ZM624.522,548.571C624.361,548.816 624.187,549.059 623.999,549.3C621.433,552.59 617.5,553.451 612.5,551.819C607.02,550.029 604.755,546.1 602.576,534.6C600.549,523.9 598.805,521 594.4,521C590.817,521 585.916,524.2 583.679,528C581.245,532.135 582,533.652 586.9,534.473C595.437,535.903 600.748,542 601.731,551.5C602.258,556.6 602.554,557.126 605.8,558.726C609.6,560.6 609.6,560.6 613.541,569.2C615.65,573.8 617.048,575.435 620.3,577.1C624.258,579.128 624.6,579.146 630.2,577.608C633.981,576.57 628.544,560.606 624.522,548.571ZM372.4,302.112C368.8,300.478 360.467,300.719 358.983,302.5C357.199,304.641 358.505,313.7 362.084,324C366.531,336.8 366.109,340.983 359.503,349.6C356.743,353.2 356.043,354.909 356.513,356.9C357.599,361.502 360.4,363.368 366.9,363.823C372.7,364.229 388,361.602 388,360.2C388,358.384 381.862,344.7 379.792,341.9C377.665,339.025 377.484,337.7 377.28,323.6C377.044,307.3 376.264,303.867 372.4,302.112ZM491.95,181.75C491.977,181.341 490,181 487.6,181C483.8,181 482.784,181.478 480.15,184.5C478.494,186.4 476.818,189.509 476.483,191.3C475.772,195.1 477.198,201.522 479.412,204.5C480.773,206.331 480.903,206 480.935,200.6C480.979,193.3 483.21,188.48 488.1,185.115C490.2,183.67 491.922,182.165 491.95,181.75ZM247.3,885.364C243.2,883.652 241.689,883.663 242.35,885.4C243.748,889.08 246.184,914.2 245.802,921C245.285,930.2 242.882,934.811 236.7,938.464C231.544,941.51 233.1,942.386 242.6,941.787C251.467,941.229 253.802,938.9 255.123,929.3C256.321,920.6 253.93,890.817 251.833,888.3C251.083,887.4 249.1,886.116 247.3,885.364ZM274,892.2C274,891.5 273.541,891 272.9,891C271.567,891 271.947,895.6 275.173,918.5C278.102,939.3 278.691,940.393 284.5,935.824C286.97,933.881 287.153,933.3 286.65,929C286.347,926.415 283.378,917.35 280.05,908.85C276.721,900.35 274,892.861 274,892.2ZM612.5,901.13C611.2,899.873 604.675,898.682 603.8,899.542C602.279,901.037 604.2,902 608.7,902C611.6,902 613.055,901.667 612.5,901.13ZM323.85,559.75C323.124,558.414 321.6,558 317.4,558C309.898,558 308,560 308,567.9C308,571.153 307.332,577.3 306.512,581.6C304.586,591.7 304.612,597.534 306.61,603.8C308.938,611.1 311.636,614.045 316.6,614.707C321.614,615.376 321.896,615 324.509,604.2C326.051,597.828 326.195,594.35 325.55,579.15C325.137,569.45 324.372,560.712 323.85,559.75ZM605.471,565.2C603.218,561.964 600.622,562.4 597.134,566.6C593.813,570.6 593.913,572.165 597.6,573.854C604.7,577.107 609.831,571.465 605.471,565.2ZM568.05,674.55C566.106,672.55 564.294,671 563.9,671C560.699,671 558.399,683.514 561.2,685.69C561.905,686.238 565.2,687.222 568.4,687.841C575.4,689.194 578.334,690.916 581.117,695.3C583.453,698.982 583.335,705.2 580.573,724C579.016,734.6 578.515,749.725 579.59,753.7C580.213,756 582.236,757.208 584.2,756.45C585.474,755.959 591.036,742 592.945,734.5C594.601,728 592.891,696.009 590.712,692.7C589.773,691.274 585.05,687.392 580.25,684.1C575.45,680.809 569.942,676.498 568.05,674.55ZM213.986,533.3C213.993,532.6 213.538,532 213,532C211.51,532 211.752,535.8 214.4,554C215.723,563.1 217.31,575.21 217.937,581C219.789,598.1 219.835,598.171 225.9,593.128L229.3,590.3L226.162,580.4C222.93,570.2 213.963,535.514 213.986,533.3ZM142.8,509C142.533,505 142.222,504.482 140,504.337C136.9,504.134 127.197,506.293 124.4,507.809C123.221,508.447 121.943,510.3 121.648,511.8C120.169,519.3 118.822,539.25 119.339,546C120.448,560.5 123.112,563.084 130.4,556.728C133.952,553.63 134.196,553 136.5,541C137.824,534.1 139.84,525.14 141,521C142.148,516.9 142.964,511.46 142.8,509ZM183.5,506.481C177.6,503.508 175.38,503.395 174.003,506C173.456,507.037 171.75,508.037 170.25,508.2C167.552,508.495 167.474,508.7 166.137,519C164.127,534.5 164.293,555.733 166.461,560.3C169.239,566.155 173.7,566.334 181.6,560.908C188.971,555.844 190.306,552 190.947,534C191.314,523.7 191.969,517.678 192.9,516.05C194.203,513.769 194.1,513.442 191.4,511.3C189.776,510.012 186.3,507.892 183.5,506.481ZM267.5,515.95C266.136,513.25 264.59,511 264.1,511C263.211,511 261,520.7 261,524.6C261,528.8 263.156,537.059 264.1,536.472C265.749,535.445 270,526.1 270,523.5C270,522.082 268.863,518.65 267.5,515.95ZM551.5,159.4C543.411,151.312 534.413,163.6 538.392,177.3C539.844,182.3 544.429,188 547,188C548.584,188 549.775,185.3 551.85,177C554.675,165.7 554.611,162.512 551.5,159.4ZM605.799,741.1C607.048,737.5 606.253,737.183 602.8,739.905C600.1,742.033 596.67,748.413 597.266,750.2C597.824,751.873 604.55,744.7 605.799,741.1ZM620.89,741.6C618.468,738.5 614.294,738.005 613.31,740.7C612.527,742.845 604.8,753.081 602.6,754.887C601.752,755.582 601,757 601,757.9C601,760 610.388,766.2 612.4,765.428C616.02,764.039 622.955,751.9 622.984,746.9C622.993,745.456 622.062,743.1 620.89,741.6ZM204.704,742.8C203.53,738.616 202.215,739.5 201.73,744.8C201.492,747.399 200.316,755 199.1,761.8C197.143,772.739 196.933,776.8 197.2,798.5C197.453,819.1 197.749,823.15 199.1,824.5C201.1,826.5 203.851,825.5 204.603,822.5C205.479,819 205.573,745.895 204.704,742.8ZM297.1,752.9C293.3,749.1 289.346,746.007 288.3,746.015C285.2,746.038 277,751.761 277,753.9C277,754.946 278.998,758.5 281.441,761.8C287.289,769.7 288.738,772.637 290.519,780.2C293.723,793.808 291.395,822.8 284.415,856.2C281.092,872.1 280.836,874.512 281.25,886C281.631,896.6 282.126,899.64 284.503,906C290.221,921.3 293.867,932.683 295.393,940C297.263,948.97 299.517,970.9 301.055,995.1C302.53,1018.3 302.776,1019.42 306.5,1019.77C311.732,1020.27 313.312,1018.1 314.127,1009.3C315.768,991.581 314.876,964 311.474,927.3C309.722,908.4 309.605,896.92 311.071,888C312.304,880.5 313.412,878.799 316.8,879.21C318.711,879.441 319.702,880.7 321.67,885.4C327.25,898.725 333.021,925.2 336.514,953.5C340.266,983.9 341.217,987.906 348.169,1002.6C354.603,1016.2 354.388,1027.36 347.442,1040.4C343.392,1048 343.211,1049.23 346.2,1048.79C349.25,1048.35 356.843,1038.6 361.387,1029.3L365.1,1021.7L363.179,1019.1C359.197,1013.71 358.014,1009.9 354.108,989.9C346.648,951.7 342.645,927.931 339.976,906C338.248,891.8 338.071,891.25 333.518,885.9C327.131,878.397 323.242,870.4 321.942,862.1C321.316,858.1 319.711,851.591 318.391,847.7C314.223,835.412 312.893,825.2 312.125,799.6L311.4,775.4L307.7,767.6C304.996,761.9 302.142,757.943 297.1,752.9ZM432.496,764.5C431.068,755.7 429.591,748.185 429.214,747.8C428.44,747.011 419.941,751.5 418.802,753.3C417.038,756.091 418.399,760.9 423.924,771.4C432.841,788.349 433.5,790.9 433.5,808.5C433.5,817.8 432.983,825.59 432.14,829C430.46,835.8 426.757,842.479 423.5,844.585C421.122,846.121 421,846.7 421,856.4C421,869.3 422.397,877.873 424.9,880.333C426.288,881.698 429.6,882.574 437.2,883.589C449.2,885.191 468,885.503 468,884.1C468,883.071 465.4,882.521 455.5,881.457C448.9,880.748 445.541,879.338 442.502,876C440.614,873.926 440.461,871.9 439.822,840.6C439.119,806.157 438.921,804.1 432.496,764.5ZM461.955,996.4C460.345,954.3 459.302,948.606 459.136,981C459.061,995.6 458.708,1011.86 458.35,1017.2C457.773,1025.8 457.892,1026.98 459.4,1027.6C460.3,1027.97 461.57,1027.83 462.1,1027.3C462.758,1026.64 462.709,1016.1 461.955,996.4ZM626.5,976C626.5,973.944 622.5,973.852 616.8,975.778C613.4,976.927 612,977.925 612,979.2C612,980.611 612.8,980.989 615.7,980.949C620.3,980.886 626.5,978.045 626.5,976ZM246,733.964C243.8,732.578 234.454,733.258 232.7,734.932C232.314,735.3 233.118,740.5 234.488,746.5C238.819,765.47 243.931,798.2 246.562,823.8C247.959,837.4 249.728,851.556 250.499,855.3C252.166,863.4 256.932,878.956 258.282,880.7C259.365,882.1 262.676,882.357 263.447,881.1C263.75,880.607 261.759,873.2 259.038,864.7C252.508,844.3 251.015,836.281 250.625,819.5C250.376,808.8 249.854,804.322 248.408,800.5C246.269,794.848 245.915,779.4 247.573,764C248.842,752.2 247.952,735.195 246,733.964ZM265,748.7C265,747.986 262.05,744.496 258.45,740.95L251.9,734.5L252.6,746C252.983,752.3 253.458,757.704 253.65,757.95C253.84,758.196 255.25,757.264 256.75,755.9C258.25,754.537 260.75,752.628 262.25,751.7C263.75,750.773 265,749.41 265,748.7ZM303.211,742.8C302.775,736.4 301.937,735.903 297.5,739.409L294.6,741.7L296.783,745.2C299.091,748.9 301.798,750.702 302.945,749.3C303.301,748.865 303.422,745.9 303.211,742.8ZM307.5,716.4C305.1,714 301,713.117 301,715C301,715.6 301.4,716 302,716C303.69,716 308,721.1 308,723.1C308,724.1 308.473,725 309,725C311.063,725 309.999,718.9 307.5,716.4ZM277.379,717.8C276.726,715.667 275.1,715.614 272.5,717.641C271.412,718.489 267.9,720.522 264.8,722.098C255.4,726.877 254.92,730.779 262.712,739.1C266.644,743.3 267.857,744 271.2,744C276.1,744 282,741.597 282,739.6C282,738.793 281.538,736.9 281,735.5C280.447,734.065 279.529,729.9 278.95,726.2C278.37,722.5 277.667,718.739 277.379,717.8ZM420.9,925.5C421.283,923.858 421.305,918.2 420.95,913L420.3,903.5L420.25,916C420.222,922.9 420.513,927.156 420.9,925.5ZM613.5,908.428C611.6,907.63 609.526,907.047 608.8,907.106C604.4,907.464 600.199,909.21 598.226,911.5L595.9,914.2L596.2,948.35C596.498,982.35 596.51,982.515 598.852,985.8C602.235,990.545 604.427,989.7 604.818,983.5C605.383,974.527 609.8,970.386 620.8,968.515C623.1,968.124 625.308,967.303 625.68,966.7C627.218,964.216 624.963,942.7 621.361,925.5C618.409,911.4 617.888,910.27 613.5,908.428ZM626.75,907C623.15,907 622.858,907.204 623.459,909.3C625.612,916.817 628.912,907 626.75,907ZM394.55,932.1C393.247,929.992 383,931.5 383,933.8C383,935.44 385.9,937.2 388.6,937.2C391.5,937.2 395.553,933.726 394.55,932.1ZM289.309,943C288.465,939.749 285.238,940.7 282.524,945C281.136,947.2 280,949.428 280,949.95C280,950.466 278.4,952.5 276.5,954.4C274.5,956.4 273.428,958.168 274,958.525C275.68,959.575 285.6,960.332 288.4,959.623C292.059,958.698 291.8,955.358 287.9,953.182C281.9,949.835 281.438,949.337 282.827,947.7C283.501,946.906 284.9,946.327 285.8,946.47C288.3,946.867 289.902,945.283 289.309,943ZM473.25,307.85C469.55,305.466 465.144,302.055 463.5,300.3L460.5,297.1L457.8,300.65C456.278,302.65 455.337,304.812 455.642,305.6C456.617,308.115 469.9,314 474.6,314C477,314 479.143,313.603 479.45,313.1C479.751,312.607 476.95,310.235 473.25,307.85ZM297.519,300.6C296.123,299.1 294.042,298 292.6,298C289.365,298 289.4,298.595 292.8,301.483C295.311,303.616 296.778,306.2 299.621,313.5C300.292,315.225 300.454,315.1 300.794,312.6C301.419,308 300.18,303.46 297.519,300.6ZM145.6,302.439C141.172,299.355 133.336,301.8 130.338,307.2C127.346,312.593 129.865,324.2 135.416,330.6C138.505,334.161 139.2,334.492 143.4,334.4C147.5,334.311 147.934,334.507 147.4,336.2C146.975,337.544 148,339.3 150.9,342.2C153.2,344.5 155.219,346.081 155.5,345.8C155.78,345.52 155.366,343.5 154.556,341.2C152.778,336.15 151,323.7 151,316.3C151,310.2 148.861,304.711 145.6,302.439ZM351.96,307.3C351.928,305.8 351.549,303.618 351.144,302.6C349.998,299.716 348.684,302.4 349.48,306C350.342,309.9 352.036,310.788 351.96,307.3ZM241.8,376.2C241.639,375.4 241.033,374.593 240.5,374.47C238.437,373.994 226.5,377.089 221.4,379.422C217.2,381.343 215.999,382.454 215.155,385.2C214.018,388.901 212.597,401.001 213.3,401C213.574,401 218.25,396.573 223.65,391.2C229.55,385.33 235.224,380.659 237.8,379.55C240.5,378.389 241.988,377.142 241.8,376.2ZM142,460.25C142,457.65 141.6,457 140,457C138.642,457 137.82,457.9 137.44,459.8C136.08,466.6 134.88,469.914 132.842,472.5C130.321,475.7 123.8,478.938 119.8,478.975C118.3,478.989 116.88,479.356 116.606,479.8C115.62,481.4 119.314,501.129 120.7,501.662C121.481,501.963 124.55,501.428 127.65,500.45C131.65,499.189 134.708,498.889 138.6,499.375C144.7,500.138 144.992,499.7 142.463,493.6C139.508,486.473 138.985,480.5 140.545,471.7C141.343,467.2 142,462.034 142,460.25ZM33.144,460.8C31.933,457.7 29.506,457.217 28.122,459.8C26.366,463.08 24,476.8 24,483.7C24,493 25.368,495.397 30.9,495.789L35.3,496.1L34.75,479.8C34.446,470.8 33.727,462.291 33.144,460.8ZM278.9,461.503C270.4,458.426 269.639,458.369 270.958,460.9C271.527,461.994 272,466.05 272,469.85L272,476.8L279.7,477.504C289.2,478.372 292.257,480.309 294.375,486.8C297.964,497.8 297.291,506.458 292.02,517.1C290.337,520.5 289,524.064 289,525.15C289,526.219 292.104,530.4 295.868,534.4C303.488,542.5 305.057,544.938 305.91,550C306.331,552.5 307,553.472 308.25,553.4C309.206,553.346 313.4,553.232 317.5,553.15L325,553L324.95,542.25C324.922,536.35 324.584,530.688 324.2,529.7C323.814,528.709 321.3,526.232 318.6,524.184C311.531,518.823 308.806,513.2 309.304,505C309.524,501.385 310.609,495.15 311.75,490.95C312.89,486.75 313.955,480.982 314.15,477.95L314.5,472.5L308,471.9C303.611,471.495 298.95,470.115 293.65,467.65C289.35,465.651 282.679,462.871 278.9,461.503ZM561.95,167.3C561.977,165 561.547,162.829 561,162.5C560.394,162.137 560,163.4 560,165.7C560,167.791 559.775,171.3 559.5,173.5L559,177.5L560.45,174.5C561.244,172.858 561.922,169.6 561.95,167.3ZM254.4,380.413C249.2,378.25 247.7,378.688 239.9,384.642C226,395.254 218.613,403.966 213.141,416.2C208.757,426 208.628,427.374 211.429,434.4C214.191,441.328 214.279,442.6 213.758,468C213.449,483.1 213.173,485.542 211.75,485.8C210.776,485.978 209.444,484.85 208.5,483.05C207.608,481.35 206.457,480 205.9,480C203.938,480 201.781,487.2 202.395,491.7C203.036,496.4 205.539,502 207,502C207.498,502 210.601,498.45 213.95,494.05C217.298,489.65 221.83,484.845 224.1,483.29C232.964,477.214 232.417,478.3 232.147,467.3C232.005,461.5 232.411,455.455 233.1,453.1C234.867,447.066 240.1,441.52 246.5,438.896C250.3,437.338 252.228,435.942 252.5,434.55C252.718,433.429 253.38,430.1 253.96,427.2C255.323,420.383 259.852,411.5 265.535,404.5C267.97,401.5 270,398.5 270,397.9C270,393.388 260.8,383.074 254.4,380.413ZM317.318,391.8C316.977,386.4 316.385,382 316,382C315.614,382 315.007,384.45 314.65,387.45C314.295,390.423 312.818,396.15 311.4,400.05L308.8,407.2L313.676,412.3C319.7,418.6 322.274,420.918 323.3,420.964C323.736,420.984 323.791,420.5 323.42,419.9C321.401,416.634 317.855,400.3 317.318,391.8ZM158.992,383.8C158.996,383.36 158.1,383 157,383C153.724,383 152.756,386.5 153.211,396.7C153.64,406.3 155.299,410.803 156.417,405.4C156.934,402.9 158.973,385.8 158.992,383.8ZM307.019,390.7C307.012,389.504 299.8,390.039 295.5,391.555C293.2,392.366 289.929,394.34 288.05,396.05C285.05,398.782 284.856,399.257 286.2,400.6C288.3,402.7 298.892,406.942 300.5,406.327C301.608,405.903 307.033,392.9 307.019,390.7ZM536,392C533.5,389.5 531.528,389.472 529.1,391.9C525.533,395.467 525.258,401.3 528.029,414.6C528.737,418 528.968,421.984 528.55,423.6C528.121,425.258 525.1,429.095 521.5,432.554C514.413,439.364 514.805,437.5 517.152,453.2C518.214,460.3 523.389,472.347 526.6,475.193C532.118,480.083 541.6,482.136 548.9,480.021C559.04,477.082 564.5,468.5 564.5,455.5C564.5,449.7 563.993,446.538 562.656,444C560.022,439 553.239,432.204 548.5,429.816C546.3,428.707 543.465,426.833 542.2,425.65C540.001,423.595 539.929,423.1 540.572,414.4C541.326,404.2 539.563,395.564 536,392ZM544,691C541,690.4 537.59,689.669 536.5,689.391C533.962,688.746 533,689.6 533,692.5C533,697.66 540.8,703.655 546,702.491C549.1,701.797 554,696.842 554,694.4C554,693.654 552.95,692.791 551.75,692.55C550.522,692.305 547,691.6 544,691ZM509.446,697.4C510.503,692.4 510.537,691 509.6,691C503.982,691 498,710.7 498,729.2C498,738.5 498.228,739.782 500.35,742.4C501.97,744.4 503.212,745.114 504.35,744.7C505.687,744.214 506,742.7 506,736.7C506,726.1 507.858,704.913 509.446,697.4ZM431.94,712.2C431.918,708.5 431.497,704.605 431,703.5C430.14,701.591 430.097,701.6 430.045,703.7C429.948,707.567 427.9,710.827 423.9,713.48C421.1,715.337 420.265,716.474 420.729,717.8C421.815,720.9 423.195,722 426,722C430.591,722 431.986,719.7 431.94,712.2ZM427.9,265.105C426.147,264.5 422.8,264 420.5,264C413.992,264 413,265.8 413,277.6C413,294.4 412.075,300.725 409.2,303.6C406.4,306.4 403.4,306.68 400.2,304.441C399,303.6 397.545,303.186 397,303.528C395.673,304.361 391.521,318.1 390.056,326.5C388.296,336.6 388.821,338.903 393.7,342.48C400.759,347.657 401.504,349.7 401.544,364C401.585,378.7 402.474,384 404.9,384C406.744,384 409.667,379.6 411.078,374.7C411.585,372.941 412.454,363.4 413.009,353.5C414.951,318.9 417.972,309.586 429.1,303.903C433.3,301.758 433.644,300.772 431.513,297C429.768,293.915 429.649,287.2 431.179,278.2C432.658,269.5 431.903,266.487 427.9,265.105ZM309.469,1030.4C308.93,1028.9 308.011,1027.54 307.4,1027.33C306.282,1026.96 294.743,1035.4 294.182,1037C293.617,1038.61 300.4,1039.15 304.4,1037.81C309.3,1036.17 310.769,1034.02 309.469,1030.4ZM389.6,170.693C385.428,167.983 382.005,169.1 379.467,174C375.894,180.9 379.152,189 385.5,189C390.1,189 395,184.823 395,180.9C395,177 392.743,172.735 389.6,170.693ZM498.527,191.4C496.604,188.476 494.1,188.366 490.7,191.055C487.007,193.975 485.674,198.8 487.233,203.6C488.24,206.703 489.4,207.958 492.9,209.738C498,212.332 500.439,211.621 501.263,207.3C501.988,203.5 500.395,194.24 498.527,191.4ZM619.742,648.7C620.678,645.595 618.228,646.9 614.114,651.7C609.096,657.555 603.831,668.1 600.833,678.3C598.835,685.1 598.736,686.353 599.9,690.2C600.716,692.9 602.725,695.896 605.3,698.25C608.4,701.086 609.107,702.293 608.2,703.2C607.287,704.113 606.15,703.993 603.45,702.7C601.45,701.743 599.703,701 599.45,701C599.201,701 599,708 599,716.6L599,732.2L602.8,731.554C614.884,729.498 617.408,724.1 614,707.6C610.53,690.8 611.697,670.805 616.983,656.5C618.202,653.2 619.444,649.691 619.742,648.7ZM373.027,652.5C372.585,648.2 370.629,647.706 366.4,650.825C364.3,652.373 361.685,654.624 360.735,655.7C357.963,658.842 355.022,668.4 355.043,674.2C355.065,680 358.266,688.445 360.2,687.8C360.854,687.582 361.956,684.4 362.625,680.8C363.998,673.4 366.01,668.963 370.149,664.2C372.826,661.121 373.594,658 373.027,652.5ZM616.5,1030.5L616.5,999.5L613.4,999.212C608.371,998.744 607.928,1000.2 608.23,1016.2L608.5,1030.5L616.5,1030.5ZM344.458,1010.3C343.066,1006.6 341.466,1003.07 340.95,1002.55C340.347,1001.95 340,1008.3 340,1019.9C340,1035.8 340.19,1038.04 341.45,1037C342.244,1036.34 343.827,1033.9 344.951,1031.6C347.783,1025.8 347.619,1018.7 344.458,1010.3ZM180.966,357.9C179.907,355.8 178.676,354.031 178.3,354.066C176.645,354.221 169.951,363.4 168.867,367C167.122,372.8 168.243,375.712 172.7,376.947C174.8,377.529 177.707,378 179.2,378C181.514,378 182.061,377.4 183.029,373.8C184.367,368.824 183.638,363.2 180.966,357.9ZM284.634,649.2C282.659,645.4 282.241,645.319 281.033,648.5C278.47,655.254 278.839,675.3 282.149,709C283.946,727.3 284.809,728.862 287.4,718.5C288.664,713.442 289,706.9 289,687.3C289,661.8 288.382,656.413 284.634,649.2ZM401.1,637.291C398.7,635.454 396.512,634 396.15,634C395.792,634 392.8,636.025 389.5,638.5C386.2,640.975 383.14,643 382.7,643C380.916,643 382.2,645.81 385.4,648.91C388.698,652.105 389.2,652.265 394.1,651.691C399.6,651.046 404.632,648.639 406.415,645.8C407.855,643.509 406.6,641.5 401.1,637.291ZM239.3,637.139C236.4,635.607 232.049,635.642 231.629,637.2C228.986,647 226.139,653.941 222.442,659.6C219.633,663.9 217.994,667.503 217.985,669.4C217.969,672.589 227.15,716.6 229.27,723.5L230.5,727.5L239,727.5C246.9,727.5 247.485,727.359 247.3,725.5C247.189,724.391 246.654,718.6 246.1,712.5C245.551,706.471 244.535,695.4 243.85,688C243.158,680.536 242.689,666.9 242.8,657.5C242.91,648.1 242.664,640.009 242.25,639.4C241.84,638.8 240.5,637.772 239.3,637.139ZM560.6,643.5C557.433,640.334 553.6,640.344 548.3,643.533C538.9,649.188 536.947,659.217 543.9,666.132C548.6,670.806 550.781,670.958 555.4,666.933C562.9,660.398 565.551,648.451 560.6,643.5ZM330,316.006C325.4,313.654 325.063,313.611 324.5,315.3C323.537,318.188 322,335.1 322,342.8C322,352.6 322.276,352.831 331.3,350.575C334.8,349.7 339.377,349 341.6,349C348.542,349 352.366,342.9 352.132,332.2C351.983,325.4 350.143,320.67 347,319.006C345.948,318.449 342.6,318 339.5,318C335.9,318 332.507,317.288 330,316.006ZM496.7,320.414C491.637,316.146 490.124,317.9 492.746,325C493.05,325.825 493.615,341.8 494,360.5C494.66,392.6 494.822,394.78 496.893,399.5C498.911,404.1 503.466,410 505,410C505.332,410 506.178,406.55 506.9,402.25C507.615,397.988 509.504,390 511.1,384.5C512.695,379 514,372.655 514,370.4C514,355.7 503.883,326.471 496.7,320.414ZM546.1,323.9C541.3,319.1 537.972,318.828 533.9,322.9C531.255,325.545 531,326.4 531,332.6C531,348.001 541.293,353.065 547.461,340.7C551.253,333.1 550.896,328.697 546.1,323.9ZM258,336.474C253.9,334.384 248.373,334.627 246,337C244.9,338.1 243.977,339.338 243.95,339.75C243.922,340.159 243.51,343.6 243.046,347.3C241.929,356.2 243.377,367.815 245.926,370.4C246.955,371.444 250.1,373.09 252.9,374.05C255.7,375.011 259.375,376.793 261.05,378C262.75,379.227 264.277,380.023 264.5,379.8C264.719,379.581 265.147,371.45 265.45,361.75L266,344.1L263.4,341C261.974,339.3 259.535,337.256 258,336.474ZM586.32,351.8C586.143,356.6 586.336,360.971 586.75,361.55C587.17,362.138 589.7,363.854 592.5,365.45C595.21,366.995 586.711,341.2 586.32,351.8ZM238.266,338.2C237.866,337 234.6,336.729 232.2,337.696C228.868,339.038 224,356.2 224,366.6C224,370.438 225.1,370.73 232.6,368.884L237,367.8L237,357.15C237,351.25 237.379,344.939 237.85,343C238.311,341.1 238.501,338.906 238.266,338.2ZM151.1,351.1C147.6,348.311 144.201,346 143.6,346C140.917,346 133.751,350.5 130.064,354.5C127.851,356.9 125.654,360.48 125.09,362.6C123.285,369.4 122.687,381.2 123.921,385.7L125.1,390L130.8,390C134.6,390 137.75,390.667 140.25,392C142.35,393.12 144.352,394 144.8,394C145.245,394 146.11,391.05 146.75,387.35C147.683,381.95 148.548,380.024 151.35,377.1C153.266,375.1 155.455,372.167 156.274,370.5C158.24,366.501 159.37,359.519 158.345,357.7C157.883,356.88 154.6,353.89 151.1,351.1ZM393.516,350C388.847,345.136 387.385,346.8 391.056,352.8C393.198,356.3 394.77,356.878 395.684,354.5C396.066,353.507 395.244,351.8 393.516,350ZM549.4,356.1C547.362,353.671 546,353.008 543.1,353.037C538.2,353.086 536.274,354.367 534.435,358.8C533.593,360.829 529.85,365.437 526.15,369L519.4,375.5L516.2,387C511.358,404.4 510.357,412.922 512.088,422C512.87,426.1 514.057,429.579 514.75,429.8C515.428,430.018 517.6,428.6 519.5,426.7C523.334,422.866 524.013,418.8 521.958,412C521.38,410.091 520.9,404.75 520.9,400.25C520.9,393.55 521.301,391.343 523.038,388.5C525.046,385.215 529.5,383 534.1,383C536.194,383 537.217,381.6 539.362,375.8C540.542,372.61 542.85,369.495 546.55,366.1C549.55,363.348 552,360.673 552,360.15C552,359.629 550.825,357.8 549.4,356.1ZM487.533,282.1C486.749,279.2 485.918,276.597 485.7,276.35C485.48,276.104 485.074,280.1 484.8,285.2C484.423,292.2 483.743,295.601 482.05,298.95L479.8,303.4L482,305.194C485.398,307.965 486.633,307.4 487.888,302.5C489.428,296.491 489.291,288.6 487.533,282.1ZM230.269,283.3C229.963,280.5 229.311,279 228.4,279C226.558,279 226.296,279.8 225.087,289.1C224.546,293.262 222.685,300.5 220.972,305.1C215.171,320.682 212,341.5 212,364C212,374 212.761,376.711 215.3,375.746C216.971,375.111 217.04,374.8 219.385,357.3C220.323,350.3 221.908,343.622 223.55,339.75C224.991,336.35 226.609,331.904 227.098,330C228.35,325.124 230.836,288.5 230.269,283.3ZM301.3,722.541C297.329,718.856 295.411,719.3 291.984,724.7C286.779,732.9 288.523,738.825 295.8,737.665C303.5,736.438 306.723,727.575 301.3,722.541ZM185.7,731.2C184.7,729.9 182.788,729.55 181.876,730.5C181.561,730.828 181.89,732.85 182.6,734.95C183.39,737.291 183.9,743.25 183.9,750.15C183.9,756.416 184.602,767.1 185.467,774C190.156,811.4 187.159,836.745 175.237,860.5C170.42,870.1 165,883.653 165,886.1C165,887.275 174.3,883.442 179,880.329C185.032,876.335 188.535,870.2 191.067,859.2C192.287,853.9 194.369,846.507 195.657,842.9C198.585,834.7 198.584,833.841 195.633,830.3C194.311,828.714 192.858,826.2 192.281,824.5C190.638,819.661 191.557,762.3 193.434,752.5C195.542,741.5 195.491,741.155 191.5,739.474C189.1,738.464 187.795,737.136 187.35,735.25C186.995,733.75 186.245,731.91 185.7,731.2ZM468,733.494C462.9,730.844 459.717,731.509 457.44,735.7C455.111,739.986 449.8,743.022 442.7,744.124C439.9,744.559 437.338,745.473 436.877,746.2C435.417,748.508 435.997,756.8 438.491,769.3C443.573,794.763 444.276,802.2 444.9,837.1C445.36,862.9 445.812,871.072 446.847,872.3C449.344,875.265 455.2,876.417 468,876.459C479.5,876.497 480.9,876.296 485.5,873.95C488.6,872.369 491.925,869.519 494.25,866.45C496.295,863.75 498.795,861.5 499.75,861.5C500.843,861.5 502.387,863.3 503.866,866.3C506.774,872.2 510.037,872.759 512.627,867.8C514.117,864.949 514.234,861.65 513.7,837.55C513.369,822.65 512.625,806.683 512.042,802C509.704,783.2 504.439,765.971 498.597,758C494.977,753.062 486.9,747.155 480.7,744.912C478.13,743.982 475.793,742.05 473.85,739.25C472.253,736.95 469.569,734.309 468,733.494ZM210.1,567.05C208.339,554.15 206.81,543.488 206.7,543.35C206.591,543.215 205.131,545.7 203.5,548.8L200.5,554.5L200,580.5C199.725,594.8 199.882,608.75 200.35,611.5C201.03,615.5 200.842,617.16 199.414,619.8C197.028,624.208 198.2,625.045 207.1,625.294L214.5,625.5L214.2,622.5C214.034,620.845 213.765,613 213.6,605C213.411,595.911 212.105,581.75 210.1,567.05ZM467.948,545.5C465.215,542.178 462.856,544.9 464.568,549.4C465.387,551.554 466.7,551.4 467.979,549C468.833,547.4 468.825,546.567 467.948,545.5ZM165.374,580.2C163.858,574.629 160.716,580.8 158.449,593.8C156.618,604.3 156.607,608.84 158.392,618.2C161.708,635.6 166.853,639.907 175.8,632.771C178.1,630.936 179.921,629.281 179.95,629C179.977,628.721 178.5,627.53 176.6,626.3C174.207,624.752 172.6,622.5 171.175,618.7C168.091,610.477 166,599 166,590.3C166,586 165.719,581.468 165.374,580.2ZM587.076,290.6C586.594,294.7 586.132,295.549 584.25,295.8C582.214,296.072 582,295.7 582,291.9C582,287.2 580.779,287.034 577.591,291.3C575.578,293.996 575.5,295.3 575.5,326.2C575.5,346.7 575.861,358.416 576.5,358.62C579.226,359.49 580.442,356.8 581.121,348.4C581.922,338.5 583.463,335.607 589.6,332.487C595.1,329.691 587.762,284.767 587.076,290.6ZM206.7,397.4C207.028,392.8 207.119,389 206.9,389C206.528,389 203.016,394.1 201.598,396.7C199.142,401.2 198.642,424 201,424C202.285,424 206.057,406.4 206.7,397.4ZM456.514,282.3C456.895,278.8 456.8,276 456.3,276C454.733,276 449.075,285.4 446.487,292.3C444.5,297.6 444.177,299.525 445.095,300.6C446.851,302.658 448.362,302.3 451.442,299.1C454.34,296.09 455.393,292.6 456.514,282.3ZM357.186,790.5C355.721,788.1 354.09,786.078 353.6,786.05C353.104,786.023 352.924,791.95 353.2,799.25C353.685,812.108 353.848,812.9 358.724,826C370.336,857.2 376.673,879.542 380.51,902.8C382.308,913.7 383.589,918.877 384.7,919.732C389.255,923.239 397,919 397,913C397,911.355 394.99,899.05 392.55,885.75C390.109,872.45 387.405,856.082 386.562,849.5C385.127,838.3 383,809.221 383,800.8C383,795.011 380.4,793.794 371.6,795.464C363,797.097 360.739,796.318 357.186,790.5ZM599.825,806.3C596.863,803.159 593.708,803.4 590.693,807C586.963,811.453 585.09,819.4 584.045,835.2C583.522,843.113 582.559,856.2 581.89,864.5C580.165,885.9 581.249,889.442 590,891.008C598.119,892.461 599.074,891.1 600.894,875.5C603.892,849.8 604.816,821.331 602.922,813C602.354,810.5 600.978,807.523 599.825,806.3ZM69.379,807.1C70.277,805.629 69.2,805.717 65.3,807.434C62.5,808.667 60.013,811 61.5,811C62.9,811 68.773,808.093 69.379,807.1ZM100.05,816.25C98.25,815.042 96.191,814.012 95.6,814.025C94,814.06 83,820.15 83,821C83,824.177 102.976,822.7 103.299,819.5C103.353,818.963 101.85,817.459 100.05,816.25ZM348.4,824.25C348.069,819.15 347.396,815 346.9,815C346.396,815 346,815.55 346,816.25C346,816.945 342.688,821.5 338.55,826.5C334.411,831.5 329.855,837.012 328.3,838.9C326.355,841.262 325.507,843.4 325.525,845.9C325.563,851.221 331.493,862.6 337.667,869.2C340.567,872.3 343,875.585 343,876.4C343,879.493 344.857,879 347.147,875.3C349.425,871.62 349.492,870.9 349.25,852.5C349.111,842 348.731,829.362 348.4,824.25ZM136.669,831.5C135.738,829.068 133.295,829.8 130.662,833.3C124.947,840.9 127.113,847.906 133.106,841.2C136.144,837.8 137.582,833.886 136.669,831.5ZM414.869,862C414.833,850.9 413.673,846.185 412.481,852.3C411.566,857 412.335,867.041 413.807,869.6C414.635,871.04 414.892,869.2 414.869,862ZM576.15,205.7C574.35,204.25 572.036,203.024 571.15,203.05C569.673,203.095 569.7,203.227 571.4,204.3C572.448,204.963 574.6,206.554 576.2,207.85C577.8,209.147 579.368,209.932 579.7,209.6C580.059,209.241 580.14,208.881 579.9,208.7C579.685,208.539 577.95,207.151 576.15,205.7ZM407.62,214.3C406.264,211.7 405.327,211.043 403.2,211.2C401.704,211.311 394.7,211.656 387.5,211.974C366.511,212.899 363.827,215.5 360.444,238.2C358.372,252.1 359.025,255.744 364.724,262.1C367.985,265.738 368.445,266.9 368.8,272.4C369.154,277.9 368.912,278.945 366.65,281.65C365.248,283.326 362.05,285.489 359.55,286.45C356.55,287.604 355,288.78 355,289.9C355,293.174 358.2,294.695 366.1,295.174C379.367,295.98 383,300.8 383,317.6C383,327.3 384.242,329.56 385.309,321.8C385.635,319.428 387.984,311 390.55,303C395.008,289.098 395.235,287.8 396.055,271.5C397.252,247.7 399.763,238.081 407.226,228.7C409.954,225.272 410.123,219.1 407.62,214.3ZM331,470C329.474,458.9 328.439,457.908 324.22,463.5C321.471,467.143 320.641,469.5 319.4,477.2C318.57,482.345 316.767,490.7 315.366,495.9C312.32,507.2 312.706,510.617 317.651,516.1C323.736,522.849 328.687,520.3 331.056,509.2C332.569,502.107 332.54,481.2 331,470ZM416.55,462.45C413.394,462.922 410.8,462.562 407.1,461.139C400.669,458.666 399.408,459.7 400.318,466.7C401.371,474.8 402.871,478.591 405.5,479.795C412.679,483.083 423.609,472.6 421.552,464.4C420.937,461.95 420.65,461.838 416.55,462.45ZM252.627,202.6C250.798,197.813 244.322,205.8 242.33,215.3C239.771,227.5 241.011,230.515 248.3,229.81L251.5,229.5L252.35,216.8C252.818,209.8 252.942,203.427 252.627,202.6ZM260.587,205.6C259.443,199.5 258.333,201.7 258.367,210C258.385,214.5 258.75,217.65 259.2,217.2C260.56,215.84 261.318,209.5 260.587,205.6ZM477.4,1031.58C474.4,1030.42 472,1031.14 472,1033.2C472,1034.36 476.2,1035.83 477.8,1035.22C479.548,1034.57 479.3,1032.31 477.4,1031.58ZM449.9,1036.73C447.224,1034.55 445.8,1034.57 439.5,1036.9C431.8,1039.76 417.067,1048.61 417.05,1050.4C417.039,1051.62 438.3,1050.49 444.5,1048.95C447.3,1048.25 450.116,1047.13 450.9,1046.41C453.073,1044.4 452.5,1038.85 449.9,1036.73ZM542.9,1042.61C539.3,1039.57 536.407,1039.27 535.05,1041.8C533.714,1044.29 535.4,1046.63 539.5,1048C546.2,1050.23 548.193,1047.07 542.9,1042.61ZM484,1045.4C484,1040.8 483.555,1040.3 481,1042C480.184,1042.54 477.4,1042.91 474.9,1042.8C469.2,1042.55 468,1043.3 468,1047.1C468,1051.5 473.112,1056.42 476.8,1055.57C481.204,1054.55 484,1050.6 484,1045.4ZM493.3,556.425C490.5,553.836 484.89,553.212 483.202,555.3C481.217,557.756 479,566.2 479,571.3C479,574.2 479.806,578.27 480.822,580.5C482.782,584.8 489.441,591.318 491.3,590.755C493.785,590.002 496.452,582.5 496.831,575.2C497.371,564.8 496.321,559.219 493.3,556.425ZM195.45,566.75C195.699,561.35 195.587,557 195.2,557C193.975,557 184,568.4 184,569.8C184,571.059 187.58,590.6 190.027,602.7C190.614,605.6 191.462,608 191.9,608C193.422,608 194.05,603.7 194.528,590C194.786,582.6 195.203,572.095 195.45,566.75ZM612.961,325.386C612.863,326.627 610.411,305.551 617.556,301.309C623.634,297.701 614.484,323.369 617.562,328.777C629.585,349.907 634.21,315.663 630.563,308.061C621.363,288.88 614.45,306.569 612.961,325.386ZM606.396,349.601C604.229,349.601 610.676,369.237 609.707,375.222C604.334,408.403 612.302,407.539 611.509,403.224C610.421,397.293 613.187,381.245 621.331,381.95C627.371,382.473 608.563,349.601 606.396,349.601ZM287.4,305.4C285.6,304.637 283.963,304.021 283.8,304.046C282.1,304.306 275.623,307.034 274.5,307.965C272.607,309.532 272.623,313.7 274.552,321.9C276.858,331.7 276.74,337.874 274.142,343.2C272.126,347.337 271.879,349.55 271.7,365.15L271.5,382.5L274.95,389.5L278.4,396.5L279.55,386.2C280.376,378.8 281.247,375.168 282.645,373.3C288.919,364.915 296,364.156 310.1,370.36C312.1,371.241 314.157,371.556 314.9,371.096C317.154,369.7 315.197,362.4 311.334,357.8C306.665,352.241 304.343,347.5 303.497,341.8C302.889,337.7 302.334,336.871 299.15,335.3L295.5,333.5L295.5,323.5C295.5,314.5 295.26,313.165 293.1,310.15C291.81,308.35 289.173,306.153 287.4,305.4ZM419.9,652.5C418.597,650.6 417.179,649 416.8,649C415.745,649 415.843,690 416.917,698.4C417.416,702.3 418.495,705.996 419.4,706.9C422.07,709.571 423.945,706.3 425.707,695.9C427.039,688.039 427.126,684.7 426.24,675.5C425.075,663.4 423.53,657.794 419.9,652.5ZM112.3,495.265C110.368,493.851 110.2,493.841 107.4,494.987C103.312,496.659 101.518,502.5 101.561,514C101.594,523 102.047,525.843 104.733,533.9C108.466,545.1 108.055,547 101.9,547C99.7,547 96.28,546.325 94.3,545.5C92.3,544.667 90.655,544.112 90.6,544.25C90.545,544.388 90.635,549.6 90.8,555.8L91.1,567.1L99.8,571.1C114.898,578.04 115.973,579.9 117.084,601C117.531,609.5 117.922,617.968 117.95,619.75C117.977,621.55 118.446,623 119,623C119.565,623 120,622 120,620.7C120,619.426 120.909,615.1 122.04,611C127.994,589.4 128.003,578.455 122.074,570.5C115.141,561.2 113.702,558.022 113.196,550.9C112.922,547.038 113.516,536.1 114.521,526.5C116.51,507.5 115.823,497.846 112.3,495.265ZM449.5,499.15C447.977,496.35 446.334,494 445.9,494C444.766,494 444.798,494.2 446.472,497.6C447.254,499.19 448.623,505.45 449.5,511.45C450.376,517.45 451.28,522.581 451.5,522.8C452.502,523.803 453.23,517.2 452.79,511.1C452.437,506.2 451.517,502.862 449.5,499.15ZM442.05,504.75C441.477,503.25 440.818,502 440.6,502C440.009,502 438.138,512.8 436.561,525.3L435.2,536.1L428.7,542.324C421.86,548.873 420.89,550.9 419.005,562.6C417.877,569.6 416.776,571.561 410.9,577.036C407.9,579.83 406,582.453 406,583.8C406,586.815 412.9,594.124 418.7,597.254C428.8,602.704 444.222,602.987 449.7,597.821C453.167,594.552 455.578,587 457.944,572C460.516,555.7 459.939,552.737 452.149,542.2C445.64,533.396 445.125,531.9 444.021,518.6C443.515,512.5 442.627,506.262 442.05,504.75ZM23.35,518.3C23.72,510.2 23.613,503.861 23.1,503.543C21.707,502.681 18.093,507.8 16.847,512.4C15.356,517.9 15.336,530.95 16.814,533.7C18.264,536.4 20.568,536.63 21.822,534.2C22.304,533.267 22.992,526.1 23.35,518.3ZM407,278.9C407,269.6 406.617,262 406.15,262C405.664,262 404.485,262.9 403.4,264.1C401.775,265.896 401.453,268.1 401.18,279.3C400.8,294.9 401.386,299 404,299C405,299 406.066,298.289 406.4,297.4C406.73,296.52 407,288.2 407,278.9ZM519.8,488.925C516.2,487.048 514,486.469 514,487.4C514,487.673 515.558,491 517.418,494.7C521.707,503.23 523.553,513.6 524.949,537C525.528,546.7 526.448,557.271 527,560.55C527.554,563.85 528,566.612 528,566.75C528,566.89 528.95,567 530.15,567L532.3,567L531.7,536.25C531.356,518.65 530.615,503.576 529.965,501C528.671,495.864 525.2,491.74 519.8,488.925ZM435.611,493.8C436.871,486.172 430.441,490.7 426.949,499.9C423.419,509.2 425.032,529.146 429.2,527.739C430.02,527.462 431.33,521.8 432.75,512.4C433.988,504.2 435.274,495.837 435.611,493.8ZM477.759,270.2C475.851,266.2 470.835,266.045 468.077,269.9C462.568,277.6 464.288,294.581 471,298.767C473.635,300.41 474.563,299.8 477.189,294.7C478.896,291.384 479.271,288.9 479.15,281.7C479.067,276.8 478.442,271.632 477.759,270.2ZM417.5,418.654C413.4,417.068 408.662,418.525 404.992,422.5C402.639,425.05 402.5,425.85 402.5,436.85L402.5,448.5L405,448.059C409.1,447.336 417.388,447.491 419.7,448.334C421.679,449.057 421.84,448.7 422.507,442.1C423.68,430.5 421.478,420.193 417.5,418.654ZM124.6,430.255C121.864,428.707 121.1,428.708 118.1,430.268C113.093,432.872 111.524,436.5 111.6,445.3C111.691,455.9 113.013,470.456 114.035,472.1C116.528,476.117 128.438,470.8 129.491,465.2C129.773,463.705 130.736,459.6 131.65,456C132.563,452.4 133.59,447.091 133.95,444.1C134.587,438.8 134.527,438.634 130.7,435.1C128.6,433.162 125.784,430.926 124.6,430.255ZM600.321,435C598.175,432.447 597.1,432 593.1,432C584.789,432 581.154,438.4 582.422,450.8C583.69,463.2 588.109,470.895 593,469.216C603,465.782 607.706,443.786 600.321,435ZM253.478,449.6C250.41,444.3 248.471,443.851 244.2,447.451C237.372,453.205 235.014,465 238.953,473.7C240.039,476.1 241.253,478 241.7,478C242.136,478 245.5,476.858 249.1,475.486C256.5,472.667 258.679,469.953 257.041,465.6C256.527,464.237 256.122,461.1 256.15,458.7C256.185,455.611 255.389,452.9 253.478,449.6ZM505.572,449.2C504.213,446.6 503.3,446 500.7,446C493.766,446 488,453.9 488,463.4C488,469.7 489.397,473.196 493.4,476.908C497.113,480.351 500.648,478.9 503.895,472.6C507.141,466.3 508.03,453.902 505.572,449.2ZM74.8,489.406C70.5,486.664 70.375,486.639 69.322,488.3C68.372,489.8 68.002,529.335 68.925,530.8C69.636,531.929 82.3,536 85.1,536C87.888,536 88.243,532.8 87.072,518.2C85.628,500.2 83.352,494.858 74.8,489.406ZM300.464,582.3C301.412,576.4 302.041,569.912 301.85,568L301.5,564.5L291.9,573.999C280.7,585.081 272.466,596.4 271.533,602C270.8,606.4 272.27,609.971 276.6,614.3C280.2,617.9 291.016,624 293.8,624C296.058,624 302.4,619 304.074,615.9C304.838,614.485 304.436,612.7 302.497,608.9C298.927,601.905 298.407,595.1 300.464,582.3ZM466,571.8C466,569.7 465.597,568 465.1,568C464.111,568 462.985,572.9 463.054,576.9C463.098,579.4 463.155,579.425 464.55,577.55C465.351,576.473 466,573.9 466,571.8ZM179.611,574.2C178.217,570.2 176.738,569.516 173.2,571.235C170.8,572.4 170.8,572.4 171.291,587C171.833,603.1 174.14,612.911 178.3,616.804C180.1,618.489 189.058,622.584 189.01,621.7C189.004,621.588 188.318,619.3 187.45,616.5C186.601,613.762 184.769,603.9 183.4,594.7C182.03,585.5 180.316,576.227 179.611,574.2ZM506.3,591C506.19,586.9 505.692,582.14 505.2,580.5C504.435,577.95 504.195,578.7 503.605,585.5C502.903,593.6 503.693,599.117 505.5,598.72C506.086,598.591 506.417,595.4 506.3,591ZM405.8,414.046L409.5,412.1L405.65,412.05C402.45,412.009 401.158,412.642 398,415.8C392.47,421.33 391.04,427.5 393.089,437C394.478,443.442 396,442.5 396,435.2C396,424.4 399.185,417.525 405.8,414.046ZM148.529,423.2C147.47,418.7 146.284,415 145.9,415C145.08,415 144.555,418.3 142.989,433.3C141.914,443.6 142.219,445.154 146.149,449.4C147.629,451 148.24,451.16 149.2,450.2C151.171,448.229 150.788,432.8 148.529,423.2ZM61.9,406.697C58.817,404.205 51,404.436 47.6,407.119C40.344,412.845 40.271,420.6 47.385,429.9C53.964,438.5 54.733,439.14 57.6,438.397C60.554,437.631 60.839,439.8 58.295,443.7C56.967,445.736 56.589,448.6 56.55,456.9C56.506,466.2 56.72,467.543 58.3,467.847C60.356,468.242 64.32,465.3 68.333,460.4C70.544,457.7 70.95,456.603 70.11,455.6C67.178,452.103 65.806,442.6 66.34,429.5C66.92,415.3 65.869,409.906 61.9,406.697ZM295.4,412.417C278.3,404.833 278,404.873 278,414.7C278,424.5 273.688,431.168 264.3,435.889C262,437.045 259.844,438.408 259.534,438.9C258.694,440.239 263.1,446.115 266.8,448.592C269.016,450.075 272.3,450.991 276.8,451.381C298.2,453.237 307.243,456.128 307.835,461.3C308.156,464.1 306.431,465.032 304.5,463.1C302.736,461.337 290,457.013 286.7,457.057C283.713,457.098 283.9,457.291 289.5,459.953C299.3,464.612 310.517,467.501 313.5,466.134C316.618,464.704 316.615,463 313.484,458.4C309.617,452.72 309.9,452.053 318.8,445.878C326.1,440.813 326.679,436.156 320.837,429.5C316.985,425.112 303.3,415.92 295.4,412.417ZM273.116,413.7C271.564,409.599 270.565,409.7 266.25,414.4C262.026,419 258.194,428.595 259.9,430.3C261.979,432.38 271.326,424.7 273.043,419.5C273.736,417.4 273.761,415.407 273.116,413.7ZM360.425,398.2C359.364,396.67 357.85,396 355.45,396C352.517,396 351.61,396.6 349.4,400C346.922,403.813 346.785,404.7 346.5,418.9C346.276,430 345.801,434.566 344.636,436.8C342.342,441.2 339.425,442.904 335.3,442.253L331.8,441.7L332.45,446.6C332.804,449.273 334.438,454.5 336.045,458.1C341.49,470.304 343.222,486.3 341.133,505.1C340.488,510.9 339.888,512.282 336.176,516.5C329.737,523.817 329.474,525.6 330.886,552.3C332.251,578.1 332.938,580.767 337.9,579.537C342.6,578.372 345.399,576.576 347.625,573.3C349.707,570.237 349.828,568.7 350.466,537.3C351.541,484.4 353.794,475.718 368,469.734C373.563,467.39 375.346,464.7 375.843,457.9C376.502,448.9 374.207,443.835 365.9,435.95C359.2,429.59 359.001,429.257 359.05,424.45C359.077,421.728 359.739,416.8 360.521,413.5C362.37,405.7 362.34,400.962 360.425,398.2ZM143,400.2C143,397.616 139.5,397.142 136.5,399.321C134.845,400.522 134.767,401.1 135.9,403.8C136.612,405.5 138.035,407.646 139.05,408.55C140.827,410.136 140.94,410.05 141.95,406.35C142.522,404.25 143,401.455 143,400.2ZM129.9,403.763C125.3,400.888 117.956,400.927 114.7,403.844C110.672,407.452 115.7,416.85 124.7,422.536C127.9,424.558 131.687,427.321 133.15,428.7C134.65,430.116 136.233,430.94 136.8,430.6C137.356,430.267 138.088,427.45 138.45,424.25C138.811,421.05 139.321,417.591 139.6,416.45C139.96,414.974 139.4,414.078 137.6,413.25C136.223,412.617 134.448,410.55 133.65,408.65C132.851,406.75 131.166,404.555 129.9,403.763Z"/>
            </g>
            <g id="individual" transform="matrix(-1.20018,0,0,1.1523,1818.31,-55.1173)">
                <g id="individual-torso" serif:id="individual torso" transform="matrix(0.806249,0,0,0.795182,178.283,-137.319)">
                    <path d="M602.916,704.822C602.916,704.822 614.768,704.578 620.933,699.859C627.098,695.14 638.669,711.617 638.661,728.53C638.651,748.316 631.434,762.9 637.284,767.888C652.965,781.259 646.494,793.136 639.056,789.231C627.487,783.157 633.302,746.602 614.824,753.254C605.685,756.545 597.706,757.557 587.458,762.728C582.275,765.343 582.09,774.716 584.837,778.23C587.583,781.744 593.021,779.578 592.655,784.215C591.173,802.962 601.473,814.826 600.012,815.571C592.013,819.647 582.928,815.403 576.571,822.28C572.44,826.749 567.292,838.469 567.292,838.469C567.292,838.469 553.935,752.464 563.421,737.224C566.884,731.66 577.143,725.36 587.595,720.447C595.553,716.706 602.916,704.822 602.916,704.822Z" style="fill:rgb(67,141,198);stroke:black;stroke-width:8.68px;"/>
                </g>
                <g id="individual-head" serif:id="individual head" transform="matrix(1.05092,0,0,0.934027,51.3498,-19.6963)">
                    <path d="M593.1,432C597.915,432.08 598.922,432.723 600.325,434.349C605.444,440.284 606.796,464.32 591.375,469.856C589.977,470.358 582.015,465.964 582.441,442.732C582.622,432.842 588.285,431.92 593.1,432Z" style="fill:rgb(67,141,198);stroke:black;stroke-width:7px;"/>
                </g>
            </g>
        </g>
    </g>
</svg>
